<?xml version="1.0"?>
<svg xmlns="http://www.w3.org/2000/svg" xmlns:xlink="http://www.w3.org/1999/xlink" version="1.1" id="Capa_1" x="0px" y="0px" viewBox="0 0 607.962 607.962" style="enable-background:new 0 0 607.962 607.962;" xml:space="preserve" width="512px" height="512px" class=""><g><g><g>
	<g>
		<g id="flat_34_">
			<path style="fill:#87CED9;" d="M40.531,10.125H486.37c22.383,0,40.531,18.148,40.531,40.531v445.839     c0,22.383-18.148,40.531-40.531,40.531H40.531C18.148,537.026,0,518.878,0,496.495V50.656C0,28.273,18.148,10.125,40.531,10.125z     " data-original="#87CED9"/>
			<path style="fill:#71C4D1;" d="M60.796,537.026H486.37c22.383,0,40.531-18.148,40.531-40.531V70.921L60.796,537.026z" data-original="#71C4D1" class=""/>
			<rect x="30.398" y="40.523" style="fill:#5EB3D1;" width="20.265" height="20.265" data-original="#5EB3D1"/>
			<rect x="70.929" y="40.523" style="fill:#5EB3D1;" width="20.265" height="20.265" data-original="#5EB3D1"/>
			<rect x="111.46" y="40.523" style="fill:#5EB3D1;" width="20.265" height="20.265" data-original="#5EB3D1"/>
			<rect x="30.398" y="81.054" style="fill:#5EB3D1;" width="466.104" height="20.265" data-original="#5EB3D1"/>
			<rect x="162.123" y="162.116" style="fill:#5EB3D1;" width="172.256" height="20.265" data-original="#5EB3D1"/>
			<rect x="162.123" y="202.647" style="fill:#5EB3D1;" width="70.929" height="20.265" data-original="#5EB3D1"/>
			<rect x="253.317" y="202.647" style="fill:#5EB3D1;" width="141.858" height="20.265" data-original="#5EB3D1"/>
			<rect x="354.644" y="162.116" style="fill:#5EB3D1;" width="101.327" height="20.265" data-original="#5EB3D1"/>
			<path style="fill:#5EB3D1;" d="M81.062,243.177c-27.976,0-50.663-22.687-50.663-50.663s22.687-50.663,50.663-50.663     s50.663,22.687,50.663,50.663C131.695,220.48,109.028,243.147,81.062,243.177z M81.062,162.116     c-16.79,0-30.398,13.608-30.398,30.398s13.608,30.398,30.398,30.398s30.398-13.608,30.398-30.398S97.851,162.116,81.062,162.116z     " data-original="#5EB3D1"/>
			<rect x="162.123" y="283.708" style="fill:#5EB3D1;" width="172.256" height="20.265" data-original="#5EB3D1"/>
			<rect x="162.123" y="324.239" style="fill:#5EB3D1;" width="70.929" height="20.265" data-original="#5EB3D1"/>
			<rect x="253.317" y="324.239" style="fill:#5EB3D1;" width="141.858" height="20.265" data-original="#5EB3D1"/>
			<rect x="354.644" y="283.708" style="fill:#5EB3D1;" width="101.327" height="20.265" data-original="#5EB3D1"/>
			<path style="fill:#5EB3D1;" d="M81.062,364.77c-27.976,0-50.663-22.687-50.663-50.663s22.687-50.664,50.663-50.664     s50.663,22.687,50.663,50.664C131.695,342.072,109.028,364.739,81.062,364.77z M81.062,283.708     c-16.79,0-30.398,13.608-30.398,30.398c0,16.79,13.608,30.398,30.398,30.398s30.398-13.608,30.398-30.398     C111.46,297.316,97.851,283.708,81.062,283.708z" data-original="#5EB3D1"/>
			<rect x="162.123" y="405.301" style="fill:#5EB3D1;" width="172.256" height="20.265" data-original="#5EB3D1"/>
			<rect x="162.123" y="445.831" style="fill:#5EB3D1;" width="70.929" height="20.265" data-original="#5EB3D1"/>
			<rect x="253.317" y="445.831" style="fill:#5EB3D1;" width="141.858" height="20.265" data-original="#5EB3D1"/>
			<rect x="354.644" y="405.301" style="fill:#5EB3D1;" width="101.327" height="20.265" data-original="#5EB3D1"/>
			<path style="fill:#5EB3D1;" d="M81.062,486.362c-27.976,0-50.663-22.687-50.663-50.663s22.687-50.663,50.663-50.663     s50.663,22.687,50.663,50.663C131.695,463.665,109.028,486.332,81.062,486.362z M81.062,405.301     c-16.79,0-30.398,13.608-30.398,30.398s13.608,30.398,30.398,30.398s30.398-13.608,30.398-30.398S97.851,405.301,81.062,405.301z     " data-original="#5EB3D1"/>
			
				<rect x="68.475" y="151.99" transform="matrix(0.7071 -0.7071 0.7071 0.7071 -81.9912 126.3002)" style="fill:#00D6FF" width="85.975" height="20.265" data-original="#00D6FF" class="" data-old_color="#00E5FF"/>
			
				<rect x="68.462" y="273.574" transform="matrix(0.7071 -0.7071 0.7071 0.7071 -167.9679 161.9028)" style="fill:#00D6FF" width="85.975" height="20.265" data-original="#00D6FF" class="" data-old_color="#00E5FF"/>
			
				<rect x="68.468" y="395.176" transform="matrix(0.7071 -0.7071 0.7071 0.7071 -253.9517 197.5226)" style="fill:#00D6FF" width="85.975" height="20.265" data-original="#00D6FF" class="" data-old_color="#00E5FF"/>
			<circle style="fill:#00D6FF" cx="466.104" cy="455.964" r="141.858" data-original="#00D6FF" class="" data-old_color="#00E5FF"/>
			<path style="fill:#00F6AF" d="M415.441,516.76c-0.547,0-1.084-0.041-1.621-0.132c-3.222-0.517-5.988-2.553-7.448-5.472     l-20.265-40.531l18.138-9.059l13.973,27.956l111.652-111.652l14.328,14.328L422.605,513.791     C420.71,515.696,418.126,516.76,415.441,516.76z" data-original="#00FFB5" class="active-path" data-old_color="#01EFAB"/>
			<path style="fill:#00D6FF" d="M394.466,578.266c67.443,39.659,154.28,17.134,193.94-50.309c26.071-44.331,26.071-99.3,0-143.631     L394.466,578.266z" data-original="#00D6FF" class="" data-old_color="#D94881"/>
		</g>
	</g>
</g></g></g> </svg>
