<?xml version="1.0"?>
<svg xmlns="http://www.w3.org/2000/svg" xmlns:xlink="http://www.w3.org/1999/xlink" version="1.1" id="Capa_1" x="0px" y="0px" viewBox="0 0 587.697 587.697" style="enable-background:new 0 0 587.697 587.697;" xml:space="preserve" width="512px" height="512px" class=""><g><g>
	<g>
		<g id="flat_3_">
			<polygon style="fill:#DADDDF;" points="411.641,415.441 385.043,344.512 283.716,344.512 257.117,415.441 222.919,415.441      222.919,435.706 445.839,435.706 445.839,415.441    " data-original="#DADDDF" class=""/>
			<polygon style="fill:#C1C7C9;" points="396.442,374.91 385.043,344.512 283.716,344.512 272.316,374.91    " data-original="#C1C7C9" class=""/>
			<path style="fill:#4398D1;" d="M111.46,0C94.67,0,81.062,13.608,81.062,30.398v253.317h506.635V30.398     C587.697,13.608,574.088,0,557.298,0H111.46z" data-original="#4398D1"/>
			<path style="fill:#DADDDF;" d="M81.062,283.716v30.398c0,16.79,13.608,30.398,30.398,30.398h445.839     c16.79,0,30.398-13.608,30.398-30.398v-30.398H81.062z" data-original="#DADDDF" class=""/>
			<polygon style="fill:#87CED9;" points="233.052,587.697 0,587.697 0,182.389 303.981,182.389 303.981,516.768    " data-original="#87CED9"/>
			<polygon style="fill:#71C4D1;" points="0,567.431 0,587.697 233.052,587.697 303.981,516.768 303.981,263.45    " data-original="#71C4D1" class=""/>
			<polygon style="fill:#4398D1;" points="303.981,516.768 233.052,587.697 233.052,516.768    " data-original="#4398D1"/>
			<rect x="30.398" y="212.787" style="fill:#5EB3D1;" width="40.531" height="20.265" data-original="#5EB3D1"/>
			<rect x="30.398" y="253.317" style="fill:#5EB3D1;" width="40.531" height="20.265" data-original="#5EB3D1"/>
			<rect x="141.858" y="283.716" style="fill:#5EB3D1;" width="20.265" height="222.919" data-original="#5EB3D1"/>
			<rect x="344.512" y="466.104" style="fill:#DADDDF;" width="243.185" height="121.592" data-original="#DADDDF" class=""/>
			<rect x="374.91" y="537.033" style="fill:#C1C7C9;" width="20.265" height="20.265" data-original="#C1C7C9" class=""/>
			<rect x="537.033" y="537.033" style="fill:#C1C7C9;" width="20.265" height="20.265" data-original="#C1C7C9" class=""/>
			<rect x="374.91" y="496.502" style="fill:#C1C7C9;" width="20.265" height="20.265" data-original="#C1C7C9" class=""/>
			<rect x="415.441" y="496.502" style="fill:#C1C7C9;" width="20.265" height="20.265" data-original="#C1C7C9" class=""/>
			<rect x="455.971" y="496.502" style="fill:#C1C7C9;" width="20.265" height="20.265" data-original="#C1C7C9" class=""/>
			<rect x="496.502" y="496.502" style="fill:#C1C7C9;" width="20.265" height="20.265" data-original="#C1C7C9" class=""/>
			<rect x="537.033" y="496.502" style="fill:#C1C7C9;" width="20.265" height="20.265" data-original="#C1C7C9" class=""/>
			<rect x="415.441" y="537.033" style="fill:#C1C7C9;" width="101.327" height="20.265" data-original="#C1C7C9" class=""/>
			<rect x="293.848" y="121.592" style="fill:#2A7FBF;" width="162.123" height="20.265" data-original="#2A7FBF"/>
			<rect x="334.379" y="172.256" style="fill:#2A7FBF;" width="81.062" height="20.265" data-original="#2A7FBF"/>
			<rect x="374.91" y="70.929" style="fill:#2A7FBF;" width="162.123" height="20.265" data-original="#2A7FBF"/>
			<rect x="435.706" y="172.256" style="fill:#2A7FBF;" width="101.327" height="20.265" data-original="#2A7FBF"/>
			<rect x="334.379" y="222.919" style="fill:#2A7FBF;" width="121.592" height="20.265" data-original="#2A7FBF"/>
			<rect x="476.237" y="222.919" style="fill:#2A7FBF;" width="60.796" height="20.265" data-original="#2A7FBF"/>
			<rect x="476.237" y="121.592" style="fill:#2A7FBF;" width="60.796" height="20.265" data-original="#2A7FBF"/>
			<rect x="293.848" y="70.929" style="fill:#2A7FBF;" width="60.796" height="20.265" data-original="#2A7FBF"/>
			<rect x="111.46" y="30.398" style="fill:#2A7FBF;" width="20.265" height="20.265" data-original="#2A7FBF"/>
			<rect x="151.99" y="30.398" style="fill:#2A7FBF;" width="20.265" height="20.265" data-original="#2A7FBF"/>
			<rect x="192.521" y="30.398" style="fill:#2A7FBF;" width="20.265" height="20.265" data-original="#2A7FBF"/>
			<path style="fill:#01B6A1" d="M144.827,149.022l-30.398-30.398c-3.952-3.962-3.952-10.366,0-14.328l30.398-30.398l14.328,14.328     L135.92,111.46l23.234,23.234L144.827,149.022z" data-original="#E34B87" class="active-path" data-old_color="#01B5A0"/>
			<path style="fill:#01B6A1" d="M240.216,149.022l-14.328-14.328l23.234-23.234l-23.234-23.234l14.328-14.328l30.398,30.398     c3.952,3.962,3.952,10.366,0,14.328L240.216,149.022z" data-original="#E34B87" class="active-path" data-old_color="#01B5A0"/>
			
				<rect x="150.745" y="101.326" transform="matrix(0.2428 -0.9701 0.9701 0.2428 37.6614 271.1559)" style="fill:#01B6A1" width="83.556" height="20.256" data-original="#E34B87" class="active-path" data-old_color="#01B5A0"/>
			<polygon style="fill:#01B6A1" points="101.327,344.512 151.99,314.114 202.654,344.512 151.99,374.91    " data-original="#E34B87" class="active-path" data-old_color="#01B5A0"/>
			<rect x="101.327" y="405.308" style="fill:#01B6A1" width="101.327" height="50.663" data-original="#E34B87" class="active-path" data-old_color="#01B5A0"/>
			<path style="fill:#01B6A1" d="M136.791,496.502h30.398c13.993,0,25.332,11.338,25.332,25.332l0,0     c0,13.993-11.338,25.332-25.332,25.332h-30.398c-13.993,0-25.332-11.339-25.332-25.332l0,0     C111.46,507.841,122.798,496.502,136.791,496.502z" data-original="#E34B87" class="active-path" data-old_color="#01B5A0"/>
			<path style="fill:#01B6A1" d="M136.791,233.052h30.398c13.993,0,25.332,11.338,25.332,25.332l0,0     c0,13.993-11.338,25.332-25.332,25.332h-30.398c-13.993,0-25.332-11.339-25.332-25.332l0,0     C111.46,244.391,122.798,233.052,136.791,233.052z" data-original="#E34B87" class="active-path" data-old_color="#01B5A0"/>
		</g>
	</g>
</g></g> </svg>
