<?xml version="1.0"?>
<svg xmlns="http://www.w3.org/2000/svg" xmlns:xlink="http://www.w3.org/1999/xlink" version="1.1" id="Capa_1" x="0px" y="0px" viewBox="0 0 587.697 587.697" style="enable-background:new 0 0 587.697 587.697;" xml:space="preserve" width="512px" height="512px" class=""><g><g>
	<g>
		<g id="flat_17_">
			<path style="fill:#4398D1;" d="M30.398,0h445.839c16.79,0,30.398,13.608,30.398,30.398v364.777     c0,16.79-13.608,30.398-30.398,30.398H30.398C13.608,425.573,0,411.965,0,395.175V30.398C0,13.608,13.608,0,30.398,0z" data-original="#4398D1"/>
			<rect x="30.398" y="30.398" style="fill:#3E8CC7;" width="20.265" height="20.265" data-original="#3E8CC7"/>
			<rect x="70.929" y="30.398" style="fill:#3E8CC7;" width="20.265" height="20.265" data-original="#3E8CC7"/>
			<rect x="111.46" y="30.398" style="fill:#3E8CC7;" width="20.265" height="20.265" data-original="#3E8CC7"/>
			<path style="fill:#87CED9;" d="M111.46,81.062h445.839c16.79,0,30.398,13.608,30.398,30.398v364.777     c0,16.79-13.608,30.398-30.398,30.398H111.46c-16.79,0-30.398-13.608-30.398-30.398V111.46     C81.062,94.67,94.67,81.062,111.46,81.062z" data-original="#87CED9" class=""/>
			<path style="fill:#71C4D1;" d="M557.298,81.062h-25.332L106.859,506.169c1.52,0.274,3.06,0.426,4.6,0.466h445.839     c16.79,0,30.398-13.608,30.398-30.398V111.46C587.697,94.67,574.088,81.062,557.298,81.062z" data-original="#71C4D1" class=""/>
			<rect x="111.46" y="111.46" style="fill:#5EB3D1;" width="20.265" height="20.265" data-original="#5EB3D1" class=""/>
			<rect x="151.99" y="111.46" style="fill:#5EB3D1;" width="20.265" height="20.265" data-original="#5EB3D1" class=""/>
			<rect x="192.521" y="111.46" style="fill:#5EB3D1;" width="20.265" height="20.265" data-original="#5EB3D1" class=""/>
			<rect x="111.46" y="151.99" style="fill:#5EB3D1;" width="445.839" height="20.265" data-original="#5EB3D1" class=""/>
			<rect x="131.725" y="324.246" style="fill:#5EB3D1;" width="60.796" height="20.265" data-original="#5EB3D1" class=""/>
			<rect x="131.725" y="374.91" style="fill:#5EB3D1;" width="212.787" height="20.265" data-original="#5EB3D1" class=""/>
			<rect x="131.725" y="425.573" style="fill:#5EB3D1;" width="111.46" height="20.265" data-original="#5EB3D1" class=""/>
			<rect x="314.114" y="273.583" style="fill:#5EB3D1;" width="101.327" height="20.265" data-original="#5EB3D1" class=""/>
			<rect x="466.104" y="374.91" style="fill:#5EB3D1;" width="70.929" height="20.265" data-original="#5EB3D1" class=""/>
			<rect x="374.91" y="425.573" style="fill:#5EB3D1;" width="162.123" height="20.265" data-original="#5EB3D1" class=""/>
			<rect x="222.919" y="324.246" style="fill:#5EB3D1;" width="151.99" height="20.265" data-original="#5EB3D1" class=""/>
			<rect x="314.114" y="222.919" style="fill:#5EB3D1;" width="70.929" height="20.265" data-original="#5EB3D1" class=""/>
			<rect x="405.308" y="222.919" style="fill:#5EB3D1;" width="131.725" height="20.265" data-original="#5EB3D1" class=""/>
			<rect x="263.45" y="425.573" style="fill:#5EB3D1;" width="91.194" height="20.265" data-original="#5EB3D1" class=""/>
			<rect x="395.175" y="324.246" style="fill:#5EB3D1;" width="141.858" height="20.265" data-original="#5EB3D1" class=""/>
			<rect x="435.706" y="273.583" style="fill:#5EB3D1;" width="101.327" height="20.265" data-original="#5EB3D1" class=""/>
			<rect x="364.777" y="374.91" style="fill:#5EB3D1;" width="81.062" height="20.265" data-original="#5EB3D1" class=""/>
			<path style="fill:#00FFCB" d="M165.092,290.879l-30.398-30.398c-3.952-3.952-3.952-10.376,0-14.328l30.398-30.398l14.328,14.328     l-23.234,23.234l23.234,23.234L165.092,290.879z" data-original="#E34B87" class="active-path" data-old_color="#00FFC4"/>
			<path style="fill:#00FFCB" d="M260.481,290.879l-14.328-14.328l23.234-23.234l-23.234-23.234l14.328-14.328l30.398,30.398     c3.952,3.952,3.952,10.376,0,14.328L260.481,290.879z" data-original="#E34B87" class="active-path" data-old_color="#00FFC4"/>
			
				<rect x="171.011" y="243.202" transform="matrix(0.2427 -0.9701 0.9701 0.2427 -84.6163 398.2759)" style="fill:#00FFCB" width="83.554" height="20.265" data-original="#E34B87" class="active-path" data-old_color="#00FFC4"/>
			<polygon style="fill:#00FFCB" points="222.919,547.166 202.654,567.431 222.919,587.697 425.573,587.697 425.573,547.166    " data-original="#E34B87" class="active-path" data-old_color="#00FFC4"/>
			<path style="fill:#4398D1;" d="M445.839,547.166h-20.265v40.531h20.265c11.197,0,20.265-9.069,20.265-20.265     C466.104,556.234,457.035,547.166,445.839,547.166z" data-original="#4398D1"/>
			<path style="fill:#3E8CC7;" d="M81.062,111.46L81.062,111.46L81.062,111.46v314.114l0,0H50.663l0,0V141.858     C50.663,125.068,64.272,111.46,81.062,111.46z" data-original="#3E8CC7"/>
		</g>
	</g>
</g></g> </svg>
