<?xml version="1.0"?>
<svg xmlns="http://www.w3.org/2000/svg" xmlns:xlink="http://www.w3.org/1999/xlink" version="1.1" id="Capa_1" x="0px" y="0px" viewBox="0 0 597.829 597.829" style="enable-background:new 0 0 597.829 597.829;" xml:space="preserve" width="512px" height="512px" class=""><g><g>
	<g>
		<g id="flat_20_">
			<path style="fill:#FFB782;" d="M531.967,597.829V349.771c0.01-22.728-9.525-44.422-26.284-59.783l-95.308-87.334h-50.663v395.175     " data-original="#FFB782" class=""/>
			<polygon style="fill:#FFAE73;" points="440.772,230.519 410.374,202.654 359.711,202.654 359.711,374.91 440.772,374.91    " data-original="#FFAE73" class=""/>
			<path style="fill:#4398D1;" d="M106.393,0h263.45c22.383,0,40.531,18.148,40.531,40.531v506.635     c0,22.383-18.148,40.531-40.531,40.531h-263.45c-22.383,0-40.531-18.148-40.531-40.531V40.531C65.863,18.148,84.01,0,106.393,0z" data-original="#4398D1"/>
			<path style="fill:#3E8CC7;" d="M349.578,40.531v20.265h60.796V40.531C410.374,18.148,392.227,0,369.844,0h-60.796     C331.43,0,349.578,18.148,349.578,40.531z" data-original="#3E8CC7"/>
			<path style="fill:#87CED9;" d="M410.374,60.796H65.863v445.839h344.512V60.796z" data-original="#87CED9"/>
			<polygon style="fill:#71C4D1;" points="153.369,506.635 410.374,506.635 410.374,60.796 356.023,60.796    " data-original="#71C4D1" class=""/>
			<path style="fill:#00FFCB" d="M116.526,101.327h40.531c5.593,0,10.133,4.539,10.133,10.133v40.531     c0,5.593-4.539,10.133-10.133,10.133h-40.531c-5.593,0-10.133-4.539-10.133-10.133V111.46     C106.393,105.866,110.933,101.327,116.526,101.327z" data-original="#E34B87" class="" data-old_color="#00FFB5"/>
			<path style="fill:#0091FF" d="M217.853,101.327h40.531c5.593,0,10.133,4.539,10.133,10.133v40.531     c0,5.593-4.539,10.133-10.133,10.133h-40.531c-5.593,0-10.133-4.539-10.133-10.133V111.46     C207.72,105.866,212.26,101.327,217.853,101.327z" data-original="#BF3D75" class="active-path" data-old_color="#0099FF"/>
			<path style="fill:#00FFCB" d="M319.18,101.327h40.531c5.593,0,10.133,4.539,10.133,10.133v40.531     c0,5.593-4.539,10.133-10.133,10.133H319.18c-5.593,0-10.133-4.539-10.133-10.133V111.46     C309.047,105.866,313.587,101.327,319.18,101.327z" data-original="#E34B87" class="" data-old_color="#00FFB5"/>
			<path style="fill:#00FFCB" d="M116.526,202.654h40.531c5.593,0,10.133,4.539,10.133,10.133v40.531     c0,5.593-4.539,10.133-10.133,10.133h-40.531c-5.593,0-10.133-4.539-10.133-10.133v-40.531     C106.393,207.193,110.933,202.654,116.526,202.654z" data-original="#E34B87" class="" data-old_color="#00FFB5"/>
			<path style="fill:#0091FF" d="M116.526,303.981h40.531c5.593,0,10.133,4.539,10.133,10.133v40.531     c0,5.593-4.539,10.133-10.133,10.133h-40.531c-5.593,0-10.133-4.539-10.133-10.133v-40.531     C106.393,308.52,110.933,303.981,116.526,303.981z" data-original="#BF3D75" class="active-path" data-old_color="#0099FF"/>
			<path style="fill:#00FFCB" d="M217.853,202.654h40.531c5.593,0,10.133,4.539,10.133,10.133v40.531     c0,5.593-4.539,10.133-10.133,10.133h-40.531c-5.593,0-10.133-4.539-10.133-10.133v-40.531     C207.72,207.193,212.26,202.654,217.853,202.654z" data-original="#E34B87" class="" data-old_color="#00FFB5"/>
			<path style="fill:#00FFCB" d="M319.18,202.654h40.531c5.593,0,10.133,4.539,10.133,10.133v40.531     c0,5.593-4.539,10.133-10.133,10.133H319.18c-5.593,0-10.133-4.539-10.133-10.133v-40.531     C309.047,207.193,313.587,202.654,319.18,202.654z" data-original="#E34B87" class="" data-old_color="#00FFB5"/>
			<path style="fill:#00FFCB" d="M217.853,303.981h40.531c5.593,0,10.133,4.539,10.133,10.133v40.531     c0,5.593-4.539,10.133-10.133,10.133h-40.531c-5.593,0-10.133-4.539-10.133-10.133v-40.531     C207.72,308.52,212.26,303.981,217.853,303.981z" data-original="#E34B87" class="" data-old_color="#00FFB5"/>
			<path style="fill:#00FFCB" d="M116.526,405.308h40.531c5.593,0,10.133,4.539,10.133,10.133v40.531     c0,5.593-4.539,10.133-10.133,10.133h-40.531c-5.593,0-10.133-4.539-10.133-10.133v-40.531     C106.393,409.847,110.933,405.308,116.526,405.308z" data-original="#E34B87" class="" data-old_color="#00FFB5"/>
			<path style="fill:#0091FF" d="M217.853,405.308h40.531c5.593,0,10.133,4.539,10.133,10.133v40.531     c0,5.593-4.539,10.133-10.133,10.133h-40.531c-5.593,0-10.133-4.539-10.133-10.133v-40.531     C207.72,409.847,212.26,405.308,217.853,405.308z" data-original="#BF3D75" class="active-path" data-old_color="#0099FF"/>
			<rect x="227.986" y="537.033" style="fill:#3269A1;" width="20.265" height="20.265" data-original="#3269A1"/>
			<rect x="65.863" y="60.796" style="fill:#71C4D1;" width="344.512" height="20.265" data-original="#71C4D1" class=""/>
			<rect x="65.863" y="486.37" style="fill:#71C4D1;" width="344.512" height="20.265" data-original="#71C4D1" class=""/>
			<path style="fill:#FFB782;" d="M349.578,597.829v-18.127c0-47.644,14.105-94.224,40.531-133.863l0,0L319.18,374.91     c-16.79-16.8-16.79-44.027,0.01-60.816c0.993-0.993,2.037-1.935,3.121-2.827c17.834-13.882,43.257-12.088,58.972,4.154     l150.683,150.683v131.725H349.578z" data-original="#FFB782" class=""/>
			<path style="fill:#F2A46F" d="M481.303,425.573c-2.685,0-5.269-1.064-7.164-2.969l-70.929-70.929     c-3.891-4.023-3.78-10.437,0.243-14.328c3.931-3.79,10.153-3.79,14.084,0l70.929,70.929c3.952,3.962,3.952,10.376,0,14.328     C486.562,424.509,483.988,425.573,481.303,425.573z" data-original="#F2A46F" class=""/>
		</g>
	</g>
</g></g> </svg>
