<?xml version="1.0"?>
<svg xmlns="http://www.w3.org/2000/svg" xmlns:xlink="http://www.w3.org/1999/xlink" version="1.1" id="Capa_1" x="0px" y="0px" viewBox="0 0 587.697 587.697" style="enable-background:new 0 0 587.697 587.697;" xml:space="preserve" width="512px" height="512px" class=""><g><g>
	<g>
		<g id="flat_32_">
			<rect x="202.654" style="fill:#87CED9;" width="385.043" height="81.062" data-original="#87CED9" class=""/>
			<rect x="202.654" y="50.663" style="fill:#71C4D1;" width="385.043" height="30.398" data-original="#71C4D1" class=""/>
			<rect x="243.185" y="81.062" style="fill:#DADDDF;" width="40.531" height="40.531" data-original="#DADDDF" class=""/>
			<rect x="506.635" y="81.062" style="fill:#DADDDF;" width="40.531" height="40.531" data-original="#DADDDF" class=""/>
			<rect x="243.185" y="81.062" style="fill:#C1C7C9;" width="40.531" height="20.265" data-original="#C1C7C9" class=""/>
			<rect x="506.635" y="81.062" style="fill:#C1C7C9;" width="40.531" height="20.265" data-original="#C1C7C9" class=""/>
			<rect x="537.033" y="30.398" style="fill:#01AA28" width="20.265" height="20.265" data-original="#E34B87" class="active-path" data-old_color="#01AC29"/>
			<rect x="496.502" y="30.398" style="fill:#01AA28" width="20.265" height="20.265" data-original="#E34B87" class="active-path" data-old_color="#01AC29"/>
			<rect x="455.971" y="30.398" style="fill:#01AA28" width="20.265" height="20.265" data-original="#E34B87" class="active-path" data-old_color="#01AC29"/>
			<rect x="233.052" y="30.398" style="fill:#01AA28" width="20.265" height="20.265" data-original="#E34B87" class="active-path" data-old_color="#01AC29"/>
			<rect x="202.654" y="121.592" style="fill:#87CED9;" width="385.043" height="81.062" data-original="#87CED9" class=""/>
			<rect x="202.654" y="172.256" style="fill:#71C4D1;" width="385.043" height="30.398" data-original="#71C4D1" class=""/>
			<rect x="243.185" y="202.654" style="fill:#DADDDF;" width="40.531" height="40.531" data-original="#DADDDF" class=""/>
			<rect x="506.635" y="202.654" style="fill:#DADDDF;" width="40.531" height="40.531" data-original="#DADDDF" class=""/>
			<rect x="243.185" y="202.654" style="fill:#C1C7C9;" width="40.531" height="20.265" data-original="#C1C7C9" class=""/>
			<rect x="506.635" y="202.654" style="fill:#C1C7C9;" width="40.531" height="20.265" data-original="#C1C7C9" class=""/>
			<rect x="537.033" y="151.99" style="fill:#01AA28" width="20.265" height="20.265" data-original="#E34B87" class="active-path" data-old_color="#01AC29"/>
			<rect x="496.502" y="151.99" style="fill:#01AA28" width="20.265" height="20.265" data-original="#E34B87" class="active-path" data-old_color="#01AC29"/>
			<rect x="455.971" y="151.99" style="fill:#01AA28" width="20.265" height="20.265" data-original="#E34B87" class="active-path" data-old_color="#01AC29"/>
			<rect x="233.052" y="151.99" style="fill:#01AA28" width="20.265" height="20.265" data-original="#E34B87" class="active-path" data-old_color="#01AC29"/>
			<rect x="202.654" y="243.185" style="fill:#87CED9;" width="385.043" height="81.062" data-original="#87CED9" class=""/>
			<polygon style="fill:#71C4D1;" points="486.37,293.848 486.37,243.185 202.654,243.185 202.654,293.848 202.654,324.246      486.37,324.246 587.697,324.246 587.697,293.848    " data-original="#71C4D1" class=""/>
			<rect x="243.185" y="324.246" style="fill:#DADDDF;" width="40.531" height="40.531" data-original="#DADDDF" class=""/>
			<rect x="506.635" y="324.246" style="fill:#DADDDF;" width="40.531" height="40.531" data-original="#DADDDF" class=""/>
			<rect x="243.185" y="324.246" style="fill:#C1C7C9;" width="40.531" height="20.265" data-original="#C1C7C9" class=""/>
			<rect x="506.635" y="324.246" style="fill:#C1C7C9;" width="40.531" height="20.265" data-original="#C1C7C9" class=""/>
			<rect x="537.033" y="273.583" style="fill:#01AA28" width="20.265" height="20.265" data-original="#E34B87" class="active-path" data-old_color="#01AC29"/>
			<rect x="496.502" y="273.583" style="fill:#01AA28" width="20.265" height="20.265" data-original="#E34B87" class="active-path" data-old_color="#01AC29"/>
			<rect x="455.971" y="273.583" style="fill:#01AA28" width="20.265" height="20.265" data-original="#E34B87" class="active-path" data-old_color="#01AC29"/>
			<rect x="233.052" y="273.583" style="fill:#01AA28" width="20.265" height="20.265" data-original="#E34B87" class="active-path" data-old_color="#01AC29"/>
			<rect x="202.654" y="364.777" style="fill:#87CED9;" width="385.043" height="81.062" data-original="#87CED9" class=""/>
			<polygon style="fill:#71C4D1;" points="486.37,415.441 486.37,364.777 202.654,364.777 202.654,415.441 202.654,445.839      486.37,445.839 587.697,445.839 587.697,415.441    " data-original="#71C4D1" class=""/>
			<rect x="243.185" y="445.839" style="fill:#DADDDF;" width="40.531" height="40.531" data-original="#DADDDF" class=""/>
			<rect x="506.635" y="445.839" style="fill:#DADDDF;" width="40.531" height="40.531" data-original="#DADDDF" class=""/>
			<rect x="243.185" y="445.839" style="fill:#C1C7C9;" width="40.531" height="20.265" data-original="#C1C7C9" class=""/>
			<rect x="506.635" y="445.839" style="fill:#C1C7C9;" width="40.531" height="20.265" data-original="#C1C7C9" class=""/>
			<rect x="537.033" y="395.175" style="fill:#01AA28" width="20.265" height="20.265" data-original="#E34B87" class="active-path" data-old_color="#01AC29"/>
			<rect x="496.502" y="395.175" style="fill:#01AA28" width="20.265" height="20.265" data-original="#E34B87" class="active-path" data-old_color="#01AC29"/>
			<rect x="455.971" y="395.175" style="fill:#01AA28" width="20.265" height="20.265" data-original="#E34B87" class="active-path" data-old_color="#01AC29"/>
			<rect x="233.052" y="395.175" style="fill:#01AA28" width="20.265" height="20.265" data-original="#E34B87" class="active-path" data-old_color="#01AC29"/>
			<path style="fill:#4398D1;" d="M30.398,162.123h405.308c16.79,0,30.398,13.608,30.398,30.398v364.777     c0,16.79-13.608,30.398-30.398,30.398H30.398C13.608,587.697,0,574.088,0,557.298V192.521     C0,175.731,13.608,162.123,30.398,162.123z" data-original="#4398D1"/>
			<path style="fill:#3E8CC7;" d="M435.706,162.123h-30.398L1.419,566.013c3.81,12.838,15.594,21.654,28.98,21.684h405.308     c16.79,0,30.398-13.608,30.398-30.398l0,0V192.521C466.104,175.731,452.496,162.123,435.706,162.123z" data-original="#3E8CC7" class=""/>
			<rect x="40.531" y="283.716" style="fill:#87CED9;" width="385.043" height="121.592" data-original="#87CED9" class=""/>
			<rect x="222.919" y="354.644" style="fill:#5EB3D1;" width="20.265" height="20.265" data-original="#5EB3D1"/>
			<rect x="182.389" y="354.644" style="fill:#5EB3D1;" width="20.265" height="20.265" data-original="#5EB3D1"/>
			<rect x="141.858" y="354.644" style="fill:#5EB3D1;" width="20.265" height="20.265" data-original="#5EB3D1"/>
			<rect x="263.45" y="354.644" style="fill:#5EB3D1;" width="20.265" height="20.265" data-original="#5EB3D1"/>
			<rect x="303.981" y="354.644" style="fill:#5EB3D1;" width="20.265" height="20.265" data-original="#5EB3D1"/>
			<rect x="40.531" y="445.839" style="fill:#87CED9;" width="101.327" height="60.796" data-original="#87CED9" class=""/>
			<rect x="182.389" y="445.839" style="fill:#87CED9;" width="101.327" height="60.796" data-original="#87CED9" class=""/>
			<rect x="324.246" y="445.839" style="fill:#87CED9;" width="101.327" height="60.796" data-original="#87CED9" class=""/>
			<rect x="30.398" y="192.521" style="fill:#2A7FBF" width="20.265" height="20.265" data-original="#2A7FBF" class=""/>
			<rect x="70.929" y="192.521" style="fill:#2A7FBF" width="20.265" height="20.265" data-original="#2A7FBF" class=""/>
			<rect x="111.46" y="192.521" style="fill:#2A7FBF" width="20.265" height="20.265" data-original="#2A7FBF" class=""/>
			<rect x="30.398" y="233.052" style="fill:#2A7FBF" width="405.308" height="20.265" data-original="#2A7FBF" class=""/>
			<rect x="30.398" y="537.033" style="fill:#2A7FBF" width="121.592" height="20.265" data-original="#2A7FBF" class=""/>
			<rect x="172.256" y="537.033" style="fill:#2A7FBF" width="121.592" height="20.265" data-original="#2A7FBF" class=""/>
			<rect x="314.114" y="537.033" style="fill:#2A7FBF" width="121.592" height="20.265" data-original="#2A7FBF" class=""/>
		</g>
	</g>
</g></g> </svg>
