<svg width="517" height="722" viewBox="0 0 517 722" fill="none" xmlns="http://www.w3.org/2000/svg">
<g id="Frame 47463" clip-path="url(#clip0_1_291)">
    <rect width="517" height="722" fill="#010000"/>

<g id="Group 47524" opacity="0.6">
    <path id="Polygon 1002" d="M193.239 148.801L59.4996 223.046L-74.2399 148.801L-74.2399 0.315537L59.4996 -73.9292L193.239 0.315607L193.239 148.801Z" stroke="#0FF0FC" stroke-width="0.1236"/>
    <path id="Polygon 1006" d="M59.2391 371.801L-74.5004 446.046L-208.24 371.801L-208.24 223.315L-74.5004 149.071L59.2391 223.316L59.2391 371.801Z" stroke="#0FF0FC" stroke-width="0.1236"/>
    <path id="Polygon 1003" d="M461.239 297.801L327.5 372.046L193.76 297.801L193.76 149.315L327.5 75.0708L461.239 149.316L461.239 297.801Z" stroke="#0FF0FC" stroke-width="0.1236"/>
    <path id="Polygon 1011" d="M416.257 273.063L327.98 322.07L239.704 273.063L239.704 175.053L327.981 126.047L416.257 175.053L416.257 273.063Z" stroke="#0FF0FC" stroke-width="0.081584"/>
    <path id="Polygon 1012" d="M282.257 496.063L193.98 545.07L105.704 496.063L105.704 398.053L193.981 349.047L282.257 398.053L282.257 496.063Z" stroke="#0FF0FC" stroke-width="0.081584"/>
    <path id="Polygon 1013" d="M148.257 719.063L59.9805 768.07L-28.2964 719.063L-28.2963 621.053L59.9805 572.047L148.257 621.053L148.257 719.063Z" stroke="#0FF0FC" stroke-width="0.081584"/>
    <path id="Polygon 1014" d="M550.257 645.063L461.98 694.07L373.704 645.063L373.704 547.053L461.981 498.047L550.257 547.053L550.257 645.063Z" stroke="#0FF0FC" stroke-width="0.081584"/>
    <path id="Polygon 1007" d="M327.239 520.801L193.5 595.046L59.7601 520.801L59.7601 372.315L193.5 298.071L327.239 372.316L327.239 520.801Z" stroke="#0FF0FC" stroke-width="0.1236"/>
    <path id="Polygon 1009" d="M327.239 520.801L193.5 595.046L59.7601 520.801L59.7601 372.315L193.5 298.071L327.239 372.316L327.239 520.801Z" stroke="#0FF0FC" stroke-width="0.1236"/>
    <path id="Polygon 1010" d="M193.239 743.801L59.4996 818.046L-74.2399 743.801L-74.2399 595.315L59.4996 521.071L193.239 595.316L193.239 743.801Z" stroke="#0FF0FC" stroke-width="0.1236"/>
    <path id="Polygon 1004" d="M729.239 446.801L595.5 521.046L461.76 446.801L461.76 298.315L595.5 224.071L729.239 298.316L729.239 446.801Z" stroke="#0FF0FC" stroke-width="0.1236"/>
    <path id="Polygon 1008" d="M595.239 669.801L461.5 744.046L327.76 669.801L327.76 521.315L461.5 447.071L595.239 521.316L595.239 669.801Z" stroke="#0FF0FC" stroke-width="0.1236"/>
</g>

<g id="Group 47523" opacity="0.5">
    <rect id="Rectangle 970" x="-40" width="512" height="722" fill="url(#paint0_linear_1_291)"/>
    <rect id="Rectangle 971" x="520" y="722" width="512" height="722" transform="rotate(-180 520 722)" fill="url(#paint1_linear_1_291)"/>
</g>

<circle id="Ellipse 1402" cx="193.75" cy="148.75" r="0.75" fill="#0FF0FC" fill-opacity="0.46"/>
<circle id="Ellipse 1410" cx="239.75" cy="174.75" r="0.75" fill="#0FF0FC" fill-opacity="0.46"/>
<circle id="Ellipse 1411" cx="416.75" cy="272.75" r="0.75" fill="#0FF0FC" fill-opacity="0.46"/>
<circle id="Ellipse 1412" cx="416.75" cy="175.75" r="0.75" fill="#0FF0FC" fill-opacity="0.46"/>
<circle id="Ellipse 1403" cx="460.75" cy="148.75" r="0.75" fill="#0FF0FC" fill-opacity="0.46"/>
<line id="Line 46" x1="58" y1="52.85" x2="449" y2="52.85" stroke="#0FF0FC" stroke-width="0.3"/>
<circle id="Ellipse 1404" cx="461.75" cy="297.75" r="0.75" fill="#0FF0FC" fill-opacity="0.46"/>
<circle id="Ellipse 1405" cx="327.75" cy="371.75" r="0.75" fill="#0FF0FC" fill-opacity="0.46"/>
<circle id="Ellipse 1406" cx="193.75" cy="297.75" r="0.75" fill="#0FF0FC" fill-opacity="0.46"/>
<circle id="Ellipse 1413" cx="59.75" cy="371.75" r="0.75" fill="#0FF0FC" fill-opacity="0.46"/>
<circle id="Ellipse 1414" cx="105.75" cy="397.75" r="0.75" fill="#0FF0FC" fill-opacity="0.46"/>
<rect id="Rectangle 973" x="57" y="1" width="42" height="722" fill="#0FF0FC" fill-opacity="0.02"/>
<circle id="Ellipse 1407" cx="192.75" cy="594.75" r="0.75" fill="#0FF0FC" fill-opacity="0.46"/>
<circle id="Ellipse 1409" cx="59.75" cy="520.75" r="0.75" fill="#0FF0FC" fill-opacity="0.46"/>
<circle id="Ellipse 1408" cx="327.75" cy="520.75" r="0.75" fill="#0FF0FC" fill-opacity="0.46"/>

<g id="Group 47519" opacity="0.6">
<g id="Rectangle 972">
<rect x="460" width="42" height="722" fill="#0FF0FC" fill-opacity="0.02"/>
<rect x="460" width="42" height="722" fill="#0FF0FC" fill-opacity="0.02"/>
</g>
<g id="Rectangle 976">
<rect x="474" width="42" height="722" fill="#0FF0FC" fill-opacity="0.02"/>
<rect x="474" width="42" height="722" fill="#0FF0FC" fill-opacity="0.02"/>
</g>
<rect id="Rectangle 973_2" x="409" width="42" height="722" fill="#0FF0FC" fill-opacity="0.02"/>
<rect id="Rectangle 975" x="400" width="42" height="722" fill="#0FF0FC" fill-opacity="0.04"/>
<rect id="Rectangle 974" x="348" width="42" height="722" fill="#0FF0FC" fill-opacity="0.01"/>
</g>
<g id="Group 47520" opacity="0.6">
<g id="Rectangle 972_2">
<rect x="42" y="722" width="42" height="722" transform="rotate(-180 42 722)" fill="#0FF0FC" fill-opacity="0.02"/>
<rect x="42" y="722" width="42" height="722" transform="rotate(-180 42 722)" fill="#0FF0FC" fill-opacity="0.02"/>
</g>
<rect id="Rectangle 973_3" x="93" y="722" width="42" height="722" transform="rotate(-180 93 722)" fill="#0FF0FC" fill-opacity="0.02"/>
<rect id="Rectangle 974_2" x="154" y="722" width="42" height="722" transform="rotate(-180 154 722)" fill="#0FF0FC" fill-opacity="0.02"/>
</g>
<g id="Group 47521">
<rect id="Rectangle 977" x="12" y="43" width="3" height="34" fill="#0FF0FC"/>
<rect id="Rectangle 978" x="11" y="52" width="1" height="638" fill="#0FF0FC"/>
</g>
<g id="Group 47541">


    <g id="Group 47518">
        <text id="lifetime" fill="#0FF0FC" xml:space="preserve" style="white-space: pre" font-family="Debodies" font-size="11.9269" letter-spacing="0em"><tspan x="345.461" y="513.769">lifetime</tspan></text>
        <rect id="Rectangle 968" x="305.148" y="496.462" width="116.196" height="28.4562" fill="url(#paint2_linear_1_291)"/>
        <rect id="Rectangle 969" x="483" y="524.918" width="112.639" height="28.4562" transform="rotate(-180 483 524.918)" fill="url(#paint3_linear_1_291)"/>
    </g>


<g id="Group 47515">
<text id="MEMBERSHIP TYPE" stroke="#0FF0FC" stroke-width="0.355703" xml:space="preserve" style="white-space: pre" font-family="Barlow Condensed" font-size="18.9708" font-weight="bold" letter-spacing="0em"><tspan x="36" y="486.027">Level</tspan></text>
<g id="Group 47514">
<text id="governor" fill="#0FF0FC" xml:space="preserve" style="white-space: pre" font-family="Debodies" font-size="23.7135" letter-spacing="0em"><tspan x="36" y="518.007">founder</tspan></text>
</g>
</g>
<g id="Group 47511">
<text id="MEMBER ID" stroke="#0FF0FC" stroke-width="0.355703" xml:space="preserve" style="white-space: pre" font-family="Barlow Condensed" font-size="18.9708" font-weight="bold" letter-spacing="0em"><tspan x="36" y="205.022">ID</tspan></text>
<text id="#ID" stroke="#0FF0FC" stroke-width="0.5" xml:space="preserve" style="white-space: pre" font-family="Digital Numbers" font-size="47.4271" letter-spacing="0em"><tspan x="36" y="266.536">#000000000000</tspan></text>
</g>
<g id="Group 47516">

<g id="Group 47510">
    <text id="USERNAME" stroke="#0FF0FC" stroke-width="0.512056" xml:space="preserve" style="white-space: pre" font-family="Barlow Condensed" font-size="27.3096" font-weight="bold" letter-spacing="0em"><tspan x="36" y="335.414">USERNAME</tspan></text>
</g>

<g id="Group 47512">
    <text id="IDANCALI" opacity="0.8" fill="#0FF0FC" xml:space="preserve" style="white-space: pre" font-family="Barlow Condensed" font-size="76.5857" font-weight="bold" letter-spacing="0em"><tspan x="36" y="412.134">dan</tspan></text>
</g>

</g>
</g>
<g id="Group 47536">
<rect id="Rectangle 982" x="18" y="686" width="9" height="9" fill="#0FF0FC"/>
<rect id="Rectangle 983" x="29" y="686" width="4" height="9" fill="#0FF0FC"/>
<rect id="Rectangle 984" x="35" y="686" width="4" height="9" fill="#0FF0FC"/>
<rect id="Rectangle 986" x="41" y="686" width="17" height="9" fill="#0FF0FC"/>
<rect id="Rectangle 988" x="60" y="686" width="10" height="9" fill="#0FF0FC" fill-opacity="0.7"/>
<rect id="Rectangle 989" x="73" y="686" width="86" height="9" fill="url(#paint4_linear_1_291)"/>
</g>
<g id="Group 47526">
<g id="Group 47533">
<g id="Group 47527">
<rect id="Rectangle 979" x="472" y="53" width="22" height="1" transform="rotate(180 472 53)" fill="#D7D7D7" fill-opacity="0.27"/>
<rect id="Rectangle 980" width="60" height="0.2" transform="matrix(-1 8.74228e-08 8.74228e-08 1 472 52.8)" fill="#D7D7D7" fill-opacity="0.27"/>
</g>
<g id="Group 47528">
<rect id="Rectangle 979_2" width="22" height="0.999902" transform="matrix(-1 8.74228e-08 8.74228e-08 1 472 19)" fill="#D7D7D7" fill-opacity="0.27"/>
<rect id="Rectangle 980_2" x="472" y="19.2" width="60" height="0.19998" transform="rotate(180 472 19.2)" fill="#D7D7D7" fill-opacity="0.27"/>
</g>
<g id="Group 47531">
<rect id="Rectangle 979_3" x="472" y="25" width="4" height="1" transform="rotate(90 472 25)" fill="#D7D7D7" fill-opacity="0.27"/>
<rect id="Rectangle 980_3" width="14" height="0.2" transform="matrix(1.31134e-07 1 1 -1.31134e-07 471.8 19)" fill="#D7D7D7" fill-opacity="0.27"/>
</g>
<g id="Group 47532">
<rect id="Rectangle 979_4" width="4" height="1" transform="matrix(-4.37114e-08 -1 -1 4.37114e-08 472 47)" fill="#D7D7D7" fill-opacity="0.27"/>
<rect id="Rectangle 980_4" x="471.8" y="53" width="14" height="0.2" transform="rotate(-90 471.8 53)" fill="#D7D7D7" fill-opacity="0.27"/>
</g>
</g>
</g>
<g id="Group 47533_2">
<g id="Group 47527_2">
<rect id="Rectangle 979_5" x="49" y="19" width="22" height="1" fill="#D7D7D7" fill-opacity="0.27"/>
<rect id="Rectangle 980_5" width="60" height="0.2" transform="matrix(1 0 0 -1 49 19.2)" fill="#D7D7D7" fill-opacity="0.27"/>
</g>
<g id="Group 47528_2">
<rect id="Rectangle 979_6" width="22" height="0.999902" transform="matrix(1 0 0 -1 49 53)" fill="#D7D7D7" fill-opacity="0.27"/>
<rect id="Rectangle 980_6" x="49" y="52.8" width="60" height="0.19998" fill="#D7D7D7" fill-opacity="0.27"/>
</g>
<g id="Group 47531_2">
<rect id="Rectangle 979_7" x="49" y="47" width="4" height="1" transform="rotate(-90 49 47)" fill="#D7D7D7" fill-opacity="0.27"/>
<rect id="Rectangle 980_7" width="14" height="0.2" transform="matrix(-4.37114e-08 -1 -1 4.37114e-08 49.2002 53)" fill="#D7D7D7" fill-opacity="0.27"/>
</g>
<g id="Group 47532_2">
<rect id="Rectangle 979_8" width="4" height="1" transform="matrix(-4.37114e-08 1 1 4.37114e-08 49 25)" fill="#D7D7D7" fill-opacity="0.27"/>
<rect id="Rectangle 980_8" x="49.2002" y="19" width="14" height="0.2" transform="rotate(90 49.2002 19)" fill="#D7D7D7" fill-opacity="0.27"/>
</g>
</g>
<g id="Group 47534">
<path id="Rectangle 975_2" d="M20 53L54.5 19L376 19L376 53L20 53Z" fill="url(#paint5_linear_1_291)"/>
</g>
<g id="Group 47535">
<rect id="Rectangle 975_3" x="178" y="55" width="4" height="130.229" transform="rotate(-90 178 55)" fill="url(#paint6_linear_1_291)"/>
<rect id="Rectangle 976_2" x="345" y="51" width="4" height="130.229" transform="rotate(90 345 51)" fill="url(#paint7_linear_1_291)"/>
</g>
<g id="Group 47537">
<rect id="Rectangle 975_4" x="178" y="55" width="4" height="130.229" transform="rotate(-90 178 55)" fill="url(#paint8_linear_1_291)"/>
<rect id="Rectangle 976_3" x="345" y="51" width="4" height="130.229" transform="rotate(90 345 51)" fill="url(#paint9_linear_1_291)"/>
</g>
<rect id="Rectangle 975_5" x="12" y="43" width="4.00013" height="356" fill="url(#paint10_linear_1_291)"/>
<rect id="Rectangle 976_4" x="16" y="399" width="4.00013" height="356" transform="rotate(-180 16 399)" fill="url(#paint11_linear_1_291)"/>
<g id="Vector 737" filter="url(#filter0_d_1_291)">
<path d="M11 44.478L41.0713 14H502V704H11V44.478Z" stroke="url(#paint12_linear_1_291)" shape-rendering="crispEdges"/>
</g>
<g id="Vector 738" filter="url(#filter1_d_1_291)">
<path d="M502 673.522L471.929 704L11 704L11.0001 14L502 14L502 673.522Z" stroke="url(#paint13_linear_1_291)" shape-rendering="crispEdges"/>
</g>
<g id="Group 47540">
<g id="Group 47468">
<g id="Subtract">
<mask id="path-80-inside-1_1_291" fill="white">
<path fill-rule="evenodd" clip-rule="evenodd" d="M34 99.25L51.563 109L69.126 99.25L69.126 79.75L51.563 70L34 79.75L34 99.25ZM51.6009 80.9194L40.6373 95.2429L46.1614 89.0026C49.0524 85.7368 54.1493 85.7367 57.0403 89.0026L57.0986 89.0683L52.3698 95.4742L55.866 91.3826C56.6912 90.4169 58.1769 90.3958 59.0289 91.3376L62.639 95.3281L62.221 94.7941L51.6009 80.9194Z"/>
</mask>
<path fill-rule="evenodd" clip-rule="evenodd" d="M34 99.25L51.563 109L69.126 99.25L69.126 79.75L51.563 70L34 79.75L34 99.25ZM51.6009 80.9194L40.6373 95.2429L46.1614 89.0026C49.0524 85.7368 54.1493 85.7367 57.0403 89.0026L57.0986 89.0683L52.3698 95.4742L55.866 91.3826C56.6912 90.4169 58.1769 90.3958 59.0289 91.3376L62.639 95.3281L62.221 94.7941L51.6009 80.9194Z" fill="#0FF0FC"/>
<path d="M51.563 109L51.5265 109.066L51.563 109.086L51.5995 109.066L51.563 109ZM34 99.25L33.9248 99.25L33.9248 99.2943L33.9635 99.3158L34 99.25ZM69.126 99.25L69.1625 99.3158L69.2012 99.2943L69.2012 99.25L69.126 99.25ZM69.126 79.75L69.2012 79.75L69.2012 79.7057L69.1625 79.6842L69.126 79.75ZM51.563 70L51.5995 69.9342L51.563 69.914L51.5265 69.9342L51.563 70ZM34 79.75L33.9635 79.6842L33.9248 79.7057L33.9248 79.75L34 79.75ZM40.6373 95.2429L40.5775 95.1972L40.6936 95.2927L40.6373 95.2429ZM51.6009 80.9194L51.6606 80.8737L51.6009 80.7956L51.5412 80.8737L51.6009 80.9194ZM46.1614 89.0026L46.1051 88.9527L46.1051 88.9527L46.1614 89.0026ZM57.0403 89.0026L57.0967 88.9527L57.0967 88.9527L57.0403 89.0026ZM57.0986 89.0683L57.1591 89.113L57.1952 89.064L57.1549 89.0185L57.0986 89.0683ZM52.3698 95.4742L52.3093 95.4296L52.427 95.5231L52.3698 95.4742ZM55.866 91.3826L55.8088 91.3338L55.8088 91.3338L55.866 91.3826ZM59.0289 91.3376L59.0847 91.2872L59.0847 91.2872L59.0289 91.3376ZM62.639 95.3281L62.5832 95.3786L62.6982 95.2817L62.639 95.3281ZM62.221 94.7941L62.1612 94.8398L62.1617 94.8404L62.221 94.7941ZM51.5995 108.934L34.0365 99.1842L33.9635 99.3158L51.5265 109.066L51.5995 108.934ZM69.0895 99.1842L51.5265 108.934L51.5995 109.066L69.1625 99.3158L69.0895 99.1842ZM69.0508 79.75L69.0508 99.25L69.2012 99.25L69.2012 79.75L69.0508 79.75ZM51.5265 70.0658L69.0895 79.8158L69.1625 79.6842L51.5995 69.9342L51.5265 70.0658ZM34.0365 79.8158L51.5995 70.0658L51.5265 69.9342L33.9635 79.6842L34.0365 79.8158ZM34.0752 99.25L34.0752 79.75L33.9248 79.75L33.9248 99.25L34.0752 99.25ZM40.697 95.2886L51.6606 80.9651L51.5412 80.8737L40.5775 95.1972L40.697 95.2886ZM46.1051 88.9527L40.5809 95.193L40.6936 95.2927L46.2177 89.0524L46.1051 88.9527ZM57.0967 88.9527C54.1757 85.6531 49.0261 85.6531 46.1051 88.9527L46.2177 89.0524C49.0788 85.8204 54.1229 85.8204 56.984 89.0524L57.0967 88.9527ZM57.1549 89.0185L57.0967 88.9527L56.984 89.0524L57.0422 89.1182L57.1549 89.0185ZM57.038 89.0237L52.3093 95.4296L52.4303 95.5189L57.1591 89.113L57.038 89.0237ZM52.427 95.5231L55.9232 91.4315L55.8088 91.3338L52.3126 95.4254L52.427 95.5231ZM55.9232 91.4315C56.7189 90.5003 58.1515 90.4799 58.9731 91.3881L59.0847 91.2872C58.2022 90.3117 56.6634 90.3336 55.8088 91.3338L55.9232 91.4315ZM58.9731 91.3881L62.5832 95.3786L62.6948 95.2776L59.0847 91.2872L58.9731 91.3881ZM62.6982 95.2817L62.2802 94.7477L62.1617 94.8404L62.5798 95.3745L62.6982 95.2817ZM51.5412 80.9651L62.1612 94.8398L62.2807 94.7483L51.6606 80.8737L51.5412 80.9651Z" fill="black" mask="url(#path-80-inside-1_1_291)"/>
</g>
</g>
<text id="CARMEL" fill="#0FF0FC" xml:space="preserve" style="white-space: pre" font-family="Debodies" font-size="19.6914" letter-spacing="0em"><tspan x="81.1265" y="95.3499">CARMEL</tspan></text>
</g>
</g>
<defs>
<filter id="filter0_d_1_291" x="-7.5" y="-0.5" width="528" height="727" filterUnits="userSpaceOnUse" color-interpolation-filters="sRGB">
<feFlood flood-opacity="0" result="BackgroundImageFix"/>
<feColorMatrix in="SourceAlpha" type="matrix" values="0 0 0 0 0 0 0 0 0 0 0 0 0 0 0 0 0 0 127 0" result="hardAlpha"/>
<feOffset dy="4"/>
<feGaussianBlur stdDeviation="9"/>
<feComposite in2="hardAlpha" operator="out"/>
<feColorMatrix type="matrix" values="0 0 0 0 1 0 0 0 0 1 0 0 0 0 1 0 0 0 1 0"/>
<feBlend mode="normal" in2="BackgroundImageFix" result="effect1_dropShadow_1_291"/>
<feBlend mode="normal" in="SourceGraphic" in2="effect1_dropShadow_1_291" result="shape"/>
</filter>
<filter id="filter1_d_1_291" x="-7.5" y="-0.5" width="528" height="727" filterUnits="userSpaceOnUse" color-interpolation-filters="sRGB">
<feFlood flood-opacity="0" result="BackgroundImageFix"/>
<feColorMatrix in="SourceAlpha" type="matrix" values="0 0 0 0 0 0 0 0 0 0 0 0 0 0 0 0 0 0 127 0" result="hardAlpha"/>
<feOffset dy="4"/>
<feGaussianBlur stdDeviation="9"/>
<feComposite in2="hardAlpha" operator="out"/>
<feColorMatrix type="matrix" values="0 0 0 0 1 0 0 0 0 1 0 0 0 0 1 0 0 0 1 0"/>
<feBlend mode="normal" in2="BackgroundImageFix" result="effect1_dropShadow_1_291"/>
<feBlend mode="normal" in="SourceGraphic" in2="effect1_dropShadow_1_291" result="shape"/>
</filter>
<linearGradient id="paint0_linear_1_291" x1="-211" y1="361" x2="255" y2="361" gradientUnits="userSpaceOnUse">
<stop stop-color="#0FF0FC"/>
<stop offset="1" stop-opacity="0"/>
</linearGradient>
<linearGradient id="paint1_linear_1_291" x1="463.5" y1="1083" x2="692.5" y2="1077.5" gradientUnits="userSpaceOnUse">
<stop stop-color="#0FF0FC"/>
<stop offset="1" stop-opacity="0"/>
</linearGradient>
<linearGradient id="paint2_linear_1_291" x1="307.724" y1="514.84" x2="372.977" y2="514.84" gradientUnits="userSpaceOnUse">
<stop stop-color="#0FF0FC"/>
<stop offset="1" stop-opacity="0"/>
</linearGradient>
<linearGradient id="paint3_linear_1_291" x1="485.497" y1="543.296" x2="548.752" y2="543.296" gradientUnits="userSpaceOnUse">
<stop stop-color="#0FF0FC"/>
<stop offset="1" stop-opacity="0"/>
</linearGradient>
<linearGradient id="paint4_linear_1_291" x1="7.5" y1="695" x2="116" y2="695" gradientUnits="userSpaceOnUse">
<stop stop-color="#0FF0FC"/>
<stop offset="1" stop-color="#0FF0FC" stop-opacity="0"/>
</linearGradient>
<linearGradient id="paint5_linear_1_291" x1="36" y1="36" x2="376" y2="36" gradientUnits="userSpaceOnUse">
<stop stop-color="#0FF0FC" stop-opacity="0.16"/>
<stop offset="1" stop-opacity="0"/>
</linearGradient>
<linearGradient id="paint6_linear_1_291" x1="180" y1="55" x2="180" y2="185.229" gradientUnits="userSpaceOnUse">
<stop stop-color="#0FF0FC" stop-opacity="0.6"/>
<stop offset="1" stop-opacity="0"/>
</linearGradient>
<linearGradient id="paint7_linear_1_291" x1="347" y1="51" x2="347" y2="181.229" gradientUnits="userSpaceOnUse">
<stop stop-color="#0FF0FC" stop-opacity="0.59"/>
<stop offset="1" stop-opacity="0"/>
</linearGradient>
<linearGradient id="paint8_linear_1_291" x1="180" y1="55" x2="180" y2="185.229" gradientUnits="userSpaceOnUse">
<stop stop-color="#0FF0FC" stop-opacity="0.6"/>
<stop offset="1" stop-opacity="0"/>
</linearGradient>
<linearGradient id="paint9_linear_1_291" x1="347" y1="51" x2="347" y2="181.229" gradientUnits="userSpaceOnUse">
<stop stop-color="#0FF0FC" stop-opacity="0.59"/>
<stop offset="1" stop-opacity="0"/>
</linearGradient>
<linearGradient id="paint10_linear_1_291" x1="14.0001" y1="43" x2="14.0001" y2="399" gradientUnits="userSpaceOnUse">
<stop stop-color="#0FF0FC"/>
<stop offset="1" stop-opacity="0"/>
</linearGradient>
<linearGradient id="paint11_linear_1_291" x1="18.0001" y1="399" x2="18.0001" y2="755" gradientUnits="userSpaceOnUse">
<stop stop-color="white"/>
<stop offset="1" stop-opacity="0"/>
</linearGradient>
<linearGradient id="paint12_linear_1_291" x1="-14.6345" y1="14.4996" x2="514.496" y2="667.088" gradientUnits="userSpaceOnUse">
<stop stop-color="#0FF0FC"/>
<stop offset="1" stop-opacity="0"/>
</linearGradient>
<linearGradient id="paint13_linear_1_291" x1="527.635" y1="703.5" x2="-1.49549" y2="50.9122" gradientUnits="userSpaceOnUse">
<stop stop-color="#0FF0FC"/>
<stop offset="1" stop-opacity="0"/>
</linearGradient>
<clipPath id="clip0_1_291">
<rect width="517" height="722" fill="white"/>
</clipPath>
</defs>
</svg>
