<svg id="svg" version="1.1" width="400" height="400" viewBox="0 0 400 400" xmlns="http://www.w3.org/2000/svg" xmlns:xlink="http://www.w3.org/1999/xlink" ><g id="svgg"><path id="path0" d="M188.477 89.487 C 143.863 93.089,113.429 117.011,97.822 160.742 C 96.902 163.320,96.005 165.390,95.828 165.341 C 95.652 165.292,94.014 164.643,92.188 163.899 C 76.675 157.577,57.542 161.296,45.185 173.033 C 21.303 195.719,28.951 235.250,59.570 247.387 C 68.318 250.855,80.817 251.404,88.588 248.662 C 90.227 248.084,90.243 248.087,90.880 249.138 C 102.765 268.719,124.503 282.447,156.211 290.398 C 215.238 305.197,286.134 286.855,307.474 251.261 C 308.559 249.452,309.498 248.296,309.818 248.377 C 310.111 248.451,311.670 248.864,313.281 249.296 C 323.061 251.915,336.864 249.922,346.034 244.566 C 375.144 227.565,376.167 186.196,347.929 167.934 C 336.105 160.288,320.177 158.701,307.422 163.899 C 305.596 164.643,303.956 165.292,303.779 165.341 C 303.601 165.390,302.708 163.320,301.794 160.742 C 283.844 110.119,243.915 85.011,188.477 89.487 M171.094 145.915 C 181.502 147.678,192.234 152.381,199.297 158.274 L 201.133 159.806 203.399 157.959 C 230.885 135.545,273.054 143.920,289.217 175.003 C 290.054 176.613,290.757 177.957,290.780 177.989 C 290.802 178.022,294.160 178.514,298.242 179.082 C 302.324 179.650,306.336 180.293,307.157 180.510 C 308.362 180.829,309.114 180.753,311.063 180.116 C 323.593 176.021,338.551 179.733,346.931 189.017 C 363.802 207.710,348.747 235.465,321.875 235.207 C 314.585 235.137,313.846 234.931,313.951 232.998 C 314.743 218.420,314.458 208.195,313.044 200.341 L 312.437 196.972 311.090 197.275 C 308.123 197.944,307.297 200.545,306.251 212.500 C 305.435 221.831,304.242 227.105,301.787 232.227 C 300.860 234.160,299.807 237.086,299.447 238.729 C 293.139 267.522,239.774 290.078,187.673 285.973 C 142.714 282.431,105.246 261.785,100.901 238.158 C 100.577 236.400,99.736 233.643,99.032 232.031 C 96.701 226.699,95.699 221.996,94.705 211.719 C 93.764 201.991,92.751 197.978,91.118 197.518 C 90.739 197.411,89.879 197.213,89.206 197.078 L 87.982 196.833 87.538 199.295 C 85.933 208.197,85.701 215.348,86.449 232.803 C 86.541 234.961,85.966 235.136,78.516 235.207 C 55.452 235.429,39.846 214.407,49.054 195.523 C 55.688 181.918,73.722 175.016,89.318 180.113 C 91.613 180.863,91.872 180.871,94.983 180.293 C 96.775 179.960,100.788 179.346,103.899 178.929 C 107.010 178.511,109.609 178.010,109.674 177.815 C 109.990 176.867,113.921 170.330,115.337 168.399 C 128.032 151.083,149.796 142.306,171.094 145.915 " stroke="none" fill="#b5452e" fill-rule="evenodd"></path><path id="path1" d="M186.719 78.760 C 185.967 78.847,183.066 79.185,180.273 79.511 C 137.998 84.434,106.721 109.086,90.097 150.586 C 89.013 153.291,88.177 154.861,87.840 154.823 C 87.546 154.791,85.635 154.464,83.594 154.098 C 58.558 149.606,33.150 164.388,25.241 188.045 C 13.590 222.901,37.796 257.197,74.366 257.649 L 82.522 257.750 84.974 261.004 C 110.901 295.404,179.036 312.903,239.765 300.758 C 272.318 294.248,300.800 278.989,314.455 260.742 L 316.794 257.617 323.534 257.753 C 352.645 258.340,374.846 238.696,377.330 210.155 C 380.303 175.989,349.692 147.964,316.164 154.156 C 310.498 155.203,311.082 155.499,309.118 150.586 C 292.585 109.220,262.428 85.331,219.336 79.466 C 214.871 78.859,190.410 78.329,186.719 78.760 M214.740 89.665 C 257.311 94.135,286.743 118.087,302.000 160.677 C 303.857 165.861,303.505 165.454,305.333 164.525 C 328.417 152.798,359.453 167.184,366.961 193.093 C 376.617 226.415,345.911 258.082,312.500 249.258 C 309.103 248.360,309.857 247.854,306.163 253.516 C 286.611 283.486,228.307 301.465,174.495 294.119 C 136.616 288.949,102.097 270.794,91.506 250.473 C 90.630 248.791,90.285 248.449,89.648 248.631 C 54.915 258.613,23.531 228.671,32.430 194.043 C 39.157 167.871,69.364 153.202,93.712 164.285 C 96.247 165.439,95.758 165.915,97.798 160.304 C 116.592 108.595,157.825 83.688,214.740 89.665 M152.344 145.931 C 135.219 148.665,119.524 159.932,111.037 175.583 L 109.555 178.315 102.336 179.360 C 98.366 179.934,94.370 180.575,93.457 180.785 C 92.079 181.102,91.302 181.010,88.884 180.242 C 73.792 175.449,56.381 181.934,49.676 194.845 C 39.498 214.443,56.188 236.350,80.273 235.008 C 85.606 234.711,86.834 234.458,86.550 233.718 C 84.905 229.431,85.945 200.023,87.851 196.940 C 88.189 196.392,90.894 197.061,91.878 197.936 C 93.243 199.149,94.180 203.462,94.917 211.914 C 95.756 221.542,97.236 228.097,99.655 232.899 C 100.275 234.128,100.781 235.629,100.781 236.235 C 100.781 242.466,106.775 252.445,114.758 259.502 C 145.314 286.515,208.786 294.255,255.607 276.677 C 279.500 267.707,296.662 252.764,299.256 238.672 C 299.514 237.275,300.384 234.814,301.190 233.203 C 303.893 227.802,305.089 222.660,306.082 212.170 C 307.142 200.975,308.050 197.968,310.603 197.203 C 312.591 196.607,312.685 196.740,313.420 201.172 C 314.874 209.936,315.183 223.698,314.114 232.099 C 313.778 234.748,313.559 234.642,320.117 235.008 C 342.103 236.233,358.798 217.631,352.513 198.909 C 347.366 183.576,328.657 174.929,311.864 180.123 L 309.180 180.953 303.711 180.099 C 300.703 179.629,296.572 179.031,294.531 178.770 L 290.821 178.294 289.063 175.073 C 272.652 145.006,233.134 136.035,206.055 156.232 C 204.336 157.513,202.524 158.860,202.028 159.224 C 201.171 159.852,201.075 159.844,200.075 159.050 C 186.642 148.384,168.391 143.368,152.344 145.931 M145.313 178.918 C 159.296 179.784,172.811 182.023,183.187 185.192 C 193.230 188.259,207.923 188.071,219.286 184.730 C 243.211 177.694,280.380 176.713,306.714 182.422 C 312.693 183.718,313.540 184.708,313.197 189.995 C 312.954 193.737,312.198 195.136,310.248 195.448 C 306.787 196.001,305.610 199.216,304.506 211.133 C 302.626 231.440,299.215 237.583,288.370 240.192 C 270.110 244.584,250.428 244.935,235.026 241.141 C 227.356 239.252,222.365 233.188,215.988 218.015 C 209.888 203.499,206.714 199.804,200.393 199.862 C 194.485 199.916,191.252 203.435,186.276 215.228 C 180.359 229.254,174.778 237.745,170.073 239.884 C 155.395 246.556,110.580 243.834,103.724 235.853 C 100.404 231.988,98.059 224.877,97.053 215.625 C 95.515 201.471,95.353 200.508,94.079 197.957 C 93.334 196.465,91.671 195.313,90.263 195.313 C 88.438 195.313,87.074 190.425,87.885 186.790 C 88.623 183.484,90.346 182.806,102.358 181.090 C 119.368 178.661,131.363 178.055,145.313 178.918 M122.252 184.766 C 106.443 185.813,102.941 191.109,104.260 211.976 C 105.559 232.545,111.541 237.754,135.838 239.475 C 163.902 241.463,172.212 237.000,179.886 215.820 C 186.460 197.676,184.655 190.531,172.722 187.463 C 162.110 184.734,140.316 183.569,122.252 184.766 M244.922 184.784 C 215.521 187.599,212.068 193.264,223.029 220.703 C 229.073 235.836,237.490 240.341,258.572 239.725 C 291.107 238.774,297.256 233.039,296.811 204.058 L 296.680 195.488 295.398 192.885 C 293.417 188.864,289.922 186.557,283.949 185.326 C 280.481 184.611,251.001 184.202,244.922 184.784 M161.029 192.912 C 173.033 196.241,178.653 210.276,172.124 220.618 C 163.346 234.523,142.608 231.525,138.225 215.717 C 134.436 202.054,147.366 189.124,161.029 192.912 M250.482 192.912 C 262.486 196.241,268.106 210.276,261.577 220.618 C 252.799 234.523,232.061 231.525,227.678 215.717 C 223.889 202.054,236.819 189.124,250.482 192.912 M162.109 197.169 C 159.419 198.512,158.374 202.009,159.789 204.931 C 162.432 210.390,170.704 208.281,170.701 202.148 C 170.699 197.883,166.061 195.195,162.109 197.169 M251.563 197.169 C 248.872 198.512,247.827 202.009,249.242 204.931 C 251.885 210.390,260.158 208.281,260.154 202.148 C 260.152 197.883,255.514 195.195,251.563 197.169 M145.378 220.154 C 143.088 221.758,145.506 225.567,147.949 224.206 C 150.076 223.022,149.274 219.531,146.875 219.531 C 146.541 219.531,145.867 219.812,145.378 220.154 M234.831 220.154 C 232.542 221.758,234.959 225.567,237.402 224.206 C 239.529 223.022,238.727 219.531,236.328 219.531 C 235.994 219.531,235.320 219.812,234.831 220.154 M207.325 222.305 C 214.978 226.212,213.778 235.044,205.000 239.431 C 193.693 245.081,180.881 229.114,191.655 222.800 C 196.081 220.206,202.800 219.994,207.325 222.305 M183.341 259.630 C 191.668 267.155,209.058 267.136,217.123 259.593 C 219.581 257.294,221.128 257.203,222.229 259.292 C 222.912 260.589,222.491 261.434,220.057 263.659 C 210.204 272.664,188.662 272.366,179.730 263.102 C 175.796 259.021,179.125 255.819,183.341 259.630 " stroke="none" fill="#f7f2ed" fill-rule="evenodd"></path><path id="path2" d="M119.922 179.307 C 104.652 180.470,90.479 182.983,88.815 184.823 C 86.855 186.992,88.153 194.373,90.625 195.109 C 94.646 196.305,95.809 199.397,96.875 211.719 C 98.233 227.426,101.904 236.355,107.930 238.609 C 124.379 244.764,162.803 244.884,171.570 238.808 C 175.686 235.955,180.432 228.371,185.345 216.797 C 191.054 203.347,194.361 199.623,200.607 199.613 C 206.757 199.603,209.749 202.961,215.450 216.271 C 220.956 229.124,226.255 237.315,230.431 239.428 C 241.539 245.046,281.524 244.294,294.048 238.232 C 299.256 235.710,302.715 226.848,304.091 212.500 C 305.372 199.141,306.396 196.169,310.035 195.253 C 312.299 194.683,312.980 193.254,313.011 189.005 C 313.052 183.463,311.893 182.963,293.750 180.685 C 266.483 177.263,241.762 178.783,217.969 185.347 C 207.184 188.322,193.254 188.329,183.129 185.364 C 165.943 180.331,139.606 177.807,119.922 179.307 M153.906 184.386 C 183.856 186.656,188.611 192.291,180.225 215.575 C 172.961 235.743,165.031 240.883,142.428 240.074 C 110.205 238.922,104.160 233.614,104.118 206.439 L 104.102 195.494 105.379 192.898 C 108.143 187.281,113.269 184.941,124.023 184.387 C 132.569 183.946,148.101 183.946,153.906 184.386 M282.893 184.941 C 293.968 186.909,296.861 190.584,297.174 203.086 C 297.892 231.788,291.822 238.209,262.368 239.903 C 236.642 241.383,228.829 236.900,221.093 216.218 C 212.282 192.665,216.932 186.835,246.484 184.377 C 253.132 183.824,278.852 184.222,282.893 184.941 M150.688 193.337 C 133.207 198.925,133.897 224.013,151.662 228.742 C 168.157 233.133,181.633 212.778,170.856 199.753 L 169.929 198.633 170.511 200.085 C 173.205 206.799,163.534 211.559,159.764 205.375 C 156.844 200.587,161.885 194.520,167.005 196.660 C 168.894 197.449,168.698 197.125,166.309 195.508 C 162.093 192.656,155.628 191.758,150.688 193.337 M240.141 193.337 C 222.660 198.925,223.351 224.013,241.116 228.742 C 257.610 233.133,271.086 212.778,260.309 199.753 L 259.382 198.633 259.964 200.085 C 262.658 206.799,252.987 211.559,249.217 205.375 C 246.297 200.587,251.338 194.520,256.458 196.660 C 258.347 197.449,258.151 197.125,255.762 195.508 C 251.546 192.656,245.081 191.758,240.141 193.337 M148.828 220.313 C 150.449 221.933,149.232 224.609,146.875 224.609 C 145.447 224.609,144.141 223.396,144.141 222.070 C 144.141 220.744,145.447 219.531,146.875 219.531 C 147.526 219.531,148.394 219.878,148.828 220.313 M238.281 220.313 C 239.902 221.933,238.685 224.609,236.328 224.609 C 234.900 224.609,233.594 223.396,233.594 222.070 C 233.594 220.744,234.900 219.531,236.328 219.531 C 236.979 219.531,237.847 219.878,238.281 220.313 M178.529 258.959 C 177.762 260.393,178.117 261.242,180.332 263.266 C 190.129 272.221,211.014 272.122,220.454 263.077 C 224.498 259.202,221.279 256.208,217.104 259.961 C 208.820 267.410,191.832 267.400,183.306 259.941 C 181.077 257.991,179.248 257.615,178.529 258.959 " stroke="none" fill="#35444c" fill-rule="evenodd"></path><path id="path3" d="M131.738 178.804 C 132.974 178.882,134.995 178.882,136.230 178.804 C 137.466 178.727,136.455 178.663,133.984 178.663 C 131.514 178.663,130.503 178.727,131.738 178.804 M264.956 178.805 C 266.199 178.882,268.132 178.882,269.253 178.803 C 270.373 178.724,269.355 178.661,266.992 178.662 C 264.629 178.663,263.712 178.727,264.956 178.805 M121.777 179.182 C 122.261 179.275,123.052 179.275,123.535 179.182 C 124.019 179.089,123.623 179.013,122.656 179.013 C 121.689 179.013,121.294 179.089,121.777 179.182 M144.434 179.182 C 144.917 179.275,145.708 179.275,146.191 179.182 C 146.675 179.089,146.279 179.013,145.313 179.013 C 144.346 179.013,143.950 179.089,144.434 179.182 M254.590 179.182 C 255.073 179.275,255.864 179.275,256.348 179.182 C 256.831 179.089,256.436 179.013,255.469 179.013 C 254.502 179.013,254.106 179.089,254.590 179.182 M277.637 179.182 C 278.120 179.275,278.911 179.275,279.395 179.182 C 279.878 179.089,279.482 179.013,278.516 179.013 C 277.549 179.013,277.153 179.089,277.637 179.182 M283.301 179.566 C 283.677 179.664,284.292 179.664,284.668 179.566 C 285.044 179.468,284.736 179.388,283.984 179.388 C 283.232 179.388,282.925 179.468,283.301 179.566 M131.362 184.273 C 132.605 184.351,134.539 184.351,135.659 184.272 C 136.779 184.193,135.762 184.130,133.398 184.130 C 131.035 184.131,130.119 184.196,131.362 184.273 M145.813 184.272 C 146.840 184.353,148.422 184.352,149.328 184.270 C 150.235 184.188,149.395 184.122,147.461 184.123 C 145.527 184.124,144.786 184.191,145.813 184.272 M252.063 184.272 C 253.090 184.353,254.672 184.352,255.578 184.270 C 256.485 184.188,255.645 184.122,253.711 184.123 C 251.777 184.124,251.036 184.191,252.063 184.272 M265.737 184.273 C 266.980 184.351,268.914 184.351,270.034 184.272 C 271.154 184.193,270.137 184.130,267.773 184.130 C 265.410 184.131,264.494 184.196,265.737 184.273 M121.387 184.651 C 121.870 184.744,122.661 184.744,123.145 184.651 C 123.628 184.558,123.232 184.481,122.266 184.481 C 121.299 184.481,120.903 184.558,121.387 184.651 M154.785 184.644 C 155.161 184.743,155.776 184.743,156.152 184.644 C 156.528 184.546,156.221 184.466,155.469 184.466 C 154.717 184.466,154.409 184.546,154.785 184.644 M245.020 184.644 C 245.396 184.743,246.011 184.743,246.387 184.644 C 246.763 184.546,246.455 184.466,245.703 184.466 C 244.951 184.466,244.644 184.546,245.020 184.644 M278.027 184.651 C 278.511 184.744,279.302 184.744,279.785 184.651 C 280.269 184.558,279.873 184.481,278.906 184.481 C 277.939 184.481,277.544 184.558,278.027 184.651 M193.457 187.379 C 193.833 187.477,194.448 187.477,194.824 187.379 C 195.200 187.280,194.893 187.200,194.141 187.200 C 193.389 187.200,193.081 187.280,193.457 187.379 M205.957 187.379 C 206.333 187.477,206.948 187.477,207.324 187.379 C 207.700 187.280,207.393 187.200,206.641 187.200 C 205.889 187.200,205.581 187.280,205.957 187.379 M107.593 189.551 L 106.445 190.820 107.715 189.673 C 108.898 188.604,109.164 188.281,108.862 188.281 C 108.795 188.281,108.224 188.853,107.593 189.551 M179.688 190.357 C 179.688 190.424,180.259 190.995,180.957 191.626 L 182.227 192.773 181.079 191.504 C 180.010 190.321,179.688 190.055,179.688 190.357 M155.176 192.467 C 155.767 192.557,156.733 192.557,157.324 192.467 C 157.915 192.378,157.432 192.305,156.250 192.305 C 155.068 192.305,154.585 192.378,155.176 192.467 M244.629 192.467 C 245.220 192.557,246.187 192.557,246.777 192.467 C 247.368 192.378,246.885 192.305,245.703 192.305 C 244.521 192.305,244.038 192.378,244.629 192.467 M164.160 196.363 C 164.536 196.461,165.151 196.461,165.527 196.363 C 165.903 196.265,165.596 196.184,164.844 196.184 C 164.092 196.184,163.784 196.265,164.160 196.363 M253.613 196.363 C 253.989 196.461,254.604 196.461,254.980 196.363 C 255.356 196.265,255.049 196.184,254.297 196.184 C 253.545 196.184,253.237 196.265,253.613 196.363 M142.948 197.949 L 141.602 199.414 143.066 198.068 C 143.872 197.328,144.531 196.668,144.531 196.603 C 144.531 196.305,144.201 196.586,142.948 197.949 M232.401 197.949 L 231.055 199.414 232.520 198.068 C 233.883 196.815,234.164 196.484,233.866 196.484 C 233.800 196.484,233.141 197.144,232.401 197.949 M168.359 197.002 C 168.359 197.381,169.956 198.924,170.148 198.732 C 170.237 198.643,169.871 198.159,169.334 197.655 C 168.798 197.151,168.359 196.857,168.359 197.002 M257.813 197.002 C 257.813 197.381,259.409 198.924,259.601 198.732 C 259.690 198.643,259.324 198.159,258.788 197.655 C 258.251 197.151,257.813 196.857,257.813 197.002 M297.006 200.391 C 297.006 202.002,297.075 202.661,297.160 201.855 C 297.244 201.050,297.244 199.731,297.160 198.926 C 297.075 198.120,297.006 198.779,297.006 200.391 M170.794 202.344 C 170.794 203.096,170.874 203.403,170.972 203.027 C 171.071 202.651,171.071 202.036,170.972 201.660 C 170.874 201.284,170.794 201.592,170.794 202.344 M260.247 202.344 C 260.247 203.096,260.327 203.403,260.426 203.027 C 260.524 202.651,260.524 202.036,260.426 201.660 C 260.327 201.284,260.247 201.592,260.247 202.344 M297.006 210.547 C 297.006 212.158,297.075 212.817,297.160 212.012 C 297.244 211.206,297.244 209.888,297.160 209.082 C 297.075 208.276,297.006 208.936,297.006 210.547 M137.617 210.938 C 137.617 212.119,137.690 212.603,137.780 212.012 C 137.869 211.421,137.869 210.454,137.780 209.863 C 137.690 209.272,137.617 209.756,137.617 210.938 M227.070 210.938 C 227.070 212.119,227.143 212.603,227.233 212.012 C 227.322 211.421,227.322 210.454,227.233 209.863 C 227.143 209.272,227.070 209.756,227.070 210.938 M174.700 210.938 C 174.700 211.689,174.780 211.997,174.879 211.621 C 174.977 211.245,174.977 210.630,174.879 210.254 C 174.780 209.878,174.700 210.186,174.700 210.938 M264.153 210.938 C 264.153 211.689,264.234 211.997,264.332 211.621 C 264.430 211.245,264.430 210.630,264.332 210.254 C 264.234 209.878,264.153 210.186,264.153 210.938 M104.005 213.477 C 104.009 214.336,104.089 214.642,104.183 214.156 C 104.276 213.670,104.272 212.967,104.175 212.593 C 104.077 212.220,104.000 212.617,104.005 213.477 M155.566 229.566 C 155.942 229.664,156.558 229.664,156.934 229.566 C 157.310 229.468,157.002 229.388,156.250 229.388 C 155.498 229.388,155.190 229.468,155.566 229.566 M245.020 229.566 C 245.396 229.664,246.011 229.664,246.387 229.566 C 246.763 229.468,246.455 229.388,245.703 229.388 C 244.951 229.388,244.644 229.468,245.020 229.566 M290.604 231.934 L 289.258 233.398 290.723 232.052 C 292.086 230.799,292.367 230.469,292.069 230.469 C 292.004 230.469,291.344 231.128,290.604 231.934 M171.073 232.324 L 169.727 233.789 171.191 232.443 C 172.555 231.190,172.836 230.859,172.538 230.859 C 172.472 230.859,171.813 231.519,171.073 232.324 M134.673 239.729 C 135.158 239.823,135.862 239.819,136.235 239.722 C 136.608 239.624,136.211 239.547,135.352 239.552 C 134.492 239.556,134.187 239.636,134.673 239.729 M264.941 239.722 C 265.317 239.821,265.933 239.821,266.309 239.722 C 266.685 239.624,266.377 239.544,265.625 239.544 C 264.873 239.544,264.565 239.624,264.941 239.722 M143.262 240.134 C 144.819 240.208,147.368 240.208,148.926 240.134 C 150.483 240.060,149.209 239.999,146.094 239.999 C 142.979 239.999,141.704 240.060,143.262 240.134 M252.246 240.134 C 253.804 240.208,256.353 240.208,257.910 240.134 C 259.468 240.060,258.193 239.999,255.078 239.999 C 251.963 239.999,250.688 240.060,252.246 240.134 M131.348 243.238 C 131.724 243.336,132.339 243.336,132.715 243.238 C 133.091 243.140,132.783 243.059,132.031 243.059 C 131.279 243.059,130.972 243.140,131.348 243.238 M137.413 243.646 C 138.331 243.728,139.738 243.727,140.538 243.643 C 141.338 243.559,140.586 243.492,138.867 243.493 C 137.148 243.495,136.494 243.563,137.413 243.646 M145.410 243.644 C 146.216 243.728,147.534 243.728,148.340 243.644 C 149.146 243.560,148.486 243.491,146.875 243.491 C 145.264 243.491,144.604 243.560,145.410 243.644 M252.832 243.644 C 253.638 243.728,254.956 243.728,255.762 243.644 C 256.567 243.560,255.908 243.491,254.297 243.491 C 252.686 243.491,252.026 243.560,252.832 243.644 M260.645 243.644 C 261.450 243.728,262.769 243.728,263.574 243.644 C 264.380 243.560,263.721 243.491,262.109 243.491 C 260.498 243.491,259.839 243.560,260.645 243.644 M197.173 265.511 C 197.658 265.604,198.362 265.601,198.735 265.503 C 199.108 265.405,198.711 265.329,197.852 265.333 C 196.992 265.337,196.687 265.417,197.173 265.511 M201.860 265.511 C 202.346 265.604,203.049 265.601,203.423 265.503 C 203.796 265.405,203.398 265.329,202.539 265.333 C 201.680 265.337,201.374 265.417,201.860 265.511 M198.741 270.208 C 199.660 270.291,201.066 270.290,201.866 270.206 C 202.666 270.122,201.914 270.054,200.195 270.056 C 198.477 270.057,197.822 270.126,198.741 270.208 " stroke="none" fill="#828f91" fill-rule="evenodd"></path><path id="path4" d="M159.659 145.204 C 160.353 145.290,161.583 145.292,162.394 145.207 C 163.204 145.122,162.637 145.052,161.133 145.050 C 159.629 145.048,158.966 145.118,159.659 145.204 M238.175 145.204 C 238.868 145.290,240.099 145.292,240.909 145.207 C 241.720 145.122,241.152 145.052,239.648 145.050 C 238.145 145.048,237.481 145.118,238.175 145.204 M120.703 161.914 C 119.754 162.881,119.066 163.672,119.173 163.672 C 119.281 163.672,120.145 162.881,121.094 161.914 C 122.043 160.947,122.731 160.156,122.624 160.156 C 122.516 160.156,121.652 160.947,120.703 161.914 M74.503 160.829 C 75.196 160.915,76.427 160.917,77.237 160.832 C 78.048 160.747,77.480 160.677,75.977 160.675 C 74.473 160.673,73.810 160.743,74.503 160.829 M322.159 160.829 C 322.853 160.915,324.083 160.917,324.894 160.832 C 325.704 160.747,325.137 160.677,323.633 160.675 C 322.129 160.673,321.466 160.743,322.159 160.829 M54.478 187.988 L 52.539 190.039 54.590 188.101 C 56.495 186.299,56.820 185.938,56.528 185.938 C 56.466 185.938,55.544 186.860,54.478 187.988 M314.601 218.750 C 314.601 221.221,314.664 222.231,314.742 220.996 C 314.819 219.761,314.819 217.739,314.742 216.504 C 314.664 215.269,314.601 216.279,314.601 218.750 M85.683 218.750 C 85.683 220.576,85.751 221.323,85.833 220.410 C 85.915 219.497,85.915 218.003,85.833 217.090 C 85.751 216.177,85.683 216.924,85.683 218.750 M196.502 221.105 C 187.125 223.076,184.914 230.328,191.681 236.918 C 197.928 243.001,207.427 240.928,211.383 232.617 C 214.773 225.498,206.404 219.024,196.502 221.105 M203.310 224.260 C 205.243 225.207,206.152 226.790,205.461 228.007 C 203.097 232.172,194.531 231.491,194.531 227.139 C 194.531 224.268,199.799 222.541,203.310 224.260 M77.641 235.433 C 78.127 235.526,78.830 235.522,79.204 235.425 C 79.577 235.327,79.180 235.250,78.320 235.255 C 77.461 235.259,77.155 235.339,77.641 235.433 M321.391 235.433 C 321.877 235.526,322.580 235.522,322.954 235.425 C 323.327 235.327,322.930 235.250,322.070 235.255 C 321.211 235.259,320.905 235.339,321.391 235.433 M74.707 250.670 C 75.298 250.760,76.265 250.760,76.855 250.670 C 77.446 250.581,76.963 250.508,75.781 250.508 C 74.600 250.508,74.116 250.581,74.707 250.670 M322.754 250.670 C 323.345 250.760,324.312 250.760,324.902 250.670 C 325.493 250.581,325.010 250.508,323.828 250.508 C 322.646 250.508,322.163 250.581,322.754 250.670 " stroke="none" fill="#c3a29b" fill-rule="evenodd"></path><path id="path5" d="M43.927 173.926 L 42.383 175.586 44.043 174.042 C 44.956 173.193,45.703 172.445,45.703 172.382 C 45.703 172.086,45.363 172.382,43.927 173.926 M127.251 178.792 C 127.737 178.885,128.440 178.882,128.813 178.784 C 129.187 178.686,128.789 178.610,127.930 178.614 C 127.070 178.618,126.765 178.698,127.251 178.792 M139.360 178.792 C 139.846 178.885,140.549 178.882,140.923 178.784 C 141.296 178.686,140.898 178.610,140.039 178.614 C 139.180 178.618,138.874 178.698,139.360 178.792 M260.454 178.792 C 260.940 178.885,261.643 178.882,262.016 178.784 C 262.390 178.686,261.992 178.610,261.133 178.614 C 260.273 178.618,259.968 178.698,260.454 178.792 M272.168 178.791 C 272.651 178.884,273.442 178.884,273.926 178.791 C 274.409 178.698,274.014 178.622,273.047 178.622 C 272.080 178.622,271.685 178.698,272.168 178.791 M139.366 184.271 C 140.285 184.353,141.691 184.352,142.491 184.268 C 143.291 184.184,142.539 184.117,140.820 184.118 C 139.102 184.120,138.447 184.188,139.366 184.271 M258.496 184.270 C 259.409 184.353,260.903 184.353,261.816 184.270 C 262.729 184.188,261.982 184.121,260.156 184.121 C 258.330 184.121,257.583 184.188,258.496 184.270 M275.098 184.644 C 275.474 184.743,276.089 184.743,276.465 184.644 C 276.841 184.546,276.533 184.466,275.781 184.466 C 275.029 184.466,274.722 184.546,275.098 184.644 M87.599 188.867 C 87.603 189.727,87.683 190.032,87.776 189.546 C 87.870 189.060,87.866 188.357,87.768 187.984 C 87.671 187.610,87.594 188.008,87.599 188.867 M183.700 199.609 C 183.700 200.576,183.776 200.972,183.869 200.488 C 183.963 200.005,183.963 199.214,183.869 198.730 C 183.776 198.247,183.700 198.643,183.700 199.609 M104.013 200.391 C 104.013 201.357,104.089 201.753,104.182 201.270 C 104.275 200.786,104.275 199.995,104.182 199.512 C 104.089 199.028,104.013 199.424,104.013 200.391 M296.996 205.664 C 296.998 206.953,297.071 207.433,297.158 206.731 C 297.245 206.029,297.243 204.975,297.154 204.388 C 297.065 203.801,296.994 204.375,296.996 205.664 M103.997 210.547 C 103.997 211.299,104.077 211.606,104.176 211.230 C 104.274 210.854,104.274 210.239,104.176 209.863 C 104.077 209.487,103.997 209.795,103.997 210.547 M85.638 214.453 C 85.638 215.205,85.718 215.513,85.816 215.137 C 85.914 214.761,85.914 214.146,85.816 213.770 C 85.718 213.394,85.638 213.701,85.638 214.453 M85.645 223.242 C 85.650 224.102,85.730 224.407,85.823 223.921 C 85.917 223.435,85.913 222.732,85.815 222.359 C 85.717 221.985,85.641 222.383,85.645 223.242 M314.544 224.219 C 314.544 224.971,314.624 225.278,314.722 224.902 C 314.821 224.526,314.821 223.911,314.722 223.535 C 314.624 223.159,314.544 223.467,314.544 224.219 M197.461 224.005 C 192.063 225.991,194.755 231.350,200.856 230.764 C 202.958 230.562,204.553 229.608,205.461 228.007 C 207.013 225.271,201.507 222.516,197.461 224.005 M208.380 236.816 L 206.836 238.477 208.496 236.932 C 210.040 235.496,210.336 235.156,210.040 235.156 C 209.976 235.156,209.229 235.903,208.380 236.816 M355.255 237.598 L 353.711 239.258 355.371 237.714 C 356.915 236.278,357.211 235.938,356.915 235.938 C 356.851 235.938,356.104 236.685,355.255 237.598 M42.969 236.450 C 42.969 236.518,43.540 237.089,44.238 237.720 L 45.508 238.867 44.361 237.598 C 43.291 236.414,42.969 236.149,42.969 236.450 M191.895 286.207 C 192.271 286.305,192.886 286.305,193.262 286.207 C 193.638 286.109,193.330 286.028,192.578 286.028 C 191.826 286.028,191.519 286.109,191.895 286.207 M207.129 286.207 C 207.505 286.305,208.120 286.305,208.496 286.207 C 208.872 286.109,208.564 286.028,207.813 286.028 C 207.061 286.028,206.753 286.109,207.129 286.207 " stroke="none" fill="#f1bcb4" fill-rule="evenodd"></path>
</g></svg>