<?xml version="1.0" standalone="no"?>
<!DOCTYPE svg PUBLIC "-//W3C//DTD SVG 20010904//EN"
 "http://www.w3.org/TR/2001/REC-SVG-20010904/DTD/svg10.dtd">
<svg version="1.0" xmlns="http://www.w3.org/2000/svg"
 width="700.000000pt" height="700.000000pt" viewBox="0 0 700.000000 700.000000"
 preserveAspectRatio="xMidYMid meet">
<metadata>
Created by potrace 1.14, written by Peter Selinger 2001-2017
</metadata>
<g transform="translate(0.000000,700.000000) scale(0.100000,-0.100000)"
fill="#000000" stroke="none">
<path d="M3425 6008 c-39 -22 -99 -56 -135 -76 -36 -19 -121 -67 -190 -105
-69 -39 -150 -84 -180 -100 -30 -17 -91 -50 -135 -75 -44 -25 -109 -61 -145
-80 -36 -19 -90 -49 -120 -67 -30 -18 -86 -49 -125 -70 -141 -77 -181 -99
-253 -142 -41 -24 -76 -43 -79 -43 -3 0 -42 -21 -87 -47 -45 -26 -110 -62
-146 -81 -36 -19 -74 -40 -85 -47 -11 -7 -49 -28 -85 -48 -36 -19 -153 -84
-260 -144 l-195 -108 -5 -360 c-3 -198 -4 -772 -2 -1276 l2 -916 163 -90 c89
-50 183 -103 209 -117 27 -14 69 -38 95 -52 215 -119 318 -176 378 -209 39
-21 87 -49 107 -62 21 -13 39 -23 42 -23 2 0 68 -36 147 -80 78 -44 143 -80
145 -80 1 0 41 -23 89 -50 48 -28 88 -50 90 -50 2 0 30 -15 62 -34 57 -33 92
-52 223 -124 36 -20 87 -48 113 -64 26 -15 49 -28 51 -28 2 0 88 -48 192 -106
l188 -105 36 19 c19 10 98 54 175 97 77 43 169 94 205 113 36 20 82 46 102 59
21 13 40 23 42 23 2 0 35 17 73 39 37 21 95 53 128 71 33 18 114 63 180 100
66 37 145 81 175 97 30 17 91 51 135 75 44 25 148 82 230 128 83 45 170 94
195 108 25 14 83 46 130 72 47 26 101 56 120 67 19 11 110 61 203 112 l167 92
0 1277 0 1277 -47 25 c-26 14 -133 73 -238 131 -104 58 -215 119 -245 136 -97
54 -1684 934 -1725 958 l-41 22 -69 -39z"/>
</g>
</svg>
