<?xml version="1.0" encoding="UTF-8" standalone="no"?>
<svg
   xmlns:dc="http://purl.org/dc/elements/1.1/"
   xmlns:cc="http://creativecommons.org/ns#"
   xmlns:rdf="http://www.w3.org/1999/02/22-rdf-syntax-ns#"
   xmlns:svg="http://www.w3.org/2000/svg"
   xmlns="http://www.w3.org/2000/svg"
   viewBox="0 0 1280 800"
   height="800"
   width="1280"
   xml:space="preserve"
   id="svg2"
   version="1.1"><metadata
     id="metadata8"><rdf:RDF><cc:Work
         rdf:about=""><dc:format>image/svg+xml</dc:format><dc:type
           rdf:resource="http://purl.org/dc/dcmitype/StillImage" /></cc:Work></rdf:RDF></metadata><defs
     id="defs6"><clipPath
       id="clipPath24"
       clipPathUnits="userSpaceOnUse"><path
         id="path22"
         d="M 0,600 H 960 V 0 H 0 Z" /></clipPath><clipPath
       id="clipPath152"
       clipPathUnits="userSpaceOnUse"><path
         id="path150"
         d="M 369.698,369.244 H 497.735 V 188.341 H 369.698 Z" /></clipPath><clipPath
       id="clipPath260"
       clipPathUnits="userSpaceOnUse"><path
         id="path258"
         d="M 242.81,366.652 H 347.188 V 307.685 H 242.81 Z" /></clipPath><clipPath
       id="clipPath312"
       clipPathUnits="userSpaceOnUse"><path
         id="path310"
         d="M 0,600 H 960 V 0 H 0 Z" /></clipPath><clipPath
       id="clipPath368"
       clipPathUnits="userSpaceOnUse"><path
         id="path366"
         d="M 602.106,445.981 H 668.62 V 388.163 H 602.106 Z" /></clipPath></defs><g
     transform="matrix(1.3333333,0,0,-1.3333333,0,800)"
     id="g10"><path
       id="path12"
       style="fill:#fafdfd;fill-opacity:1;fill-rule:nonzero;stroke:none"
       d="M 0,0 H 960 V 600 H 0 Z" /><text
       id="text16"
       style="font-variant:normal;font-weight:bold;font-stretch:normal;font-size:32px;font-family:Orkney;-inkscape-font-specification:Orkney-Bold;writing-mode:lr-tb;fill:#2983c6;fill-opacity:1;fill-rule:nonzero;stroke:none"
       transform="matrix(1,0,0,-1,326.8945,85.5713)"><tspan
         id="tspan14"
         y="0"
         x="0 15.872 33.152 57.919998 77.536003 103.392 112.064 137.92 161.504 169.34399 190.272 211.968 219.808 242.592 268.41599 277.08801 302.944">LEARNING BY DOING</tspan></text>
<g
       id="g18"><g
         clip-path="url(#clipPath24)"
         id="g20"><g
           transform="translate(163.8828,448.0391)"
           id="g26"><path
             id="path28"
             style="fill:#d6e8f8;fill-opacity:1;fill-rule:nonzero;stroke:none"
             d="m 0,0 v 0 c 0,-11.033 8.944,-19.977 19.977,-19.977 h 90.259 c 10.866,0 19.676,-8.81 19.675,-19.676 0,-10.867 -8.809,-19.676 -19.675,-19.676 H 61.662 c -11.817,0 -21.397,-9.58 -21.397,-21.397 0,-11.792 9.54,-21.36 21.331,-21.397 l 177.359,-0.544 3.121,-50.885 -277.437,1.515 c -13.152,0.071 -23.852,-10.57 -23.852,-23.722 0,-13.101 10.621,-23.722 23.722,-23.722 h 61.329 c 13.2,0 23.901,-10.702 23.901,-23.902 v -37 l 533.091,0.685 v 25.939 c 0,14.702 -11.871,26.646 -26.572,26.737 l -81.587,0.5 v 63.455 h 170.242 c 13.362,0 24.194,10.832 24.194,24.194 0,13.362 -10.832,24.194 -24.194,24.194 h -80.222 c 0,20.797 -16.859,37.656 -37.655,37.656 h -51.2 v 37.051 l 142.736,-0.005 c 11.033,0 19.978,8.944 19.978,19.977 0,11.034 -8.945,19.978 -19.978,19.978 H 19.977 C 8.944,19.978 0,11.034 0,0" /></g><g
           transform="translate(179.2417,401.5703)"
           id="g30"><path
             id="path32"
             style="fill:none;stroke:#2983c6;stroke-width:5.18300009;stroke-linecap:round;stroke-linejoin:miter;stroke-miterlimit:10;stroke-dasharray:none;stroke-opacity:1"
             d="M 0,0 H 14.767" /></g><g
           transform="translate(186.6255,394.1865)"
           id="g34"><path
             id="path36"
             style="fill:none;stroke:#2983c6;stroke-width:5.18300009;stroke-linecap:round;stroke-linejoin:miter;stroke-miterlimit:10;stroke-dasharray:none;stroke-opacity:1"
             d="M 0,0 V 14.768" /></g><g
           transform="translate(627.9795,501.5117)"
           id="g38"><path
             id="path40"
             style="fill:none;stroke:#2983c6;stroke-width:5.18300009;stroke-linecap:round;stroke-linejoin:miter;stroke-miterlimit:10;stroke-dasharray:none;stroke-opacity:1"
             d="M 0,0 H 14.768" /></g><g
           transform="translate(635.3633,494.1284)"
           id="g42"><path
             id="path44"
             style="fill:none;stroke:#2983c6;stroke-width:5.18300009;stroke-linecap:round;stroke-linejoin:miter;stroke-miterlimit:10;stroke-dasharray:none;stroke-opacity:1"
             d="M 0,0 V 14.767" /></g><g
           transform="translate(459.9248,462.7954)"
           id="g46"><path
             id="path48"
             style="fill:none;stroke:#2983c6;stroke-width:5.18300009;stroke-linecap:round;stroke-linejoin:miter;stroke-miterlimit:10;stroke-dasharray:none;stroke-opacity:1"
             d="M 0,0 10.442,10.442" /></g><g
           transform="translate(470.3672,462.7954)"
           id="g50"><path
             id="path52"
             style="fill:none;stroke:#2983c6;stroke-width:5.18300009;stroke-linecap:round;stroke-linejoin:miter;stroke-miterlimit:10;stroke-dasharray:none;stroke-opacity:1"
             d="M 0,0 -10.442,10.442" /></g><g
           transform="translate(802.1709,374.0142)"
           id="g54"><path
             id="path56"
             style="fill:none;stroke:#2983c6;stroke-width:5.18300009;stroke-linecap:round;stroke-linejoin:miter;stroke-miterlimit:10;stroke-dasharray:none;stroke-opacity:1"
             d="M 0,0 10.442,10.442" /></g><g
           transform="translate(812.6133,374.0142)"
           id="g58"><path
             id="path60"
             style="fill:none;stroke:#2983c6;stroke-width:5.18300009;stroke-linecap:round;stroke-linejoin:miter;stroke-miterlimit:10;stroke-dasharray:none;stroke-opacity:1"
             d="M 0,0 -10.442,10.442" /></g><g
           transform="translate(511.252,468.0166)"
           id="g62"><path
             id="path64"
             style="fill:none;stroke:#2983c6;stroke-width:5.18300009;stroke-linecap:butt;stroke-linejoin:miter;stroke-miterlimit:10;stroke-dasharray:none;stroke-opacity:1"
             d="M 0,0 H 75.377" /></g><g
           transform="translate(256.1055,468.0166)"
           id="g66"><path
             id="path68"
             style="fill:none;stroke:#2983c6;stroke-width:5.18300009;stroke-linecap:butt;stroke-linejoin:miter;stroke-miterlimit:10;stroke-dasharray:none;stroke-opacity:1"
             d="M 0,0 H 75.377" /></g><g
           transform="translate(356.6597,489.7153)"
           id="g70"><path
             id="path72"
             style="fill:none;stroke:#2983c6;stroke-width:5.18300009;stroke-linecap:butt;stroke-linejoin:miter;stroke-miterlimit:10;stroke-dasharray:none;stroke-opacity:1"
             d="M 0,0 H 140.954" /></g><g
           transform="translate(126.1558,341.8237)"
           id="g74"><path
             id="path76"
             style="fill:none;stroke:#2983c6;stroke-width:5.18300009;stroke-linecap:butt;stroke-linejoin:miter;stroke-miterlimit:10;stroke-dasharray:none;stroke-opacity:1"
             d="M 0,0 H 88.436" /></g><g
           transform="translate(719.2422,284.8174)"
           id="g78"><path
             id="path80"
             style="fill:none;stroke:#2983c6;stroke-width:5.18300009;stroke-linecap:butt;stroke-linejoin:miter;stroke-miterlimit:10;stroke-dasharray:none;stroke-opacity:1"
             d="M 0,0 H 66" /></g><g
           transform="translate(802.1709,284.8174)"
           id="g82"><path
             id="path84"
             style="fill:none;stroke:#2983c6;stroke-width:5.18300009;stroke-linecap:butt;stroke-linejoin:miter;stroke-miterlimit:10;stroke-dasharray:none;stroke-opacity:1"
             d="M 0,0 H -9.002" /></g><g
           transform="translate(504.3418,468.0166)"
           id="g86"><path
             id="path88"
             style="fill:none;stroke:#2983c6;stroke-width:5.18300009;stroke-linecap:butt;stroke-linejoin:miter;stroke-miterlimit:10;stroke-dasharray:none;stroke-opacity:1"
             d="M 0,0 H -13.518" /></g><g
           transform="translate(762.6504,397.8633)"
           id="g90"><path
             id="path92"
             style="fill:#2983c6;fill-opacity:1;fill-rule:nonzero;stroke:none"
             d="m 0,0 c 0,-2.047 -1.66,-3.707 -3.707,-3.707 -2.048,0 -3.707,1.66 -3.707,3.707 0,2.047 1.659,3.707 3.707,3.707 C -1.66,3.707 0,2.047 0,0" /></g><g
           transform="translate(333.2085,442.188)"
           id="g94"><path
             id="path96"
             style="fill:#2983c6;fill-opacity:1;fill-rule:nonzero;stroke:none"
             d="m 0,0 c 0,-3.018 -2.446,-5.464 -5.464,-5.464 -3.017,0 -5.464,2.446 -5.464,5.464 0,3.018 2.447,5.464 5.464,5.464 C -2.446,5.464 0,3.018 0,0" /></g><g
           transform="translate(196.6323,311.9956)"
           id="g98"><path
             id="path100"
             style="fill:#2983c6;fill-opacity:1;fill-rule:nonzero;stroke:none"
             d="m 0,0 c 0,-2.047 -1.659,-3.707 -3.707,-3.707 -2.047,0 -3.707,1.66 -3.707,3.707 0,2.047 1.66,3.707 3.707,3.707 C -1.659,3.707 0,2.047 0,0" /></g><g
           transform="translate(666.7227,267.3955)"
           id="g102"><path
             id="path104"
             style="fill:#61afe1;fill-opacity:1;fill-rule:nonzero;stroke:none"
             d="m 0,0 h -294.434 v 168.312 c 0,3.766 3.053,6.818 6.819,6.818 H -6.818 c 3.765,0 6.818,-3.052 6.818,-6.818 z" /></g><g
           transform="translate(427.0981,442.5259)"
           id="g106"><path
             id="path108"
             style="fill:none;stroke:#2983c6;stroke-width:5.18300009;stroke-linecap:butt;stroke-linejoin:miter;stroke-miterlimit:10;stroke-dasharray:none;stroke-opacity:1"
             d="M 0,0 H 181.993" /></g><g
           transform="translate(410.0171,442.5259)"
           id="g110"><path
             id="path112"
             style="fill:none;stroke:#2983c6;stroke-width:5.18300009;stroke-linecap:butt;stroke-linejoin:miter;stroke-miterlimit:10;stroke-dasharray:none;stroke-opacity:1"
             d="M 0,0 H 12.339" /></g><g
           transform="translate(666.7227,267.3955)"
           id="g114"><path
             id="path116"
             style="fill:none;stroke:#2983c6;stroke-width:5.18300009;stroke-linecap:butt;stroke-linejoin:miter;stroke-miterlimit:10;stroke-dasharray:none;stroke-opacity:1"
             d="m 0,0 h -294.434 v 160.053 c 0,8.327 6.75,15.077 15.078,15.077 h 14.944" /></g><path
           id="path118"
           style="fill:#ffffff;fill-opacity:1;fill-rule:nonzero;stroke:none"
           d="M 651.074,287.077 H 388.265 v 138.324 h 262.809 z" /><path
           id="path120"
           style="fill:#ffffff;fill-opacity:1;fill-rule:nonzero;stroke:none"
           d="m 563.859,188.341 h -88.707 v 52.513 h 88.707 z" /><path
           id="path122"
           style="fill:#d1e8f7;fill-opacity:1;fill-rule:nonzero;stroke:none"
           d="m 563.859,214.597 h -88.707 v 26.257 h 88.707 z" /><g
           transform="translate(475.1528,190.4629)"
           id="g124"><path
             id="path126"
             style="fill:none;stroke:#2983c6;stroke-width:5.18300009;stroke-linecap:butt;stroke-linejoin:miter;stroke-miterlimit:10;stroke-dasharray:none;stroke-opacity:1"
             d="M 0,0 V 50.391 H 88.707 V 0" /></g><g
           transform="translate(666.7227,273.8271)"
           id="g128"><path
             id="path130"
             style="fill:#ffffff;fill-opacity:1;fill-rule:nonzero;stroke:none"
             d="m 0,0 h -294.434 v -20.456 c 0,-10.663 8.644,-19.307 19.307,-19.307 h 255.82 C -8.644,-39.763 0,-31.119 0,-20.456 Z" /></g><g
           transform="translate(650.2158,273.8271)"
           id="g132"><path
             id="path134"
             style="fill:none;stroke:#2983c6;stroke-width:5.18300009;stroke-linecap:butt;stroke-linejoin:miter;stroke-miterlimit:10;stroke-dasharray:none;stroke-opacity:1"
             d="m 0,0 h -277.927 v -24.484 c 0,-8.439 6.84,-15.279 15.278,-15.279 H 0" /></g><path
           id="path136"
           style="fill:#9dceee;fill-opacity:1;fill-rule:nonzero;stroke:none"
           d="M 633.326,366.412 H 406.843 v 49.208 h 226.483 z" /><path
           id="path138"
           style="fill:#d1e8f7;fill-opacity:1;fill-rule:nonzero;stroke:none"
           d="m 550.225,295.557 h -60.281 v 63.439 h 60.281 z" /><path
           id="path140"
           style="fill:#d1e8f7;fill-opacity:1;fill-rule:nonzero;stroke:none"
           d="m 633.326,295.715 h -60.281 v 63.439 h 60.281 z" /><g
           transform="translate(666.0264,385.896)"
           id="g142"><path
             id="path144"
             style="fill:none;stroke:#2983c6;stroke-width:5.18300009;stroke-linecap:butt;stroke-linejoin:miter;stroke-miterlimit:10;stroke-dasharray:none;stroke-opacity:1"
             d="M 0,0 V -30.966" /></g><g
           id="g146"><g
             id="g148" /><g
             id="g160"><g
               style="opacity:0.30000299"
               id="g158"
               clip-path="url(#clipPath152)"><g
                 id="g156"
                 transform="translate(487.3359,360.812)"><path
                   id="path154"
                   style="fill:#0466a3;fill-opacity:1;fill-rule:nonzero;stroke:none"
                   d="m 0,0 c 0,4.649 -3.782,8.432 -8.432,8.432 h -109.206 v -92.827 -11.613 -15.46 c 0,-9.855 8.016,-17.871 17.869,-17.871 h 84.994 v -41.011 h 2.592 v -2.121 H 1.788 c 3.46,2.293 5.977,5.926 6.694,10.302 l 1.916,11.679 H 0 Z" /></g></g></g></g><g
           transform="translate(474.3789,197.7207)"
           id="g162"><path
             id="path164"
             style="fill:#61afe1;fill-opacity:1;fill-rule:nonzero;stroke:none"
             d="m 0,0 h -228.114 c -1.901,0 -3.455,1.555 -3.455,3.455 v 162.022 c 0,1.9 1.554,3.455 3.455,3.455 H 0 c 1.9,0 3.455,-1.555 3.455,-3.455 V 3.455 C 3.455,1.555 1.9,0 0,0" /></g><g
           transform="translate(248.6489,197.7207)"
           id="g166"><path
             id="path168"
             style="fill:none;stroke:#2983c6;stroke-width:5.18300009;stroke-linecap:butt;stroke-linejoin:miter;stroke-miterlimit:10;stroke-dasharray:none;stroke-opacity:1"
             d="m 0,0 c -3.211,0 -5.839,2.628 -5.839,5.84 v 99.3" /></g><g
           transform="translate(348.1455,366.6523)"
           id="g170"><path
             id="path172"
             style="fill:none;stroke:#2983c6;stroke-width:5.18300009;stroke-linecap:butt;stroke-linejoin:miter;stroke-miterlimit:10;stroke-dasharray:none;stroke-opacity:1"
             d="m 0,0 h 123.849 c 3.213,0 5.839,-2.627 5.839,-5.84 V -159.4" /></g><path
           id="path174"
           style="fill:#2983c6;fill-opacity:1;fill-rule:nonzero;stroke:none"
           d="M 465.146,216.274 H 254.224 V 353.36 h 210.922 z" /><g
           transform="translate(473.728,188.3408)"
           id="g176"><path
             id="path178"
             style="fill:#ffffff;fill-opacity:1;fill-rule:nonzero;stroke:none"
             d="m 0,0 h -229.402 c -5.508,0 -10.204,3.989 -11.096,9.424 l -1.634,9.967 h 106.324 l 4.069,-5.84 h 29.379 l 4.397,5.84 H 14.045 L 12.624,10.722 C 11.61,4.538 6.266,0 0,0" /></g><g
           transform="translate(473.728,188.3408)"
           id="g180"><path
             id="path182"
             style="fill:none;stroke:#2983c6;stroke-width:5.18300009;stroke-linecap:butt;stroke-linejoin:miter;stroke-miterlimit:10;stroke-dasharray:none;stroke-opacity:1"
             d="m 0,0 h -229.402 c -5.508,0 -10.204,3.989 -11.096,9.424 l -1.634,9.967 h 106.324 l 4.069,-5.84 h 29.379 l 4.397,5.84 H 14.045 L 12.624,10.722 C 11.61,4.538 6.266,0 0,0 Z" /></g><path
           id="path184"
           style="fill:#ffffff;fill-opacity:1;fill-rule:nonzero;stroke:none"
           d="m 305.61,336.609 h -23.632 v 3.094 h 23.632 z" /><path
           id="path186"
           style="fill:#ffffff;fill-opacity:1;fill-rule:nonzero;stroke:none"
           d="m 310.072,326.039 h -16.278 v 3.094 h 16.278 z" /><path
           id="path188"
           style="fill:#ffffff;fill-opacity:1;fill-rule:nonzero;stroke:none"
           d="M 459.601,326.039 H 346.073 v 3.094 h 113.528 z" /><path
           id="path190"
           style="fill:#ffffff;fill-opacity:1;fill-rule:nonzero;stroke:none"
           d="m 321.276,326.039 h 18.313 v 3.094 h -18.313 z" /><path
           id="path192"
           style="fill:#ffffff;fill-opacity:1;fill-rule:nonzero;stroke:none"
           d="m 331.772,317.219 h -32.438 v 3.094 h 32.438 z" /><path
           id="path194"
           style="fill:#ffffff;fill-opacity:1;fill-rule:nonzero;stroke:none"
           d="m 353.638,304.76 h -41.163 v 3.094 h 41.163 z" /><path
           id="path196"
           style="fill:#ffffff;fill-opacity:1;fill-rule:nonzero;stroke:none"
           d="m 326.96,293.038 h -44.981 v 3.095 h 44.981 z" /><path
           id="path198"
           style="fill:#ffffff;fill-opacity:1;fill-rule:nonzero;stroke:none"
           d="m 331.772,293.038 h 32.496 v 3.095 h -32.496 z" /><path
           id="path200"
           style="fill:#ffffff;fill-opacity:1;fill-rule:nonzero;stroke:none"
           d="m 354.11,281.315 h -60.316 v 3.095 h 60.316 z" /><path
           id="path202"
           style="fill:#ffffff;fill-opacity:1;fill-rule:nonzero;stroke:none"
           d="m 378.743,281.315 h 40.101 v 3.095 h -40.101 z" /><path
           id="path204"
           style="fill:#ffffff;fill-opacity:1;fill-rule:nonzero;stroke:none"
           d="m 375.588,281.315 h -18.929 v 3.095 h 18.929 z" /><path
           id="path206"
           style="fill:#ffffff;fill-opacity:1;fill-rule:nonzero;stroke:none"
           d="m 366.621,269.594 h -52.776 v 3.095 h 52.776 z" /><path
           id="path208"
           style="fill:#ffffff;fill-opacity:1;fill-rule:nonzero;stroke:none"
           d="m 299.335,269.594 h 11.05 v 3.095 h -11.05 z" /><path
           id="path210"
           style="fill:#ffffff;fill-opacity:1;fill-rule:nonzero;stroke:none"
           d="m 317.98,260.984 h -36.001 v 3.095 h 36.001 z" /><path
           id="path212"
           style="fill:#ffffff;fill-opacity:1;fill-rule:nonzero;stroke:none"
           d="m 333.146,260.984 h -12.372 v 3.095 h 12.372 z" /><path
           id="path214"
           style="fill:#ffffff;fill-opacity:1;fill-rule:nonzero;stroke:none"
           d="m 395.655,260.984 h -59.063 v 3.095 h 59.063 z" /><path
           id="path216"
           style="fill:#ffffff;fill-opacity:1;fill-rule:nonzero;stroke:none"
           d="m 400.242,260.984 h 53.334 v 3.095 h -53.334 z" /><path
           id="path218"
           style="fill:#ffffff;fill-opacity:1;fill-rule:nonzero;stroke:none"
           d="m 312.475,249.263 h -18.681 v 3.095 h 18.681 z" /><path
           id="path220"
           style="fill:#ffffff;fill-opacity:1;fill-rule:nonzero;stroke:none"
           d="m 317.98,249.263 h 44.344 v 3.095 H 317.98 Z" /><path
           id="path222"
           style="fill:#ffffff;fill-opacity:1;fill-rule:nonzero;stroke:none"
           d="m 339.849,237.541 h -36.001 v 3.094 h 36.001 z" /><path
           id="path224"
           style="fill:#ffffff;fill-opacity:1;fill-rule:nonzero;stroke:none"
           d="m 383.414,237.541 h -36.001 v 3.094 h 36.001 z" /><path
           id="path226"
           style="fill:#ffffff;fill-opacity:1;fill-rule:nonzero;stroke:none"
           d="m 422.912,237.541 h -33.907 v 3.094 h 33.907 z" /><path
           id="path228"
           style="fill:#ffffff;fill-opacity:1;fill-rule:nonzero;stroke:none"
           d="m 446.093,304.76 h 10.172 v 3.094 h -10.172 z" /><path
           id="path230"
           style="fill:#ffffff;fill-opacity:1;fill-rule:nonzero;stroke:none"
           d="m 441.578,304.76 h -84.305 v 3.094 h 84.305 z" /><path
           id="path232"
           style="fill:#ffffff;fill-opacity:1;fill-rule:nonzero;stroke:none"
           d="m 408.3,336.609 h -95.825 v 3.094 H 408.3 Z" /><path
           id="path234"
           style="fill:#ffffff;fill-opacity:1;fill-rule:nonzero;stroke:none"
           d="m 270.933,339.333 h -4.979 v 4.98 h 4.979 z" /><path
           id="path236"
           style="fill:#ffffff;fill-opacity:1;fill-rule:nonzero;stroke:none"
           d="m 270.933,326.22 h -4.979 v 4.98 h 4.979 z" /><path
           id="path238"
           style="fill:#ffffff;fill-opacity:1;fill-rule:nonzero;stroke:none"
           d="m 270.933,313.105 h -4.979 v 4.98 h 4.979 z" /><path
           id="path240"
           style="fill:#ffffff;fill-opacity:1;fill-rule:nonzero;stroke:none"
           d="m 270.933,299.992 h -4.979 v 4.98 h 4.979 z" /><path
           id="path242"
           style="fill:#ffffff;fill-opacity:1;fill-rule:nonzero;stroke:none"
           d="m 270.933,286.878 h -4.979 v 4.98 h 4.979 z" /><path
           id="path244"
           style="fill:#ffffff;fill-opacity:1;fill-rule:nonzero;stroke:none"
           d="m 270.933,273.765 h -4.979 v 4.979 h 4.979 z" /><path
           id="path246"
           style="fill:#ffffff;fill-opacity:1;fill-rule:nonzero;stroke:none"
           d="m 270.933,260.65 h -4.979 v 4.98 h 4.979 z" /><path
           id="path248"
           style="fill:#ffffff;fill-opacity:1;fill-rule:nonzero;stroke:none"
           d="m 270.933,247.536 h -4.98 v 4.98 h 4.98 z" /><path
           id="path250"
           style="fill:#ffffff;fill-opacity:1;fill-rule:nonzero;stroke:none"
           d="m 270.933,234.423 h -4.98 v 4.979 h 4.98 z" /><path
           id="path252"
           style="fill:#ffffff;fill-opacity:1;fill-rule:nonzero;stroke:none"
           d="m 270.933,221.31 h -4.98 v 4.979 h 4.98 z" /><g
           id="g254"><g
             id="g256" /><g
             id="g268"><g
               style="opacity:0.30000299"
               id="g266"
               clip-path="url(#clipPath260)"><g
                 id="g264"
                 transform="translate(244.9653,366.6523)"><path
                   id="path262"
                   style="fill:#0466a3;fill-opacity:1;fill-rule:nonzero;stroke:none"
                   d="m 0,0 c -1.186,0 -2.156,-0.97 -2.156,-2.155 v -56.812 h 94.404 c 5.509,0 9.975,4.466 9.975,9.974 l 0,48.993 z" /></g></g></g></g><g
           transform="translate(326.8882,311.9956)"
           id="g270"><path
             id="path272"
             style="fill:#ffffff;fill-opacity:1;fill-rule:nonzero;stroke:none"
             d="m 0,0 h -86.525 c -8.83,0 -15.989,7.159 -15.989,15.989 v 53.89 c 0,8.83 7.159,15.989 15.989,15.989 H 0 c 8.831,0 15.989,-7.159 15.989,-15.989 V 15.989 C 15.989,7.159 8.831,0 0,0" /></g><g
           transform="translate(224.374,379.5562)"
           id="g274"><path
             id="path276"
             style="fill:#d1e8f7;fill-opacity:1;fill-rule:nonzero;stroke:none"
             d="m 0,0 v 12.368 c 0,3.28 2.659,5.939 5.939,5.939 h 106.626 c 3.279,0 5.938,-2.659 5.938,-5.939 V 0 Z" /></g><g
           transform="translate(266.6357,397.8633)"
           id="g278"><path
             id="path280"
             style="fill:none;stroke:#2983c6;stroke-width:5.18300009;stroke-linecap:butt;stroke-linejoin:miter;stroke-miterlimit:10;stroke-dasharray:none;stroke-opacity:1"
             d="m 0,0 h 70.303 c 3.28,0 5.938,-2.659 5.938,-5.939 v -73.99 c 0,-3.28 -2.658,-5.939 -5.938,-5.939 H -36.323 c -3.28,0 -5.939,2.659 -5.939,5.939 v 73.99 c 0,3.28 2.659,5.939 5.939,5.939 h 12.414 3.322" /></g><g
           transform="translate(250.5591,397.8633)"
           id="g282"><path
             id="path284"
             style="fill:none;stroke:#2983c6;stroke-width:5.18300009;stroke-linecap:butt;stroke-linejoin:miter;stroke-miterlimit:10;stroke-dasharray:none;stroke-opacity:1"
             d="M 0,0 H 9.376" /></g><g
           transform="translate(224.374,379.2354)"
           id="g286"><path
             id="path288"
             style="fill:none;stroke:#2983c6;stroke-width:5.18300009;stroke-linecap:butt;stroke-linejoin:miter;stroke-miterlimit:10;stroke-dasharray:none;stroke-opacity:1"
             d="M 0,0 H 118.503" /></g><g
           transform="translate(233.9409,387.7036)"
           id="g290"><path
             id="path292"
             style="fill:none;stroke:#2983c6;stroke-width:5.18300009;stroke-linecap:butt;stroke-linejoin:miter;stroke-miterlimit:10;stroke-dasharray:none;stroke-opacity:1"
             d="M 0,0 H 2.047" /></g><g
           transform="translate(241.5493,387.7036)"
           id="g294"><path
             id="path296"
             style="fill:none;stroke:#2983c6;stroke-width:5.18300009;stroke-linecap:butt;stroke-linejoin:miter;stroke-miterlimit:10;stroke-dasharray:none;stroke-opacity:1"
             d="M 0,0 H 2.047" /></g><g
           transform="translate(249.1582,387.7036)"
           id="g298"><path
             id="path300"
             style="fill:none;stroke:#2983c6;stroke-width:5.18300009;stroke-linecap:butt;stroke-linejoin:miter;stroke-miterlimit:10;stroke-dasharray:none;stroke-opacity:1"
             d="M 0,0 H 2.046" /></g></g></g><text
       id="text304"
       style="font-variant:normal;font-weight:bold;font-stretch:normal;font-size:26.21109962px;font-family:'Myriad Pro';-inkscape-font-specification:Montserrat-Bold;writing-mode:lr-tb;fill:#2983c6;fill-opacity:1;fill-rule:nonzero;stroke:none"
       transform="matrix(1,0,0,-1,263.5039,340.3076)"><tspan
         id="tspan302"
         y="0"
         x="0 15.621816 24.612223">&lt;/&gt;</tspan></text>
<g
       id="g306"><g
         clip-path="url(#clipPath312)"
         id="g308"><g
           transform="translate(660.9355,188.6514)"
           id="g314"><path
             id="path316"
             style="fill:#ffffff;fill-opacity:1;fill-rule:nonzero;stroke:none"
             d="m 0,0 h 9.896 c 0.746,0 1.349,0.604 1.349,1.351 v 142.543 c 0,0.195 -0.042,0.388 -0.124,0.565 l -4.947,10.72 c -0.483,1.046 -1.969,1.046 -2.451,0 l -4.949,-10.72 c -0.081,-0.177 -0.124,-0.37 -0.124,-0.565 V 1.351 C -1.35,0.604 -0.745,0 0,0" /></g><path
           id="path318"
           style="fill:#61afe1;fill-opacity:1;fill-rule:nonzero;stroke:none"
           d="m 672.181,202.296 h -12.595 v 125.701 h 12.595 z" /><path
           id="path320"
           style="fill:#9dceee;fill-opacity:1;fill-rule:nonzero;stroke:none"
           d="m 665.844,202.296 h -6.378 v 125.701 h 6.378 z" /><g
           transform="translate(659.5859,188.6514)"
           id="g322"><path
             id="path324"
             style="fill:none;stroke:#2983c6;stroke-width:5.18300009;stroke-linecap:butt;stroke-linejoin:miter;stroke-miterlimit:10;stroke-dasharray:none;stroke-opacity:1"
             d="m 0,0 h 12.595 v 144.19 l -5.568,12.063 c -0.287,0.623 -1.172,0.623 -1.459,0 L 0,144.19 Z" /></g><g
           transform="translate(672.6162,327.9966)"
           id="g326"><path
             id="path328"
             style="fill:none;stroke:#2983c6;stroke-width:5.18300009;stroke-linecap:butt;stroke-linejoin:miter;stroke-miterlimit:10;stroke-dasharray:none;stroke-opacity:1"
             d="M 0,0 H -13.03" /></g><g
           transform="translate(673.1201,202.2959)"
           id="g330"><path
             id="path332"
             style="fill:none;stroke:#2983c6;stroke-width:5.18300009;stroke-linecap:butt;stroke-linejoin:miter;stroke-miterlimit:10;stroke-dasharray:none;stroke-opacity:1"
             d="M 0,0 H -14.473" /></g><g
           transform="translate(683.5381,336.5854)"
           id="g334"><path
             id="path336"
             style="fill:#61afe1;fill-opacity:1;fill-rule:nonzero;stroke:none"
             d="m 0,0 c 0,6.373 7.073,10.998 9.17,14.707 4.213,7.453 4.203,20.478 4.203,20.478 C 24.805,33.091 26.745,9.476 26.745,0 26.745,-9.477 20.758,-17.159 13.373,-17.159 5.987,-17.159 0,-9.477 0,0" /></g><g
           transform="translate(696.9111,294.8271)"
           id="g338"><path
             id="path340"
             style="fill:#ffffff;fill-opacity:1;fill-rule:nonzero;stroke:none"
             d="M 0,0 V 0 C 5.936,0 10.622,-5.713 10.189,-12.421 L 5.218,-89.359 c -0.396,-6.124 -2.08,-12.053 -4.913,-17.287 l -0.284,-0.525 c -3.268,5.565 -5.199,11.999 -5.603,18.668 l -4.611,76.136 C -10.598,-5.679 -5.918,0 0,0" /></g><g
           transform="translate(683.5381,336.5854)"
           id="g342"><path
             id="path344"
             style="fill:none;stroke:#2983c6;stroke-width:5.18300009;stroke-linecap:butt;stroke-linejoin:miter;stroke-miterlimit:10;stroke-dasharray:none;stroke-opacity:1"
             d="m 0,0 c 0,6.373 7.073,10.998 9.17,14.707 4.213,7.453 4.203,20.478 4.203,20.478 C 24.805,33.091 26.745,9.476 26.745,0 26.745,-9.477 20.758,-17.159 13.373,-17.159 5.987,-17.159 0,-9.477 0,0 Z" /></g><g
           transform="translate(696.9111,294.8271)"
           id="g346"><path
             id="path348"
             style="fill:none;stroke:#2983c6;stroke-width:5.18300009;stroke-linecap:butt;stroke-linejoin:miter;stroke-miterlimit:10;stroke-dasharray:none;stroke-opacity:1"
             d="M 0,0 V 0 C 5.936,0 10.622,-5.713 10.189,-12.421 L 5.218,-89.359 c -0.334,-5.158 -3.79,-14.261 -4.874,-17.007 -0.129,-0.325 -0.593,-0.341 -0.763,-0.034 -3.002,5.384 -4.777,11.534 -5.163,17.897 l -4.611,76.136 C -10.598,-5.679 -5.918,0 0,0 Z" /></g><g
           transform="translate(686.6572,324.0005)"
           id="g350"><path
             id="path352"
             style="fill:#9dceee;fill-opacity:1;fill-rule:nonzero;stroke:none"
             d="m 0,0 h 20.554 l 0.001,-41.296 H 0 Z" /></g><g
           transform="translate(686.6572,324.0005)"
           id="g354"><path
             id="path356"
             style="fill:#d1e8f7;fill-opacity:1;fill-rule:nonzero;stroke:none"
             d="M 0,0 H 10.277 V -41.296 H 0 Z" /></g><g
           transform="translate(686.6572,324.0005)"
           id="g358"><path
             id="path360"
             style="fill:none;stroke:#2983c6;stroke-width:5.18300009;stroke-linecap:butt;stroke-linejoin:miter;stroke-miterlimit:10;stroke-dasharray:none;stroke-opacity:1"
             d="m 0,0 h 20.554 l 0.001,-41.296 H 0 Z" /></g><g
           id="g362"><g
             id="g364" /><g
             id="g376"><g
               style="opacity:0.30000299"
               id="g374"
               clip-path="url(#clipPath368)"><g
                 id="g372"
                 transform="translate(666.7227,439.1621)"><path
                   id="path370"
                   style="fill:#0466a3;fill-opacity:1;fill-rule:nonzero;stroke:none"
                   d="m 0,0 c 0,3.766 -3.053,6.819 -6.818,6.819 h -34.437 c -12.098,-9.02 -21.112,-18.88 -21.796,-19.637 l -1.565,-1.736 1.565,-1.736 c 1.279,-1.418 31.595,-34.71 57.019,-34.71 2.602,0 5.261,0.422 7.928,1.05 v 3.595 H 0 Z" /></g></g></g></g><g
           transform="translate(719.2422,428.062)"
           id="g378"><path
             id="path380"
             style="fill:#ffffff;fill-opacity:1;fill-rule:nonzero;stroke:none"
             d="M 0,0 C 0,0 -30.534,-33.854 -55.097,-33.854 -79.66,-33.854 -110.193,0 -110.193,0 c 0,0 30.533,33.853 55.096,33.853 C -30.534,33.853 0,0 0,0" /></g><g
           transform="translate(719.2422,428.062)"
           id="g382"><path
             id="path384"
             style="fill:none;stroke:#2983c6;stroke-width:5.18300009;stroke-linecap:butt;stroke-linejoin:miter;stroke-miterlimit:10;stroke-dasharray:none;stroke-opacity:1"
             d="M 0,0 C 0,0 -30.534,-33.854 -55.097,-33.854 -79.66,-33.854 -110.193,0 -110.193,0 c 0,0 30.533,33.853 55.096,33.853 C -30.534,33.853 0,0 0,0 Z" /></g><g
           transform="translate(688.5693,428.0645)"
           id="g386"><path
             id="path388"
             style="fill:#9dceee;fill-opacity:1;fill-rule:nonzero;stroke:none"
             d="m 0,0 c 0,13.444 -10.863,24.346 -24.29,24.414 l -0.065,-48.837 C -10.896,-24.387 0,-13.467 0,0" /></g><g
           transform="translate(664.1465,452.4873)"
           id="g390"><path
             id="path392"
             style="fill:#d1e8f7;fill-opacity:1;fill-rule:nonzero;stroke:none"
             d="m 0,0 c -13.489,0 -24.428,-10.934 -24.428,-24.423 0,-13.49 10.939,-24.428 24.428,-24.428 0.022,0 0.046,0.005 0.067,0.005 L 0.133,-0.009 C 0.088,-0.009 0.046,0 0,0" /></g><g
           transform="translate(676.126,428.0645)"
           id="g394"><path
             id="path396"
             style="fill:#ffffff;fill-opacity:1;fill-rule:nonzero;stroke:none"
             d="m 0,0 c 0,-6.618 -5.365,-11.979 -11.977,-11.979 -6.617,0 -11.984,5.361 -11.984,11.979 0,6.614 5.367,11.975 11.984,11.975 C -5.365,11.975 0,6.614 0,0" /></g><g
           transform="translate(689.7373,428.0674)"
           id="g398"><path
             id="path400"
             style="fill:none;stroke:#2983c6;stroke-width:5.18300009;stroke-linecap:butt;stroke-linejoin:miter;stroke-miterlimit:10;stroke-dasharray:none;stroke-opacity:1"
             d="m 0,0 c 0,-14.139 -11.461,-25.591 -25.584,-25.591 -14.134,0 -25.6,11.452 -25.6,25.591 0,14.129 11.466,25.58 25.6,25.58 C -11.461,25.58 0,14.129 0,0 Z" /></g><g
           transform="translate(671.7344,428.0645)"
           id="g402"><path
             id="path404"
             style="fill:#61afe1;fill-opacity:1;fill-rule:nonzero;stroke:none"
             d="m 0,0 c 0,-4.193 -3.396,-7.588 -7.588,-7.588 -4.192,0 -7.59,3.395 -7.59,7.588 0,4.188 3.398,7.583 7.59,7.583 C -3.396,7.583 0,4.188 0,0" /></g><g
           transform="translate(617.4805,458.3418)"
           id="g406"><path
             id="path408"
             style="fill:none;stroke:#2983c6;stroke-width:5.18300009;stroke-linecap:butt;stroke-linejoin:miter;stroke-miterlimit:10;stroke-dasharray:none;stroke-opacity:1"
             d="M 0,0 V 9.675 H 8.908" /></g><g
           transform="translate(711.1787,392.4609)"
           id="g410"><path
             id="path412"
             style="fill:none;stroke:#2983c6;stroke-width:5.18300009;stroke-linecap:butt;stroke-linejoin:miter;stroke-miterlimit:10;stroke-dasharray:none;stroke-opacity:1"
             d="M 0,0 V -9.675 H -8.908" /></g><g
           transform="translate(751.5664,193.1943)"
           id="g414"><path
             id="path416"
             style="fill:#d1e8f7;fill-opacity:1;fill-rule:nonzero;stroke:none"
             d="m 0,0 v 28.859 c 0,2.681 -2.173,4.854 -4.854,4.854 h -165.694 c -2.681,0 -4.854,-2.173 -4.854,-4.854 V 0 c 0,-2.68 2.173,-4.854 4.853,-4.854 H -4.854 C -2.173,-4.854 0,-2.68 0,0" /></g><g
           transform="translate(576.1641,222.0537)"
           id="g418"><path
             id="path420"
             style="fill:#eaf4fa;fill-opacity:1;fill-rule:nonzero;stroke:none"
             d="M 0,0 V -12.422 H 175.402 V 0 c 0,2.681 -2.173,4.854 -4.853,4.854 H 4.854 C 2.173,4.854 0,2.681 0,0" /></g><g
           transform="translate(751.5664,193.1943)"
           id="g422"><path
             id="path424"
             style="fill:none;stroke:#2983c6;stroke-width:5.18300009;stroke-linecap:butt;stroke-linejoin:miter;stroke-miterlimit:10;stroke-dasharray:none;stroke-opacity:1"
             d="m 0,0 v 28.859 c 0,2.681 -2.173,4.854 -4.854,4.854 h -165.694 c -2.681,0 -4.854,-2.173 -4.854,-4.854 V 0 c 0,-2.68 2.173,-4.854 4.853,-4.854 H -4.854 C -2.173,-4.854 0,-2.68 0,0 Z" /></g><g
           transform="translate(595.8926,226.9072)"
           id="g426"><path
             id="path428"
             style="fill:none;stroke:#2983c6;stroke-width:5.18300009;stroke-linecap:butt;stroke-linejoin:miter;stroke-miterlimit:10;stroke-dasharray:none;stroke-opacity:1"
             d="M 0,0 V -23.576" /></g><g
           transform="translate(612.4775,226.9072)"
           id="g430"><path
             id="path432"
             style="fill:none;stroke:#2983c6;stroke-width:5.18300009;stroke-linecap:butt;stroke-linejoin:miter;stroke-miterlimit:10;stroke-dasharray:none;stroke-opacity:1"
             d="M 0,0 V -11.788" /></g><g
           transform="translate(629.0635,226.9072)"
           id="g434"><path
             id="path436"
             style="fill:none;stroke:#2983c6;stroke-width:5.18300009;stroke-linecap:butt;stroke-linejoin:miter;stroke-miterlimit:10;stroke-dasharray:none;stroke-opacity:1"
             d="M 0,0 V -11.788" /></g><g
           transform="translate(645.6484,226.9072)"
           id="g438"><path
             id="path440"
             style="fill:none;stroke:#2983c6;stroke-width:5.18300009;stroke-linecap:butt;stroke-linejoin:miter;stroke-miterlimit:10;stroke-dasharray:none;stroke-opacity:1"
             d="M 0,0 V -11.788" /></g><g
           transform="translate(662.2334,226.9072)"
           id="g442"><path
             id="path444"
             style="fill:none;stroke:#2983c6;stroke-width:5.18300009;stroke-linecap:butt;stroke-linejoin:miter;stroke-miterlimit:10;stroke-dasharray:none;stroke-opacity:1"
             d="M 0,0 V -23.576" /></g><g
           transform="translate(678.8184,226.9072)"
           id="g446"><path
             id="path448"
             style="fill:none;stroke:#2983c6;stroke-width:5.18300009;stroke-linecap:butt;stroke-linejoin:miter;stroke-miterlimit:10;stroke-dasharray:none;stroke-opacity:1"
             d="M 0,0 V -11.788" /></g><g
           transform="translate(695.4033,226.9072)"
           id="g450"><path
             id="path452"
             style="fill:none;stroke:#2983c6;stroke-width:5.18300009;stroke-linecap:butt;stroke-linejoin:miter;stroke-miterlimit:10;stroke-dasharray:none;stroke-opacity:1"
             d="M 0,0 V -11.788" /></g><g
           transform="translate(711.9893,226.9072)"
           id="g454"><path
             id="path456"
             style="fill:none;stroke:#2983c6;stroke-width:5.18300009;stroke-linecap:butt;stroke-linejoin:miter;stroke-miterlimit:10;stroke-dasharray:none;stroke-opacity:1"
             d="M 0,0 V -11.788" /></g><g
           transform="translate(728.5742,226.9072)"
           id="g458"><path
             id="path460"
             style="fill:none;stroke:#2983c6;stroke-width:5.18300009;stroke-linecap:butt;stroke-linejoin:miter;stroke-miterlimit:10;stroke-dasharray:none;stroke-opacity:1"
             d="M 0,0 V -23.576" /></g><g
           transform="translate(177.1621,187.6553)"
           id="g462"><path
             id="path464"
             style="fill:none;stroke:#2983c6;stroke-width:5.18300009;stroke-linecap:butt;stroke-linejoin:miter;stroke-miterlimit:10;stroke-dasharray:none;stroke-opacity:1"
             d="M 0,0 H 9.463" /></g><g
           transform="translate(764.3418,187.6553)"
           id="g466"><path
             id="path468"
             style="fill:none;stroke:#2983c6;stroke-width:5.18300009;stroke-linecap:butt;stroke-linejoin:miter;stroke-miterlimit:10;stroke-dasharray:none;stroke-opacity:1"
             d="M 0,0 H 20.9" /></g><g
           transform="translate(192.9253,187.6553)"
           id="g470"><path
             id="path472"
             style="fill:none;stroke:#2983c6;stroke-width:5.18300009;stroke-linecap:butt;stroke-linejoin:miter;stroke-miterlimit:10;stroke-dasharray:none;stroke-opacity:1"
             d="M 0,0 H 566.018" /></g></g></g></g></svg>