<?xml version="1.0" ?><svg height="256px" version="1.1" viewBox="0 0 167 256" width="167px" xmlns="http://www.w3.org/2000/svg" xmlns:xlink="http://www.w3.org/1999/xlink"><title/><desc/><defs/><g fill="none" fill-rule="evenodd" id="Classic" stroke="none" stroke-width="1"><g fill="#333333" id="EOS" transform="translate(-4617.000000, -1122.000000)"><g transform="translate(4617.000000, 1122.000000)"><path d="M84.1740329,0 L27.9369362,81.868197 L0,205.027915 L83.56247,255.632134 L84.1670701,256 L166.960154,206.182573 L139.107932,81.868197 L84.1740329,0 Z M30.4945921,81.868197 L83.0019673,5.79069999 L83.0019673,62.0011061 L44.9330468,127.322291 L30.4945921,81.868197 Z M85.3228892,62.0080688 L85.3228892,5.86380903 L136.563041,81.868197 L122.564401,126.978794 L85.3228892,62.0080688 Z M45.8811434,130.305836 L84.154305,64.6353524 L121.625588,130.006437 L98.8770727,203.309272 L69.0729549,203.309272 L45.8811434,130.305836 Z M29.3167242,86.2001976 L43.3002783,130.123643 L4.11963627,197.353786 L29.3167242,86.2001976 Z M124.118258,129.689631 L137.570321,86.2976764 L162.791779,197.157669 L124.118258,129.689631 Z M123.179445,132.717274 L163.642397,203.309272 L101.293152,203.309272 L123.179445,132.717274 Z M44.2506958,133.106028 L66.6011732,203.309272 L3.33632515,203.309272 L44.2506958,133.106028 Z M100.573667,205.630194 L161.546604,205.630194 L86.1874326,252.030063 L100.573667,205.630194 Z M69.8086871,205.630194 L98.157587,205.630194 L84.1496632,250.768642 L69.8086871,205.630194 Z M5.4727337,205.630194 L67.3403868,205.630194 L82.1176961,252.043989 L5.4727337,205.630194 Z" id="Logo"/></g></g></g></svg>