<?xml version="1.0" encoding="UTF-8" standalone="no"?>
<!-- Created with Inkscape (http://www.inkscape.org/) -->

<svg
   xmlns:dc="http://purl.org/dc/elements/1.1/"
   xmlns:cc="http://creativecommons.org/ns#"
   xmlns:rdf="http://www.w3.org/1999/02/22-rdf-syntax-ns#"
   xmlns:svg="http://www.w3.org/2000/svg"
   xmlns="http://www.w3.org/2000/svg"
   xmlns:sodipodi="http://sodipodi.sourceforge.net/DTD/sodipodi-0.dtd"
   xmlns:inkscape="http://www.inkscape.org/namespaces/inkscape"
   id="svg12674"
   version="1.1"
   inkscape:version="0.91 r13725"
   xml:space="preserve"
   width="625"
   height="625"
   viewBox="0 0 625 625"
   sodipodi:docname="reputation.svg"><metadata
     id="metadata12680"><rdf:RDF><cc:Work
         rdf:about=""><dc:format>image/svg+xml</dc:format><dc:type
           rdf:resource="http://purl.org/dc/dcmitype/StillImage" /><dc:title></dc:title></cc:Work></rdf:RDF></metadata><defs
     id="defs12678"><clipPath
       clipPathUnits="userSpaceOnUse"
       id="clipPath12700"><path
         d="M 0,500 500,500 500,0 0,0 0,500 Z"
         id="path12702"
         inkscape:connector-curvature="0" /></clipPath><clipPath
       clipPathUnits="userSpaceOnUse"
       id="clipPath13056"><path
         d="M 0,500 500,500 500,0 0,0 0,500 Z"
         id="path13058"
         inkscape:connector-curvature="0" /></clipPath><clipPath
       clipPathUnits="userSpaceOnUse"
       id="clipPath13232"><path
         d="m 49.1123,116.434 46.922,0 0,-2.119 -46.922,0 0,2.119 z"
         id="path13234"
         inkscape:connector-curvature="0" /></clipPath><clipPath
       clipPathUnits="userSpaceOnUse"
       id="clipPath13248"><path
         d="m 62.8933,114.274 4.8608,0 0,-32.1775 -4.8608,0 0,32.1775 z"
         id="path13250"
         inkscape:connector-curvature="0" /></clipPath><clipPath
       clipPathUnits="userSpaceOnUse"
       id="clipPath13266"><path
         d="m 64.5094,126.709 27.2628,0 0,-2.543 -27.2628,0 0,2.543 z"
         id="path13268"
         inkscape:connector-curvature="0" /></clipPath><clipPath
       clipPathUnits="userSpaceOnUse"
       id="clipPath13314"><path
         d="m 66.7785,124.166 2.4962,0 0,-42.1396 -2.4962,0 0,42.1396 z"
         id="path13316"
         inkscape:connector-curvature="0" /></clipPath><clipPath
       clipPathUnits="userSpaceOnUse"
       id="clipPath13328"><path
         d="m 86.9281,124.166 2.594,0 0,-42.1396 -2.594,0 0,42.1396 z"
         id="path13330"
         inkscape:connector-curvature="0" /></clipPath><clipPath
       clipPathUnits="userSpaceOnUse"
       id="clipPath13650"><path
         d="M 0,500 500,500 500,0 0,0 0,500 Z"
         id="path13652"
         inkscape:connector-curvature="0" /></clipPath><clipPath
       clipPathUnits="userSpaceOnUse"
       id="clipPath13784"><path
         d="m 337.862,125.236 29.112,0 0,-43.2096 -29.112,0 0,43.2096 z"
         id="path13786"
         inkscape:connector-curvature="0" /></clipPath><clipPath
       clipPathUnits="userSpaceOnUse"
       id="clipPath13882"><path
         d="m 400.414,104.944 13.161,0 0,-22.11 -13.161,0 0,22.11 z"
         id="path13884"
         inkscape:connector-curvature="0" /></clipPath><clipPath
       clipPathUnits="userSpaceOnUse"
       id="clipPath14024"><path
         d="M 0,500 500,500 500,0 0,0 0,500 Z"
         id="path14026"
         inkscape:connector-curvature="0" /></clipPath></defs><sodipodi:namedview
     pagecolor="#ffffff"
     bordercolor="#666666"
     borderopacity="1"
     objecttolerance="10"
     gridtolerance="10"
     guidetolerance="10"
     inkscape:pageopacity="0"
     inkscape:pageshadow="2"
     inkscape:window-width="1920"
     inkscape:window-height="1027"
     id="namedview12676"
     showgrid="false"
     inkscape:zoom="0.7552"
     inkscape:cx="260.85805"
     inkscape:cy="259.23265"
     inkscape:window-x="0"
     inkscape:window-y="0"
     inkscape:window-maximized="1"
     inkscape:current-layer="g14022" /><g
     id="g12682"
     inkscape:groupmode="layer"
     inkscape:label="Flat line Designed Concepts 6"
     transform="matrix(1.25,0,0,-1.25,0,625)"><path
       d="m 250,250 250,0 0,250 -250,0 0,-250 z"
       style="fill:#000000;fill-opacity:0;fill-rule:nonzero;stroke:none"
       id="path12690"
       inkscape:connector-curvature="0" /><g
       id="g14020"><g
         id="g14022"
         clip-path="url(#clipPath14024)"><g
           id="g14028"
           transform="translate(465.9718,413.8029)" /><g
           id="g18367"
           transform="matrix(2.6418916,0,0,2.3034146,-513.49929,-557.50658)"><g
             transform="translate(234.6087,346.4482)"
             id="g14032"><path
               inkscape:connector-curvature="0"
               id="path14034"
               style="fill:none;stroke:#0686d8;stroke-width:1.5;stroke-linecap:round;stroke-linejoin:miter;stroke-miterlimit:10;stroke-dasharray:none;stroke-opacity:1"
               d="M 0,0 4.274,0" /></g><g
             transform="translate(236.7458,344.3111)"
             id="g14036"><path
               inkscape:connector-curvature="0"
               id="path14038"
               style="fill:none;stroke:#0686d8;stroke-width:1.5;stroke-linecap:round;stroke-linejoin:miter;stroke-miterlimit:10;stroke-dasharray:none;stroke-opacity:1"
               d="M 0,0 0,4.274" /></g><g
             transform="translate(276.1109,388.0495)"
             id="g14040"><path
               inkscape:connector-curvature="0"
               id="path14042"
               style="fill:none;stroke:#0686d8;stroke-width:1.5;stroke-linecap:round;stroke-linejoin:miter;stroke-miterlimit:10;stroke-dasharray:none;stroke-opacity:1"
               d="M 0,0 4.274,0" /></g><g
             transform="translate(278.248,385.9124)"
             id="g14044"><path
               inkscape:connector-curvature="0"
               id="path14046"
               style="fill:none;stroke:#0686d8;stroke-width:1.5;stroke-linecap:round;stroke-linejoin:miter;stroke-miterlimit:10;stroke-dasharray:none;stroke-opacity:1"
               d="M 0,0 0,4.274" /></g><g
             transform="translate(341.1077,354.108)"
             id="g14048"><path
               inkscape:connector-curvature="0"
               id="path14050"
               style="fill:none;stroke:#0686d8;stroke-width:1.5;stroke-linecap:round;stroke-linejoin:miter;stroke-miterlimit:10;stroke-dasharray:none;stroke-opacity:1"
               d="M 0,0 3.022,3.022" /></g><g
             transform="translate(344.13,354.108)"
             id="g14052"><path
               inkscape:connector-curvature="0"
               id="path14054"
               style="fill:none;stroke:#0686d8;stroke-width:1.5;stroke-linecap:round;stroke-linejoin:miter;stroke-miterlimit:10;stroke-dasharray:none;stroke-opacity:1"
               d="M 0,0 -3.022,3.022" /></g><g
             transform="translate(208.5328,333.9051)"
             id="g14056"><path
               inkscape:connector-curvature="0"
               id="path14058"
               style="fill:none;stroke:#0686d8;stroke-width:1.5;stroke-linecap:round;stroke-linejoin:miter;stroke-miterlimit:10;stroke-dasharray:none;stroke-opacity:1"
               d="M 0,0 3.022,3.022" /></g><g
             transform="translate(211.5551,333.9051)"
             id="g14060"><path
               inkscape:connector-curvature="0"
               id="path14062"
               style="fill:none;stroke:#0686d8;stroke-width:1.5;stroke-linecap:round;stroke-linejoin:miter;stroke-miterlimit:10;stroke-dasharray:none;stroke-opacity:1"
               d="M 0,0 -3.022,3.022" /></g><g
             transform="translate(198.0018,346.423)"
             id="g14064"><path
               inkscape:connector-curvature="0"
               id="path14066"
               style="fill:none;stroke:#0686d8;stroke-width:1.5;stroke-linecap:butt;stroke-linejoin:miter;stroke-miterlimit:10;stroke-dasharray:none;stroke-opacity:1"
               d="M 0,0 30.929,0" /></g><g
             transform="translate(216.3477,375.823)"
             id="g14068"><path
               inkscape:connector-curvature="0"
               id="path14070"
               style="fill:none;stroke:#0686d8;stroke-width:1.5;stroke-linecap:butt;stroke-linejoin:miter;stroke-miterlimit:10;stroke-dasharray:none;stroke-opacity:1"
               d="M 0,0 40.796,0" /></g><g
             transform="translate(352.4808,355.428)"
             id="g14072"><path
               inkscape:connector-curvature="0"
               id="path14074"
               style="fill:none;stroke:#0686d8;stroke-width:1.5;stroke-linecap:butt;stroke-linejoin:miter;stroke-miterlimit:10;stroke-dasharray:none;stroke-opacity:1"
               d="M 0,0 21.816,0" /></g><g
             transform="translate(354.8244,331.1207)"
             id="g14076"><path
               inkscape:connector-curvature="0"
               id="path14078"
               style="fill:none;stroke:#0686d8;stroke-width:1.5;stroke-linecap:butt;stroke-linejoin:miter;stroke-miterlimit:10;stroke-dasharray:none;stroke-opacity:1"
               d="M 0,0 16.661,0" /></g><g
             transform="translate(350.4808,355.428)"
             id="g14080"><path
               inkscape:connector-curvature="0"
               id="path14082"
               style="fill:none;stroke:#0686d8;stroke-width:1.5;stroke-linecap:butt;stroke-linejoin:miter;stroke-miterlimit:10;stroke-dasharray:none;stroke-opacity:1"
               d="M 0,0 -3.912,0" /></g><g
             transform="translate(292.466,388.0495)"
             id="g14084"><path
               inkscape:connector-curvature="0"
               id="path14086"
               style="fill:none;stroke:#0686d8;stroke-width:1.5;stroke-linecap:butt;stroke-linejoin:miter;stroke-miterlimit:10;stroke-dasharray:none;stroke-opacity:1"
               d="M 0,0 21.816,0" /></g><g
             transform="translate(290.466,388.0495)"
             id="g14088"><path
               inkscape:connector-curvature="0"
               id="path14090"
               style="fill:none;stroke:#0686d8;stroke-width:1.5;stroke-linecap:butt;stroke-linejoin:miter;stroke-miterlimit:10;stroke-dasharray:none;stroke-opacity:1"
               d="M 0,0 -3.912,0" /></g><g
             transform="translate(356.2126,317.2665)"
             id="g14092"><path
               inkscape:connector-curvature="0"
               id="path14094"
               style="fill:#0686d8;fill-opacity:1;fill-rule:nonzero;stroke:none"
               d="m 0,0 c 0,-0.739 -0.599,-1.338 -1.338,-1.338 -0.74,0 -1.339,0.599 -1.339,1.338 0,0.739 0.599,1.338 1.339,1.338 C -0.599,1.338 0,0.739 0,0" /></g><g
             transform="translate(266.3998,340.8439)"
             id="g14096"><path
               inkscape:connector-curvature="0"
               id="path14098"
               style="fill:#0686d8;fill-opacity:1;fill-rule:nonzero;stroke:none"
               d="m 0,0 c 0,-0.739 -0.599,-1.338 -1.338,-1.338 -0.739,0 -1.339,0.599 -1.339,1.338 0,0.739 0.6,1.338 1.339,1.338 C -0.599,1.338 0,0.739 0,0" /></g><g
             transform="translate(251.4569,388.0494)"
             id="g14100"><path
               inkscape:connector-curvature="0"
               id="path14102"
               style="fill:#0686d8;fill-opacity:1;fill-rule:nonzero;stroke:none"
               d="m 0,0 c 0,-0.739 -0.599,-1.338 -1.338,-1.338 -0.739,0 -1.339,0.599 -1.339,1.338 0,0.739 0.6,1.338 1.339,1.338 C -0.599,1.338 0,0.739 0,0" /></g><g
             transform="translate(347.9068,371.5123)"
             id="g14104"><path
               inkscape:connector-curvature="0"
               id="path14106"
               style="fill:#0686d8;fill-opacity:1;fill-rule:nonzero;stroke:none"
               d="m 0,0 c 0,-0.739 -0.599,-1.338 -1.338,-1.338 -0.739,0 -1.339,0.599 -1.339,1.338 0,0.739 0.6,1.338 1.339,1.338 C -0.599,1.338 0,0.739 0,0" /></g><g
             transform="translate(321.5939,343.642)"
             id="g14108"><path
               inkscape:connector-curvature="0"
               id="path14110"
               style="fill:#0686d8;fill-opacity:1;fill-rule:nonzero;stroke:none"
               d="m 0,0 c 0,-0.471 -0.382,-0.853 -0.853,-0.853 -0.471,0 -0.853,0.382 -0.853,0.853 0,0.471 0.382,0.853 0.853,0.853 C -0.382,0.853 0,0.471 0,0" /></g><g
             transform="translate(229.8035,369.321)"
             id="g14112"><path
               inkscape:connector-curvature="0"
               id="path14114"
               style="fill:#0686d8;fill-opacity:1;fill-rule:nonzero;stroke:none"
               d="m 0,0 c 0,-0.471 -0.382,-0.853 -0.853,-0.853 -0.471,0 -0.853,0.382 -0.853,0.853 0,0.471 0.382,0.853 0.853,0.853 C -0.382,0.853 0,0.471 0,0" /></g><g
             transform="translate(324.3671,379.7442)"
             id="g14116"><path
               inkscape:connector-curvature="0"
               id="path14118"
               style="fill:#0686d8;fill-opacity:1;fill-rule:nonzero;stroke:none"
               d="m 0,0 c 0,-0.471 -0.382,-0.853 -0.853,-0.853 -0.471,0 -0.853,0.382 -0.853,0.853 0,0.471 0.382,0.853 0.853,0.853 C -0.382,0.853 0,0.471 0,0" /></g><g
             transform="translate(221.6896,315.9283)"
             id="g14120"><path
               inkscape:connector-curvature="0"
               id="path14122"
               style="fill:#0686d8;fill-opacity:1;fill-rule:nonzero;stroke:none"
               d="m 0,0 c 0,-0.471 -0.382,-0.853 -0.853,-0.853 -0.471,0 -0.853,0.382 -0.853,0.853 0,0.471 0.382,0.853 0.853,0.853 C -0.382,0.853 0,0.471 0,0" /></g><g
             transform="translate(230.7523,336.5095)"
             id="g14124"><path
               inkscape:connector-curvature="0"
               id="path14126"
               style="fill:none;stroke:#0686d8;stroke-width:1.5;stroke-linecap:butt;stroke-linejoin:miter;stroke-miterlimit:10;stroke-dasharray:none;stroke-opacity:1"
               d="M 0,0 0,-6.123" /></g><g
             transform="translate(233.3419,334.0303)"
             id="g14128"><path
               inkscape:connector-curvature="0"
               id="path14130"
               style="fill:none;stroke:#0686d8;stroke-width:1.5;stroke-linecap:butt;stroke-linejoin:miter;stroke-miterlimit:10;stroke-dasharray:none;stroke-opacity:1"
               d="M 0,0 0,-6.123" /></g><g
             transform="translate(244.8101,293.2075)"
             id="g14132"><path
               inkscape:connector-curvature="0"
               id="path14134"
               style="fill:#5fb0e5;fill-opacity:1;fill-rule:nonzero;stroke:none"
               d="m 0,0 -4.857,0 -4.877,-5.272 4.856,0 L 0,0 Z" /></g><g
             transform="translate(244.8101,293.2075)"
             id="g14136"><path
               inkscape:connector-curvature="0"
               id="path14138"
               style="fill:none;stroke:#0686d8;stroke-width:1.5;stroke-linecap:butt;stroke-linejoin:miter;stroke-miterlimit:10;stroke-dasharray:none;stroke-opacity:1"
               d="m 0,0 -4.857,0 -4.714,-5.096 c -0.063,-0.067 -0.015,-0.176 0.077,-0.176 l 4.57,0 c 0.029,0 0.057,0.012 0.077,0.033 L 0,0 Z" /></g><g
             transform="translate(266.7881,287.9352)"
             id="g14140"><path
               inkscape:connector-curvature="0"
               id="path14142"
               style="fill:#5fb0e5;fill-opacity:1;fill-rule:nonzero;stroke:none"
               d="m 0,0 -4.856,0 -4.878,5.272 4.856,0 L 0,0 Z" /></g><g
             transform="translate(266.5478,287.9352)"
             id="g14144"><path
               inkscape:connector-curvature="0"
               id="path14146"
               style="fill:none;stroke:#0686d8;stroke-width:1.5;stroke-linecap:butt;stroke-linejoin:miter;stroke-miterlimit:10;stroke-dasharray:none;stroke-opacity:1"
               d="m 0,0 -4.57,0 c -0.029,0 -0.057,0.012 -0.077,0.034 l -4.847,5.238 4.856,0 4.715,-5.096 C 0.139,0.109 0.092,0 0,0 Z" /></g><g
             transform="translate(272.8655,308.6726)"
             id="g14148"><path
               inkscape:connector-curvature="0"
               id="path14150"
               style="fill:#ffffff;fill-opacity:1;fill-rule:nonzero;stroke:none"
               d="m 0,0 c 0,-11.453 -9.284,-20.737 -20.737,-20.737 -11.453,0 -20.738,9.284 -20.738,20.737 0,11.453 9.285,20.737 20.738,20.737 C -9.284,20.737 0,11.453 0,0" /></g><g
             transform="translate(266.6184,308.6726)"
             id="g14152"><path
               inkscape:connector-curvature="0"
               id="path14154"
               style="fill:#5fb0e5;fill-opacity:1;fill-rule:nonzero;stroke:none"
               d="m 0,0 c 0,-8.003 -6.488,-14.49 -14.49,-14.49 -8.003,0 -14.491,6.487 -14.491,14.49 0,8.003 6.488,14.49 14.491,14.49 C -6.488,14.49 0,8.003 0,0" /></g><g
             transform="translate(261.3811,308.6726)"
             id="g14156"><path
               inkscape:connector-curvature="0"
               id="path14158"
               style="fill:#ffffff;fill-opacity:1;fill-rule:nonzero;stroke:none"
               d="m 0,0 c 0,-5.11 -4.143,-9.253 -9.253,-9.253 -5.11,0 -9.253,4.143 -9.253,9.253 0,5.11 4.143,9.253 9.253,9.253 C -4.143,9.253 0,5.11 0,0" /></g><g
             transform="translate(256.0082,308.6726)"
             id="g14160"><path
               inkscape:connector-curvature="0"
               id="path14162"
               style="fill:#5fb0e5;fill-opacity:1;fill-rule:nonzero;stroke:none"
               d="m 0,0 c 0,-2.143 -1.737,-3.88 -3.88,-3.88 -2.143,0 -3.88,1.737 -3.88,3.88 0,2.143 1.737,3.88 3.88,3.88 C -1.737,3.88 0,2.143 0,0" /></g><g
             transform="translate(244.1843,320.7874)"
             id="g14164"><path
               inkscape:connector-curvature="0"
               id="path14166"
               style="fill:none;stroke:#0686d8;stroke-width:1.5;stroke-linecap:butt;stroke-linejoin:miter;stroke-miterlimit:10;stroke-dasharray:none;stroke-opacity:1"
               d="m 0,0 c 2.422,1.82 4.681,2.376 7.944,2.376 8.003,0 14.49,-6.488 14.49,-14.491 0,-8.002 -6.487,-14.49 -14.49,-14.49 -8.003,0 -14.491,6.488 -14.491,14.49 0,2.837 0.816,5.484 2.225,7.719" /></g><g
             transform="translate(252.1281,312.5526)"
             id="g14168"><path
               inkscape:connector-curvature="0"
               id="path14170"
               style="fill:none;stroke:#0686d8;stroke-width:1.5;stroke-linecap:butt;stroke-linejoin:miter;stroke-miterlimit:10;stroke-dasharray:none;stroke-opacity:1"
               d="m 0,0 c 2.143,0 3.88,-1.737 3.88,-3.88 0,-2.143 -1.737,-3.88 -3.88,-3.88 -2.143,0 -3.88,1.737 -3.88,3.88" /></g><g
             transform="translate(233.9653,318.6881)"
             id="g14172"><path
               inkscape:connector-curvature="0"
               id="path14174"
               style="fill:none;stroke:#0686d8;stroke-width:1.5;stroke-linecap:butt;stroke-linejoin:miter;stroke-miterlimit:10;stroke-dasharray:none;stroke-opacity:1"
               d="M 0,0 C 0.572,1.035 1.23,2.017 1.965,2.934" /></g><g
             transform="translate(231.4921,310.7371)"
             id="g14176"><path
               inkscape:connector-curvature="0"
               id="path14178"
               style="fill:none;stroke:#0686d8;stroke-width:1.5;stroke-linecap:butt;stroke-linejoin:miter;stroke-miterlimit:10;stroke-dasharray:none;stroke-opacity:1"
               d="M 0,0 C 0.193,1.952 0.657,3.825 1.353,5.58" /></g><g
             transform="translate(265.0615,292.4615)"
             id="g14180"><path
               inkscape:connector-curvature="0"
               id="path14182"
               style="fill:none;stroke:#0686d8;stroke-width:1.5;stroke-linecap:butt;stroke-linejoin:miter;stroke-miterlimit:10;stroke-dasharray:none;stroke-opacity:1"
               d="m 0,0 c -3.546,-2.833 -8.042,-4.526 -12.933,-4.526 -11.453,0 -20.738,9.284 -20.738,20.737" /></g><g
             transform="translate(240.2041,325.6412)"
             id="g14184"><path
               inkscape:connector-curvature="0"
               id="path14186"
               style="fill:none;stroke:#0686d8;stroke-width:1.5;stroke-linecap:butt;stroke-linejoin:miter;stroke-miterlimit:10;stroke-dasharray:none;stroke-opacity:1"
               d="m 0,0 c 3.373,2.374 7.486,3.769 11.924,3.769 9.229,0 17.05,-6.029 19.74,-14.364" /></g><g
             transform="translate(228.9504,332.0708)"
             id="g14188"><path
               inkscape:connector-curvature="0"
               id="path14190"
               style="fill:none;stroke:#0686d8;stroke-width:1.5;stroke-linecap:butt;stroke-linejoin:miter;stroke-miterlimit:10;stroke-dasharray:none;stroke-opacity:1"
               d="M 0,0 23.625,-23.625" /></g><g
             transform="translate(235.9315,331.1207)"
             id="g14192"><path
               inkscape:connector-curvature="0"
               id="path14194"
               style="fill:none;stroke:#0686d8;stroke-width:1.5;stroke-linecap:butt;stroke-linejoin:miter;stroke-miterlimit:10;stroke-dasharray:none;stroke-opacity:1"
               d="M 0,0 0,-6.124" /></g><g
             transform="translate(235.9799,324.9821)"
             id="g14196"><path
               inkscape:connector-curvature="0"
               id="path14198"
               style="fill:none;stroke:#0686d8;stroke-width:1.5;stroke-linecap:butt;stroke-linejoin:miter;stroke-miterlimit:10;stroke-dasharray:none;stroke-opacity:1"
               d="M 0,0 -6.123,0" /></g><g
             transform="translate(233.3299,327.4853)"
             id="g14200"><path
               inkscape:connector-curvature="0"
               id="path14202"
               style="fill:none;stroke:#0686d8;stroke-width:1.5;stroke-linecap:butt;stroke-linejoin:miter;stroke-miterlimit:10;stroke-dasharray:none;stroke-opacity:1"
               d="M 0,0 -6.123,0" /></g><g
             transform="translate(230.6797,329.9887)"
             id="g14204"><path
               inkscape:connector-curvature="0"
               id="path14206"
               style="fill:none;stroke:#0686d8;stroke-width:1.5;stroke-linecap:butt;stroke-linejoin:miter;stroke-miterlimit:10;stroke-dasharray:none;stroke-opacity:1"
               d="M 0,0 -6.123,0" /></g><g
             transform="translate(306.1522,287.9352)"
             id="g14208"><path
               inkscape:connector-curvature="0"
               id="path14210"
               style="fill:#ffffff;fill-opacity:1;fill-rule:nonzero;stroke:none"
               d="m 0,0 34.77,0 0,40.275 c 0,1.228 -0.995,2.224 -2.224,2.224 l -30.322,0 C 0.996,42.499 0,41.503 0,40.275 L 0,0 Z" /></g><g
             transform="translate(321.4101,330.4344)"
             id="g14212"><path
               inkscape:connector-curvature="0"
               id="path14214"
               style="fill:none;stroke:#0686d8;stroke-width:1.5;stroke-linecap:butt;stroke-linejoin:miter;stroke-miterlimit:10;stroke-dasharray:none;stroke-opacity:1"
               d="m 0,0 -9.279,0 -2.952,0 c -1.672,0 -3.027,-1.355 -3.027,-3.027 l 0,-12.362" /></g><g
             transform="translate(340.9224,287.9352)"
             id="g14216"><path
               inkscape:connector-curvature="0"
               id="path14218"
               style="fill:none;stroke:#0686d8;stroke-width:1.5;stroke-linecap:butt;stroke-linejoin:miter;stroke-miterlimit:10;stroke-dasharray:none;stroke-opacity:1"
               d="M 0,0 0,21.483" /></g><path
             inkscape:connector-curvature="0"
             id="path14220"
             style="fill:#d2e9f7;fill-opacity:1;fill-rule:nonzero;stroke:none"
             d="m 338.051,324.054 -29.027,0 0,-36.119 29.027,0 0,36.119 z" /><g
             transform="translate(319.8491,326.6299)"
             id="g14222"><path
               inkscape:connector-curvature="0"
               id="path14224"
               style="fill:none;stroke:#0686d8;stroke-width:1.5;stroke-linecap:butt;stroke-linejoin:miter;stroke-miterlimit:10;stroke-dasharray:none;stroke-opacity:1"
               d="M 0,0 1.722,0" /></g><g
             transform="translate(337.8111,309.4183)"
             id="g14226"><path
               inkscape:connector-curvature="0"
               id="path14228"
               style="fill:#ffffff;fill-opacity:1;fill-rule:nonzero;stroke:none"
               d="m 0,0 4.021,5.845 c 1.687,0.644 3.271,1.635 4.63,2.995 5.167,5.167 5.167,13.544 0,18.711 -5.167,5.166 -13.544,5.166 -18.711,0 -5.167,-5.167 -5.167,-13.544 0,-18.711 1.825,-1.825 4.052,-2.991 6.394,-3.527 L 0,0 Z" /></g><g
             transform="translate(337.8111,309.4183)"
             id="g14230"><path
               inkscape:connector-curvature="0"
               id="path14232"
               style="fill:none;stroke:#0686d8;stroke-width:1.5;stroke-linecap:butt;stroke-linejoin:miter;stroke-miterlimit:10;stroke-dasharray:none;stroke-opacity:1"
               d="m 0,0 4.021,5.845 c 1.687,0.644 3.271,1.635 4.63,2.995 5.167,5.167 5.167,13.544 0,18.711 -5.167,5.166 -13.544,5.166 -18.711,0 -5.167,-5.167 -5.167,-13.544 0,-18.711 1.825,-1.825 4.052,-2.991 6.394,-3.527 L 0,0 Z" /></g><g
             transform="translate(308.9794,298.1305)"
             id="g14234"><path
               inkscape:connector-curvature="0"
               id="path14236"
               style="fill:#5fb0e5;fill-opacity:1;fill-rule:nonzero;stroke:none"
               d="m 0,0 0,-9.714 6.277,0.016 0,14.955 L 0,0 Z" /></g><g
             transform="translate(320.7373,300.9739)"
             id="g14238"><path
               inkscape:connector-curvature="0"
               id="path14240"
               style="fill:#5fb0e5;fill-opacity:1;fill-rule:nonzero;stroke:none"
               d="m 0,0 -0.017,0.008 0,-12.536 7.204,0.018 0,17.872 L 0,0 Z" /></g><g
             transform="translate(315.3043,303.4274)"
             id="g14242"><path
               inkscape:connector-curvature="0"
               id="path14244"
               style="fill:#9ecfef;fill-opacity:1;fill-rule:nonzero;stroke:none"
               d="m 0,0 -0.048,-0.04 0,-14.955 5.464,0.014 0,12.535 L 0,0 Z" /></g><g
             transform="translate(338.0486,308.686)"
             id="g14246"><path
               inkscape:connector-curvature="0"
               id="path14248"
               style="fill:#5fb0e5;fill-opacity:1;fill-rule:nonzero;stroke:none"
               d="m 0,0 -5.653,-4.868 0,-15.343 L 0,-20.196 0,0 Z" /></g><g
             transform="translate(332.3951,303.8173)"
             id="g14250"><path
               inkscape:connector-curvature="0"
               id="path14252"
               style="fill:#9ecfef;fill-opacity:1;fill-rule:nonzero;stroke:none"
               d="m 0,0 -4.47,2.519 0,-17.872 L 0,-15.342 0,0 Z" /></g><g
             transform="translate(338.0486,308.3603)"
             id="g14254"><path
               inkscape:connector-curvature="0"
               id="path14256"
               style="fill:none;stroke:#0686d8;stroke-width:1.5;stroke-linecap:butt;stroke-linejoin:miter;stroke-miterlimit:10;stroke-dasharray:none;stroke-opacity:1"
               d="m 0,0 -0.383,-0.004 -5.27,-4.539 -4.471,2.519 -7.204,-5.355 -5.464,2.406 -5.663,-4.817 -0.614,0" /></g><g
             transform="translate(341.5363,332.5865)"
             id="g14258"><path
               inkscape:connector-curvature="0"
               id="path14260"
               style="fill:none;stroke:#0686d8;stroke-width:1.5;stroke-linecap:butt;stroke-linejoin:miter;stroke-miterlimit:10;stroke-dasharray:none;stroke-opacity:1"
               d="m 0,0 -5.949,0 c -1.256,0 -2.274,-1.018 -2.274,-2.274 0,-1.256 1.018,-2.275 2.274,-2.275 l 2.45,0 c 1.256,0 2.274,-1.018 2.274,-2.274 0,-1.256 -1.018,-2.275 -2.274,-2.275 l -6.124,0" /></g><g
             transform="translate(336.7249,336.3478)"
             id="g14262"><path
               inkscape:connector-curvature="0"
               id="path14264"
               style="fill:none;stroke:#0686d8;stroke-width:1.5;stroke-linecap:butt;stroke-linejoin:miter;stroke-miterlimit:10;stroke-dasharray:none;stroke-opacity:1"
               d="M 0,0 0,-16.62" /></g><path
             inkscape:connector-curvature="0"
             id="path14266"
             style="fill:#ffffff;fill-opacity:1;fill-rule:nonzero;stroke:none"
             d="m 306.403,287.935 -37.875,0 0,22.642 37.875,0 0,-22.642 z" /><g
             transform="translate(268.5285,287.9352)"
             id="g14268"><path
               inkscape:connector-curvature="0"
               id="path14270"
               style="fill:none;stroke:#0686d8;stroke-width:1.5;stroke-linecap:butt;stroke-linejoin:miter;stroke-miterlimit:10;stroke-dasharray:none;stroke-opacity:1"
               d="m 0,0 0,22.642 37.875,0 0,-22.642" /></g><g
             transform="translate(270.6567,351.398)"
             id="g14272"><path
               inkscape:connector-curvature="0"
               id="path14274"
               style="fill:none;stroke:#0686d8;stroke-width:1.5;stroke-linecap:butt;stroke-linejoin:miter;stroke-miterlimit:10;stroke-dasharray:none;stroke-opacity:1"
               d="m 0,0 c -18.715,4.491 -16.152,18.776 -16.152,18.776 l 12.268,0" /></g><g
             transform="translate(305.4053,351.398)"
             id="g14276"><path
               inkscape:connector-curvature="0"
               id="path14278"
               style="fill:none;stroke:#0686d8;stroke-width:1.5;stroke-linecap:butt;stroke-linejoin:miter;stroke-miterlimit:10;stroke-dasharray:none;stroke-opacity:1"
               d="m 0,0 c 18.715,4.491 16.152,18.776 16.152,18.776 l -12.268,0" /></g><g
             transform="translate(309.4534,367.0071)"
             id="g14280"><path
               inkscape:connector-curvature="0"
               id="path14282"
               style="fill:#9ecfef;fill-opacity:1;fill-rule:nonzero;stroke:none"
               d="m 0,0 c 0,3.109 -0.515,6.073 -1.415,8.816 l -40.065,0 C -42.38,6.073 -42.895,3.109 -42.895,0 c 0,-12.76 8.304,-25.532 18.99,-27.266 l 0,-17.072 4.915,0 0,17.072 C -8.304,-25.532 0,-12.76 0,0" /></g><g
             transform="translate(286.7231,339.7541)"
             id="g14284"><path
               inkscape:connector-curvature="0"
               id="path14286"
               style="fill:#ffffff;fill-opacity:1;fill-rule:nonzero;stroke:none"
               d="m 0,0 c -9.921,2.659 -12.129,15.124 -12.129,27.253 0,3.109 0.515,6.073 1.415,8.816 l -4.821,0 c -0.9,-2.743 -1.415,-5.707 -1.415,-8.816 0,-12.76 5.089,-25.532 15.775,-27.266 0,0 0.659,-0.125 1.175,0.013" /></g><g
             transform="translate(282.1729,375.823)"
             id="g14288"><path
               inkscape:connector-curvature="0"
               id="path14290"
               style="fill:none;stroke:#0686d8;stroke-width:1.5;stroke-linecap:butt;stroke-linejoin:miter;stroke-miterlimit:10;stroke-dasharray:none;stroke-opacity:1"
               d="M 0,0 -3.926,0" /></g><g
             transform="translate(274.6173,375.823)"
             id="g14292"><path
               inkscape:connector-curvature="0"
               id="path14294"
               style="fill:none;stroke:#0686d8;stroke-width:1.5;stroke-linecap:butt;stroke-linejoin:miter;stroke-miterlimit:10;stroke-dasharray:none;stroke-opacity:1"
               d="m 0,0 -6.644,0 c -0.9,-2.743 -1.415,-5.707 -1.415,-8.816 0,-12.76 8.304,-25.532 18.99,-27.266 l 0,-17.072 4.915,0 0,17.072 c 10.686,1.734 18.99,14.506 18.99,27.266 0,3.109 -0.514,6.073 -1.415,8.816 l -23.39,0" /></g><g
             transform="translate(283.0771,334.3664)"
             id="g14296"><path
               inkscape:connector-curvature="0"
               id="path14298"
               style="fill:none;stroke:#0686d8;stroke-width:1.5;stroke-linecap:butt;stroke-linejoin:miter;stroke-miterlimit:10;stroke-dasharray:none;stroke-opacity:1"
               d="M 0,0 10.118,0" /></g><g
             transform="translate(283.0771,330.6065)"
             id="g14300"><path
               inkscape:connector-curvature="0"
               id="path14302"
               style="fill:none;stroke:#0686d8;stroke-width:1.5;stroke-linecap:butt;stroke-linejoin:miter;stroke-miterlimit:10;stroke-dasharray:none;stroke-opacity:1"
               d="M 0,0 10.118,0" /></g><g
             transform="translate(300.418,313.3971)"
             id="g14304"><path
               inkscape:connector-curvature="0"
               id="path14306"
               style="fill:#5fb0e5;fill-opacity:1;fill-rule:nonzero;stroke:none"
               d="m 0,0 -25.041,0 0,10.046 c 0,0.601 0.488,1.089 1.089,1.089 l 22.864,0 C -0.487,11.135 0,10.647 0,10.046 L 0,0 Z" /></g><g
             transform="translate(300.418,313.3971)"
             id="g14308"><path
               inkscape:connector-curvature="0"
               id="path14310"
               style="fill:none;stroke:#0686d8;stroke-width:1.5;stroke-linecap:butt;stroke-linejoin:miter;stroke-miterlimit:10;stroke-dasharray:none;stroke-opacity:1"
               d="m 0,0 -25.041,0 0,10.046 c 0,0.601 0.488,1.089 1.089,1.089 l 22.864,0 C -0.487,11.135 0,10.647 0,10.046 L 0,0 Z" /></g><path
             inkscape:connector-curvature="0"
             id="path14312"
             style="fill:#ffffff;fill-opacity:1;fill-rule:nonzero;stroke:none"
             d="m 294.616,317.267 -13.436,0 0,5.36 13.436,0 0,-5.36 z" /><g
             transform="translate(284.649,319.9464)"
             id="g14314"><path
               inkscape:connector-curvature="0"
               id="path14316"
               style="fill:none;stroke:#0686d8;stroke-width:1.5;stroke-linecap:butt;stroke-linejoin:miter;stroke-miterlimit:10;stroke-dasharray:none;stroke-opacity:1"
               d="M 0,0 6.316,0" /></g><path
             inkscape:connector-curvature="0"
             id="path14318"
             style="fill:#9ecfef;fill-opacity:1;fill-rule:nonzero;stroke:#0686d8;stroke-width:1.5;stroke-linecap:butt;stroke-linejoin:miter;stroke-miterlimit:10;stroke-dasharray:none;stroke-opacity:1"
             d="m 304.657,313.397 -34,0 0,-2.685 34,0 0,2.685 z" /><g
             transform="translate(258.3827,310.5769)"
             id="g14320"><path
               inkscape:connector-curvature="0"
               id="path14322"
               style="fill:none;stroke:#0686d8;stroke-width:1.5;stroke-linecap:butt;stroke-linejoin:miter;stroke-miterlimit:10;stroke-dasharray:none;stroke-opacity:1"
               d="M 0,0 58.691,0" /></g><g
             transform="translate(273.9407,303.3253)"
             id="g14324"><path
               inkscape:connector-curvature="0"
               id="path14326"
               style="fill:#9ecfef;fill-opacity:1;fill-rule:nonzero;stroke:none"
               d="m 0,0 c 0,-2.989 -2.423,-5.412 -5.412,-5.412 -2.989,0 -5.412,2.423 -5.412,5.412 0,2.989 2.423,5.412 5.412,5.412 C -2.423,5.412 0,2.989 0,0" /></g><g
             transform="translate(311.8153,303.3253)"
             id="g14328"><path
               inkscape:connector-curvature="0"
               id="path14330"
               style="fill:#9ecfef;fill-opacity:1;fill-rule:nonzero;stroke:none"
               d="m 0,0 c 0,-2.989 -2.423,-5.412 -5.412,-5.412 -2.989,0 -5.412,2.423 -5.412,5.412 0,2.989 2.423,5.412 5.412,5.412 C -2.423,5.412 0,2.989 0,0" /></g><g
             transform="translate(273.9407,303.3253)"
             id="g14332"><path
               inkscape:connector-curvature="0"
               id="path14334"
               style="fill:none;stroke:#0686d8;stroke-width:1.5;stroke-linecap:butt;stroke-linejoin:miter;stroke-miterlimit:10;stroke-dasharray:none;stroke-opacity:1"
               d="m 0,0 c 0,-2.989 -2.423,-5.412 -5.412,-5.412 -2.989,0 -5.412,2.423 -5.412,5.412 0,2.989 2.423,5.412 5.412,5.412 C -2.423,5.412 0,2.989 0,0 Z" /></g><g
             transform="translate(311.8153,303.3253)"
             id="g14336"><path
               inkscape:connector-curvature="0"
               id="path14338"
               style="fill:none;stroke:#0686d8;stroke-width:1.5;stroke-linecap:butt;stroke-linejoin:miter;stroke-miterlimit:10;stroke-dasharray:none;stroke-opacity:1"
               d="m 0,0 c 0,-2.989 -2.423,-5.412 -5.412,-5.412 -2.989,0 -5.412,2.423 -5.412,5.412 0,2.989 2.423,5.412 5.412,5.412 C -2.423,5.412 0,2.989 0,0 Z" /></g><g
             transform="translate(267.2915,303.3253)"
             id="g14340"><path
               inkscape:connector-curvature="0"
               id="path14342"
               style="fill:none;stroke:#0686d8;stroke-width:1.5;stroke-linecap:butt;stroke-linejoin:miter;stroke-miterlimit:10;stroke-dasharray:none;stroke-opacity:1"
               d="M 0,0 2.474,0" /></g><g
             transform="translate(305.1662,303.3253)"
             id="g14344"><path
               inkscape:connector-curvature="0"
               id="path14346"
               style="fill:none;stroke:#0686d8;stroke-width:1.5;stroke-linecap:butt;stroke-linejoin:miter;stroke-miterlimit:10;stroke-dasharray:none;stroke-opacity:1"
               d="M 0,0 2.474,0" /></g><g
             transform="translate(280.7042,301.6457)"
             id="g14348"><path
               inkscape:connector-curvature="0"
               id="path14350"
               style="fill:none;stroke:#0686d8;stroke-width:1.5;stroke-linecap:butt;stroke-linejoin:miter;stroke-miterlimit:10;stroke-dasharray:none;stroke-opacity:1"
               d="M 0,0 0,-13.711" /></g><g
             transform="translate(287.4659,301.6457)"
             id="g14352"><path
               inkscape:connector-curvature="0"
               id="path14354"
               style="fill:none;stroke:#0686d8;stroke-width:1.5;stroke-linecap:butt;stroke-linejoin:miter;stroke-miterlimit:10;stroke-dasharray:none;stroke-opacity:1"
               d="M 0,0 0,-13.711" /></g><g
             transform="translate(294.2273,301.6457)"
             id="g14356"><path
               inkscape:connector-curvature="0"
               id="path14358"
               style="fill:none;stroke:#0686d8;stroke-width:1.5;stroke-linecap:butt;stroke-linejoin:miter;stroke-miterlimit:10;stroke-dasharray:none;stroke-opacity:1"
               d="M 0,0 0,-13.711" /></g><g
             transform="translate(203.6941,287.9352)"
             id="g14360"><path
               inkscape:connector-curvature="0"
               id="path14362"
               style="fill:none;stroke:#0686d8;stroke-width:1.5;stroke-linecap:butt;stroke-linejoin:miter;stroke-miterlimit:10;stroke-dasharray:none;stroke-opacity:1"
               d="M 0,0 2.739,0" /></g><g
             transform="translate(373.6408,287.9352)"
             id="g14364"><path
               inkscape:connector-curvature="0"
               id="path14366"
               style="fill:none;stroke:#0686d8;stroke-width:1.5;stroke-linecap:butt;stroke-linejoin:miter;stroke-miterlimit:10;stroke-dasharray:none;stroke-opacity:1"
               d="M 0,0 6.049,0" /></g><g
             transform="translate(208.2565,287.9352)"
             id="g14368"><path
               inkscape:connector-curvature="0"
               id="path14370"
               style="fill:none;stroke:#0686d8;stroke-width:1.5;stroke-linecap:butt;stroke-linejoin:miter;stroke-miterlimit:10;stroke-dasharray:none;stroke-opacity:1"
               d="M 0,0 163.822,0" /></g></g></g></g></g></svg>