<?xml version="1.0" encoding="UTF-8" standalone="no"?>
<!-- Created with Inkscape (http://www.inkscape.org/) -->

<svg
   xmlns:dc="http://purl.org/dc/elements/1.1/"
   xmlns:cc="http://creativecommons.org/ns#"
   xmlns:rdf="http://www.w3.org/1999/02/22-rdf-syntax-ns#"
   xmlns:svg="http://www.w3.org/2000/svg"
   xmlns="http://www.w3.org/2000/svg"
   xmlns:sodipodi="http://sodipodi.sourceforge.net/DTD/sodipodi-0.dtd"
   xmlns:inkscape="http://www.inkscape.org/namespaces/inkscape"
   id="svg2"
   version="1.1"
   inkscape:version="0.91 r13725"
   xml:space="preserve"
   width="625"
   height="625"
   viewBox="0 0 625 625"
   sodipodi:docname="tweak.svg"><metadata
     id="metadata8"><rdf:RDF><cc:Work
         rdf:about=""><dc:format>image/svg+xml</dc:format><dc:type
           rdf:resource="http://purl.org/dc/dcmitype/StillImage" /><dc:title></dc:title></cc:Work></rdf:RDF></metadata><defs
     id="defs6"><clipPath
       clipPathUnits="userSpaceOnUse"
       id="clipPath28"><path
         d="M 0,500 500,500 500,0 0,0 0,500 Z"
         id="path30"
         inkscape:connector-curvature="0" /></clipPath><clipPath
       clipPathUnits="userSpaceOnUse"
       id="clipPath318"><path
         d="m 95.2151,382.415 55.2939,0 0,-36.209 -55.2939,0 0,36.209 z"
         id="path320"
         inkscape:connector-curvature="0" /></clipPath><clipPath
       clipPathUnits="userSpaceOnUse"
       id="clipPath406"><path
         d="M 0,500 500,500 500,0 0,0 0,500 Z"
         id="path408"
         inkscape:connector-curvature="0" /></clipPath><clipPath
       clipPathUnits="userSpaceOnUse"
       id="clipPath584"><path
         d="m 84.4297,149.511 36.3533,0 0,-68.2346 -36.3533,0 0,68.2346 z"
         id="path586"
         inkscape:connector-curvature="0" /></clipPath><clipPath
       clipPathUnits="userSpaceOnUse"
       id="clipPath600"><path
         d="m 133.958,157.209 34.147,0 0,-75.3419 -34.147,0 0,75.3419 z"
         id="path602"
         inkscape:connector-curvature="0" /></clipPath><clipPath
       clipPathUnits="userSpaceOnUse"
       id="clipPath662"><path
         d="m 148.184,111.618 41.577,0 0,-30.3416 -41.577,0 0,30.3416 z"
         id="path664"
         inkscape:connector-curvature="0" /></clipPath><clipPath
       clipPathUnits="userSpaceOnUse"
       id="clipPath720"><path
         d="M 0,500 500,500 500,0 0,0 0,500 Z"
         id="path722"
         inkscape:connector-curvature="0" /></clipPath><clipPath
       clipPathUnits="userSpaceOnUse"
       id="clipPath1122"><path
         d="m 328.608,116.39 28.662,0 0,-33.6133 -28.662,0 0,33.6133 z"
         id="path1124"
         inkscape:connector-curvature="0" /></clipPath><clipPath
       clipPathUnits="userSpaceOnUse"
       id="clipPath1142"><path
         d="m 381.774,117.196 32.481,0 0,-34.6794 -32.481,0 0,34.6794 z"
         id="path1144"
         inkscape:connector-curvature="0" /></clipPath><clipPath
       clipPathUnits="userSpaceOnUse"
       id="clipPath1212"><path
         d="M 0,500 500,500 500,0 0,0 0,500 Z"
         id="path1214"
         inkscape:connector-curvature="0" /></clipPath></defs><sodipodi:namedview
     pagecolor="#ffffff"
     bordercolor="#666666"
     borderopacity="1"
     objecttolerance="10"
     gridtolerance="10"
     guidetolerance="10"
     inkscape:pageopacity="0"
     inkscape:pageshadow="2"
     inkscape:window-width="1920"
     inkscape:window-height="1027"
     id="namedview4"
     showgrid="false"
     inkscape:zoom="0.7552"
     inkscape:cx="324.35083"
     inkscape:cy="248.47303"
     inkscape:window-x="0"
     inkscape:window-y="0"
     inkscape:window-maximized="1"
     inkscape:current-layer="g10" /><g
     id="g10"
     inkscape:groupmode="layer"
     inkscape:label="Flat line Designed Concepts 9 "
     transform="matrix(1.25,0,0,-1.25,0,625)"><g
       id="g24"
       transform="translate(128,-123.2)"><g
         id="g26"
         clip-path="url(#clipPath28)" /></g><g
       transform="matrix(2.6245126,0,0,2.3629793,-68.869515,-669.67378)"
       id="g4932"><g
         transform="translate(29.2543,416.9452)"
         id="g32" /><g
         transform="translate(169.7364,348.6249)"
         id="g36"><path
           inkscape:connector-curvature="0"
           id="path38"
           style="fill:#ffffff;fill-opacity:1;fill-rule:nonzero;stroke:none"
           d="m 0,0 -7.075,0 c -0.291,0 -0.527,-0.236 -0.527,-0.527 l 0,-2.107 c 0,-0.291 0.236,-0.527 0.527,-0.527 l 1.166,0 0,-4.345 0,-9.811 c 0,-1.289 1.045,-2.334 2.334,-2.334 1.282,0 2.324,1.034 2.334,2.316 l 0.074,9.829 0,4.345 1.167,0 c 0.291,0 0.527,0.236 0.527,0.527 l 0,2.107 C 0.527,-0.236 0.291,0 0,0" /></g><g
         transform="translate(163.8277,337.951)"
         id="g40"><path
           inkscape:connector-curvature="0"
           id="path42"
           style="fill:#d2e9f7;fill-opacity:1;fill-rule:nonzero;stroke:none"
           d="m 0,0 0,-6.643 c 0,-1.289 1.045,-2.334 2.334,-2.334 1.282,0 2.324,1.034 2.334,2.316 L 4.742,0 0,0 Z" /></g><g
         transform="translate(181.5745,348.6249)"
         id="g44"><path
           inkscape:connector-curvature="0"
           id="path46"
           style="fill:#ffffff;fill-opacity:1;fill-rule:nonzero;stroke:none"
           d="m 0,0 -7.075,0 c -0.291,0 -0.527,-0.236 -0.527,-0.527 l 0,-2.107 c 0,-0.291 0.236,-0.527 0.527,-0.527 l 1.167,0 0,-4.345 0,-9.811 c 0,-1.289 1.044,-2.334 2.333,-2.334 1.282,0 2.324,1.034 2.334,2.316 l 0.074,9.829 0,4.345 1.167,0 c 0.291,0 0.527,0.236 0.527,0.527 l 0,2.107 C 0.527,-0.236 0.291,0 0,0" /></g><g
         transform="translate(175.666,341.1189)"
         id="g48"><path
           inkscape:connector-curvature="0"
           id="path50"
           style="fill:#5fb0e5;fill-opacity:1;fill-rule:nonzero;stroke:none"
           d="m 0,0 0,-9.811 c 0,-1.289 1.045,-2.334 2.334,-2.334 1.282,0 2.324,1.034 2.333,2.316 L 4.742,0 0,0 Z" /></g><g
         transform="translate(187.504,335.4167)"
         id="g52"><path
           inkscape:connector-curvature="0"
           id="path54"
           style="fill:#d2e9f7;fill-opacity:1;fill-rule:nonzero;stroke:none"
           d="m 0,0 0,-4.109 c 0,-1.289 1.045,-2.334 2.334,-2.334 1.282,0 2.324,1.035 2.334,2.317 L 4.742,0 0,0 Z" /></g><g
         transform="translate(187.5096,335.3403)"
         id="g56"><path
           inkscape:connector-curvature="0"
           id="path58"
           style="fill:none;stroke:#0686d8;stroke-width:1.5;stroke-linecap:butt;stroke-linejoin:miter;stroke-miterlimit:10;stroke-dasharray:none;stroke-opacity:1"
           d="M 0,0 4.731,0" /></g><g
         transform="translate(160.2787,356.0336)"
         id="g60"><path
           inkscape:connector-curvature="0"
           id="path62"
           style="fill:none;stroke:#0686d8;stroke-width:1.5;stroke-linecap:butt;stroke-linejoin:miter;stroke-miterlimit:10;stroke-dasharray:none;stroke-opacity:1"
           d="m 0,0 0,0 c 3.27,0 5.92,-2.65 5.92,-5.92 l 0,-12.321" /></g><g
         transform="translate(166.1006,350.1156)"
         id="g64"><path
           inkscape:connector-curvature="0"
           id="path66"
           style="fill:none;stroke:#0686d8;stroke-width:1.5;stroke-linecap:butt;stroke-linejoin:miter;stroke-miterlimit:10;stroke-dasharray:none;stroke-opacity:1"
           d="m 0,0 c 0.001,3.269 2.651,5.918 5.92,5.918 3.27,0 5.92,-2.65 5.92,-5.92" /></g><g
         transform="translate(177.839,341.5001)"
         id="g68"><path
           inkscape:connector-curvature="0"
           id="path70"
           style="fill:none;stroke:#0686d8;stroke-width:1.5;stroke-linecap:butt;stroke-linejoin:miter;stroke-miterlimit:10;stroke-dasharray:none;stroke-opacity:1"
           d="m 0,0 0.004,8.616 c 0.001,3.268 2.651,5.918 5.92,5.918 3.269,0 5.92,-2.651 5.92,-5.921 l 0,-14.127" /></g><g
         transform="translate(165.5338,345.4634)"
         id="g72"><path
           inkscape:connector-curvature="0"
           id="path74"
           style="fill:none;stroke:#0686d8;stroke-width:1.5;stroke-linecap:butt;stroke-linejoin:miter;stroke-miterlimit:10;stroke-dasharray:none;stroke-opacity:1"
           d="M 0,0 -2.873,0 C -3.164,0 -3.4,0.236 -3.4,0.527 l 0,2.108 c 0,0.29 0.236,0.526 0.527,0.526 l 7.076,0 c 0.29,0 0.526,-0.236 0.526,-0.526 l 0,-2.108 C 4.729,0.236 4.493,0 4.203,0 l -1.167,0 0,-4.345 -0.074,-9.828 c -0.01,-1.282 -1.052,-2.316 -2.334,-2.316 -1.289,0 -2.334,1.045 -2.334,2.334 l 0,9.81 0,4.345" /></g><g
         transform="translate(177.3718,345.4634)"
         id="g76"><path
           inkscape:connector-curvature="0"
           id="path78"
           style="fill:none;stroke:#0686d8;stroke-width:1.5;stroke-linecap:butt;stroke-linejoin:miter;stroke-miterlimit:10;stroke-dasharray:none;stroke-opacity:1"
           d="m 0,0 -2.872,0 c -0.292,0 -0.527,0.236 -0.527,0.527 l 0,2.108 c 0,0.29 0.235,0.526 0.527,0.526 l 7.075,0 c 0.291,0 0.527,-0.236 0.527,-0.526 l 0,-2.108 C 4.73,0.236 4.494,0 4.203,0 l -1.167,0 0,-4.345 -0.074,-9.828 c -0.01,-1.282 -1.052,-2.316 -2.334,-2.316 -1.289,0 -2.334,1.045 -2.334,2.334 l 0,9.81 0,4.345" /></g><g
         transform="translate(189.2099,345.4634)"
         id="g80"><path
           inkscape:connector-curvature="0"
           id="path82"
           style="fill:none;stroke:#0686d8;stroke-width:1.5;stroke-linecap:butt;stroke-linejoin:miter;stroke-miterlimit:10;stroke-dasharray:none;stroke-opacity:1"
           d="m 0,0 -2.873,0 c -0.291,0 -0.526,0.236 -0.526,0.527 l 0,2.108 c 0,0.29 0.235,0.526 0.526,0.526 l 7.076,0 c 0.291,0 0.527,-0.236 0.527,-0.526 l 0,-2.108 C 4.73,0.236 4.494,0 4.203,0 l -1.167,0 0,-4.345 -0.074,-9.828 c -0.01,-1.282 -1.052,-2.316 -2.334,-2.316 -1.289,0 -2.334,1.045 -2.334,2.334 l 0,9.81 0,4.345" /></g><g
         transform="translate(163.8334,337.4662)"
         id="g84"><path
           inkscape:connector-curvature="0"
           id="path86"
           style="fill:none;stroke:#0686d8;stroke-width:1.5;stroke-linecap:butt;stroke-linejoin:miter;stroke-miterlimit:10;stroke-dasharray:none;stroke-opacity:1"
           d="M 0,0 4.731,0" /></g><g
         transform="translate(175.6715,341.0607)"
         id="g88"><path
           inkscape:connector-curvature="0"
           id="path90"
           style="fill:none;stroke:#0686d8;stroke-width:1.5;stroke-linecap:butt;stroke-linejoin:miter;stroke-miterlimit:10;stroke-dasharray:none;stroke-opacity:1"
           d="M 0,0 4.731,0" /></g><g
         transform="translate(147.6,336.9579)"
         id="g92"><path
           inkscape:connector-curvature="0"
           id="path94"
           style="fill:none;stroke:#0686d8;stroke-width:1.5;stroke-linecap:butt;stroke-linejoin:miter;stroke-miterlimit:10;stroke-dasharray:none;stroke-opacity:1"
           d="m 0,0 0,-8.76 48.648,0 0,14.82 -35.342,0" /></g><g
         transform="translate(156.8083,331.055)"
         id="g96"><path
           inkscape:connector-curvature="0"
           id="path98"
           style="fill:#5fb0e5;fill-opacity:1;fill-rule:nonzero;stroke:none"
           d="m 0,0 -69.591,0 c -0.55,0 -1,0.45 -1,1 l 0,49.458 c 0,0.55 0.45,1 1,1 l 69.591,0 c 0.55,0 1,-0.45 1,-1 L 1,1 C 1,0.45 0.55,0 0,0" /></g><g
         transform="translate(90.4545,382.5132)"
         id="g100"><path
           inkscape:connector-curvature="0"
           id="path102"
           style="fill:none;stroke:#0686d8;stroke-width:1.5;stroke-linecap:butt;stroke-linejoin:miter;stroke-miterlimit:10;stroke-dasharray:none;stroke-opacity:1"
           d="M 0,0 6.009,0" /></g><g
         transform="translate(149.1854,382.5132)"
         id="g104"><path
           inkscape:connector-curvature="0"
           id="path106"
           style="fill:none;stroke:#0686d8;stroke-width:1.5;stroke-linecap:butt;stroke-linejoin:miter;stroke-miterlimit:10;stroke-dasharray:none;stroke-opacity:1"
           d="m 0,0 6.844,0 c 0.978,0 1.779,-0.8 1.779,-1.779 l 0,-47.9 c 0,-0.979 -0.801,-1.779 -1.779,-1.779 l -68.033,0 c -0.978,0 -1.779,0.8 -1.779,1.779 l 0,27.753" /></g><path
         inkscape:connector-curvature="0"
         id="path108"
         style="fill:#ffffff;fill-opacity:1;fill-rule:nonzero;stroke:none"
         d="m 153.943,336.706 -64.249,0 0,41.758 64.249,0 0,-41.758 z" /><g
         transform="translate(156.5574,328.1978)"
         id="g110"><path
           inkscape:connector-curvature="0"
           id="path112"
           style="fill:#ffffff;fill-opacity:1;fill-rule:nonzero;stroke:none"
           d="m 0,0 -69.878,0 c -1.678,0 -3.108,1.215 -3.38,2.871 l -0.498,3.036 32.388,0 1.239,-1.779 8.949,0 1.34,1.779 34.118,0 L 3.845,3.266 C 3.536,1.382 1.909,0 0,0" /></g><g
         transform="translate(156.5574,328.1978)"
         id="g114"><path
           inkscape:connector-curvature="0"
           id="path116"
           style="fill:none;stroke:#0686d8;stroke-width:1.5;stroke-linecap:butt;stroke-linejoin:miter;stroke-miterlimit:10;stroke-dasharray:none;stroke-opacity:1"
           d="m 0,0 -69.878,0 c -1.678,0 -3.108,1.215 -3.38,2.871 l -0.498,3.036 32.388,0 1.239,-1.779 8.949,0 1.34,1.779 34.118,0 L 3.845,3.266 C 3.536,1.382 1.909,0 0,0 Z" /></g><g
         transform="translate(67.8229,411.3951)"
         id="g118"><path
           inkscape:connector-curvature="0"
           id="path120"
           style="fill:none;stroke:#0686d8;stroke-width:1.5;stroke-linecap:round;stroke-linejoin:miter;stroke-miterlimit:10;stroke-dasharray:none;stroke-opacity:1"
           d="M 0,0 4.274,0" /></g><g
         transform="translate(69.96,409.2581)"
         id="g122"><path
           inkscape:connector-curvature="0"
           id="path124"
           style="fill:none;stroke:#0686d8;stroke-width:1.5;stroke-linecap:round;stroke-linejoin:miter;stroke-miterlimit:10;stroke-dasharray:none;stroke-opacity:1"
           d="M 0,0 0,4.274" /></g><g
         transform="translate(203.0413,390.8724)"
         id="g126"><path
           inkscape:connector-curvature="0"
           id="path128"
           style="fill:none;stroke:#0686d8;stroke-width:1.5;stroke-linecap:round;stroke-linejoin:miter;stroke-miterlimit:10;stroke-dasharray:none;stroke-opacity:1"
           d="M 0,0 4.274,0" /></g><g
         transform="translate(205.1784,388.7354)"
         id="g130"><path
           inkscape:connector-curvature="0"
           id="path132"
           style="fill:none;stroke:#0686d8;stroke-width:1.5;stroke-linecap:round;stroke-linejoin:miter;stroke-miterlimit:10;stroke-dasharray:none;stroke-opacity:1"
           d="M 0,0 0,4.274" /></g><g
         transform="translate(132.8426,418.4027)"
         id="g134"><path
           inkscape:connector-curvature="0"
           id="path136"
           style="fill:none;stroke:#0686d8;stroke-width:1.5;stroke-linecap:round;stroke-linejoin:miter;stroke-miterlimit:10;stroke-dasharray:none;stroke-opacity:1"
           d="M 0,0 3.022,3.022" /></g><g
         transform="translate(135.8649,418.4027)"
         id="g138"><path
           inkscape:connector-curvature="0"
           id="path140"
           style="fill:none;stroke:#0686d8;stroke-width:1.5;stroke-linecap:round;stroke-linejoin:miter;stroke-miterlimit:10;stroke-dasharray:none;stroke-opacity:1"
           d="M 0,0 -3.022,3.022" /></g><g
         transform="translate(89.2248,419.9139)"
         id="g142"><path
           inkscape:connector-curvature="0"
           id="path144"
           style="fill:none;stroke:#0686d8;stroke-width:1.5;stroke-linecap:butt;stroke-linejoin:miter;stroke-miterlimit:10;stroke-dasharray:none;stroke-opacity:1"
           d="M 0,0 40.717,0" /></g><g
         transform="translate(63.4378,388.2394)"
         id="g146"><path
           inkscape:connector-curvature="0"
           id="path148"
           style="fill:none;stroke:#0686d8;stroke-width:1.5;stroke-linecap:round;stroke-linejoin:miter;stroke-miterlimit:10;stroke-dasharray:none;stroke-opacity:1"
           d="M 0,0 3.022,3.022" /></g><g
         transform="translate(66.4601,388.2394)"
         id="g150"><path
           inkscape:connector-curvature="0"
           id="path152"
           style="fill:none;stroke:#0686d8;stroke-width:1.5;stroke-linecap:round;stroke-linejoin:miter;stroke-miterlimit:10;stroke-dasharray:none;stroke-opacity:1"
           d="M 0,0 -3.022,3.022" /></g><g
         transform="translate(29.8987,389.7505)"
         id="g154"><path
           inkscape:connector-curvature="0"
           id="path156"
           style="fill:none;stroke:#0686d8;stroke-width:1.5;stroke-linecap:butt;stroke-linejoin:miter;stroke-miterlimit:10;stroke-dasharray:none;stroke-opacity:1"
           d="M 0,0 30.639,0" /></g><g
         transform="translate(184.5916,361.3769)"
         id="g158"><path
           inkscape:connector-curvature="0"
           id="path160"
           style="fill:none;stroke:#0686d8;stroke-width:1.5;stroke-linecap:butt;stroke-linejoin:miter;stroke-miterlimit:10;stroke-dasharray:none;stroke-opacity:1"
           d="M 0,0 21.313,0" /></g><g
         transform="translate(156.0981,397.1849)"
         id="g162"><path
           inkscape:connector-curvature="0"
           id="path164"
           style="fill:none;stroke:#0686d8;stroke-width:1.5;stroke-linecap:butt;stroke-linejoin:miter;stroke-miterlimit:10;stroke-dasharray:none;stroke-opacity:1"
           d="M 0,0 26.791,0" /></g><g
         transform="translate(97.5807,411.3952)"
         id="g166"><path
           inkscape:connector-curvature="0"
           id="path168"
           style="fill:none;stroke:#0686d8;stroke-width:1.5;stroke-linecap:butt;stroke-linejoin:miter;stroke-miterlimit:10;stroke-dasharray:none;stroke-opacity:1"
           d="M 0,0 -17.396,0" /></g><g
         transform="translate(200.653,390.8725)"
         id="g170"><path
           inkscape:connector-curvature="0"
           id="path172"
           style="fill:none;stroke:#0686d8;stroke-width:1.5;stroke-linecap:butt;stroke-linejoin:miter;stroke-miterlimit:10;stroke-dasharray:none;stroke-opacity:1"
           d="M 0,0 -26.59,0" /></g><g
         transform="translate(75.1146,411.3952)"
         id="g174"><path
           inkscape:connector-curvature="0"
           id="path176"
           style="fill:none;stroke:#0686d8;stroke-width:1.5;stroke-linecap:butt;stroke-linejoin:miter;stroke-miterlimit:10;stroke-dasharray:none;stroke-opacity:1"
           d="M 0,0 3.57,0" /></g><g
         transform="translate(54.5848,360.1524)"
         id="g178"><path
           inkscape:connector-curvature="0"
           id="path180"
           style="fill:#0686d8;fill-opacity:1;fill-rule:nonzero;stroke:none"
           d="m 0,0 c 0,-0.676 -0.548,-1.224 -1.225,-1.224 -0.676,0 -1.224,0.548 -1.224,1.224 0,0.676 0.548,1.224 1.224,1.224 C -0.548,1.224 0,0.676 0,0" /></g><g
         transform="translate(90.6252,398.2908)"
         id="g182"><path
           inkscape:connector-curvature="0"
           id="path184"
           style="fill:#0686d8;fill-opacity:1;fill-rule:nonzero;stroke:none"
           d="m 0,0 c 0,-0.432 -0.35,-0.783 -0.783,-0.783 -0.432,0 -0.783,0.351 -0.783,0.783 0,0.432 0.351,0.783 0.783,0.783 C -0.35,0.783 0,0.432 0,0" /></g><g
         transform="translate(188.141,379.1593)"
         id="g186"><path
           inkscape:connector-curvature="0"
           id="path188"
           style="fill:#0686d8;fill-opacity:1;fill-rule:nonzero;stroke:none"
           d="m 0,0 c 0,-0.432 -0.351,-0.783 -0.783,-0.783 -0.432,0 -0.783,0.351 -0.783,0.783 0,0.432 0.351,0.783 0.783,0.783 C -0.351,0.783 0,0.432 0,0" /></g><g
         transform="translate(129.1512,408.1815)"
         id="g190"><path
           inkscape:connector-curvature="0"
           id="path192"
           style="fill:#0686d8;fill-opacity:1;fill-rule:nonzero;stroke:none"
           d="m 0,0 c 0,-0.432 -0.351,-0.783 -0.783,-0.783 -0.432,0 -0.783,0.351 -0.783,0.783 0,0.433 0.351,0.783 0.783,0.783 C -0.351,0.783 0,0.433 0,0" /></g><g
         transform="translate(56.2983,419.2769)"
         id="g194"><path
           inkscape:connector-curvature="0"
           id="path196"
           style="fill:#0686d8;fill-opacity:1;fill-rule:nonzero;stroke:none"
           d="m 0,0 c 0,-0.595 -0.482,-1.076 -1.077,-1.076 -0.594,0 -1.076,0.481 -1.076,1.076 0,0.595 0.482,1.077 1.076,1.077 C -0.482,1.077 0,0.595 0,0" /></g><g
         transform="translate(168.6465,367.1007)"
         id="g198"><path
           inkscape:connector-curvature="0"
           id="path200"
           style="fill:#0686d8;fill-opacity:1;fill-rule:nonzero;stroke:none"
           d="m 0,0 c 0,-0.595 -0.482,-1.077 -1.077,-1.077 -0.594,0 -1.076,0.482 -1.076,1.077 0,0.595 0.482,1.077 1.076,1.077 C -0.482,1.077 0,0.595 0,0" /></g><g
         transform="translate(176.0141,420.9287)"
         id="g202"><path
           inkscape:connector-curvature="0"
           id="path204"
           style="fill:#0686d8;fill-opacity:1;fill-rule:nonzero;stroke:none"
           d="m 0,0 c 0,-0.421 -0.341,-0.762 -0.762,-0.762 -0.421,0 -0.762,0.341 -0.762,0.762 0,0.421 0.341,0.762 0.762,0.762 C -0.341,0.762 0,0.421 0,0" /></g><g
         transform="translate(138.0812,428.0377)"
         id="g206"><path
           inkscape:connector-curvature="0"
           id="path208"
           style="fill:#0686d8;fill-opacity:1;fill-rule:nonzero;stroke:none"
           d="m 0,0 c 0,-0.539 -0.437,-0.976 -0.977,-0.976 -0.539,0 -0.976,0.437 -0.976,0.976 0,0.539 0.437,0.977 0.976,0.977 C -0.437,0.977 0,0.539 0,0" /></g><g
         transform="translate(163.9101,408.1815)"
         id="g210"><path
           inkscape:connector-curvature="0"
           id="path212"
           style="fill:#0686d8;fill-opacity:1;fill-rule:nonzero;stroke:none"
           d="m 0,0 c 0,-0.595 -0.482,-1.077 -1.077,-1.077 -0.594,0 -1.076,0.482 -1.076,1.077 0,0.595 0.482,1.077 1.076,1.077 C -0.482,1.077 0,0.595 0,0" /></g><g
         transform="translate(90.4962,374.0804)"
         id="g214"><path
           inkscape:connector-curvature="0"
           id="path216"
           style="fill:#ffffff;fill-opacity:1;fill-rule:nonzero;stroke:none"
           d="m 0,0 0,3.529 0.948,0 c 0.236,0 0.428,0.191 0.428,0.428 l 0,1.711 c 0,0.237 -0.192,0.428 -0.428,0.428 l -5.747,0 c -0.236,0 -0.428,-0.191 -0.428,-0.428 l 0,-1.711 c 0,-0.237 0.192,-0.428 0.428,-0.428 l 0.948,0 0,-3.529 c -2.29,-0.8 -3.943,-2.956 -3.943,-5.519 0,-3.241 2.627,-5.868 5.868,-5.868 3.241,0 5.869,2.627 5.869,5.868 C 3.943,-2.956 2.29,-0.8 0,0" /></g><g
         transform="translate(77.6464,342.7063)"
         id="g218"><path
           inkscape:connector-curvature="0"
           id="path220"
           style="fill:#ffffff;fill-opacity:1;fill-rule:nonzero;stroke:none"
           d="m 0,0 -2.936,8.059 0,3.529 0.948,0 c 0.236,0 0.427,0.192 0.427,0.428 l 0,1.712 c 0,0.236 -0.191,0.428 -0.427,0.428 l -5.747,0 c -0.236,0 -0.428,-0.192 -0.428,-0.428 l 0,-1.712 c 0,-0.236 0.192,-0.428 0.428,-0.428 l 0.948,0 0,-3.529 -2.994,-8.051 c -0.327,-0.878 0.323,-1.812 1.26,-1.812 l 7.258,0 C -0.33,-1.804 0.319,-0.877 0,0" /></g><g
         transform="translate(94.3311,368.5992)"
         id="g222"><path
           inkscape:connector-curvature="0"
           id="path224"
           style="fill:#5fb0e5;fill-opacity:1;fill-rule:nonzero;stroke:none"
           d="m 0,0 c 0,-3.182 -2.579,-5.761 -5.76,-5.761 -3.182,0 -5.761,2.579 -5.761,5.761 L 0,0 Z" /></g><g
         transform="translate(68.7004,345.475)"
         id="g226"><path
           inkscape:connector-curvature="0"
           id="path228"
           style="fill:#5fb0e5;fill-opacity:1;fill-rule:nonzero;stroke:none"
           d="m 0,0 -0.999,-3.013 c -0.254,-0.768 0.318,-1.56 1.127,-1.56 l 8.124,0 c 0.847,0 1.421,0.862 1.095,1.644 L 8.125,0 0,0 Z" /></g><g
         transform="translate(72.7543,345.9806)"
         id="g230"><path
           inkscape:connector-curvature="0"
           id="path232"
           style="fill:none;stroke:#0686d8;stroke-width:1.5;stroke-linecap:butt;stroke-linejoin:miter;stroke-miterlimit:10;stroke-dasharray:none;stroke-opacity:1"
           d="m 0,0 0.01,41.612 c 0,1.192 0.966,2.158 2.158,2.158 1.192,0 2.159,-0.966 2.159,-2.159 l 0,-5.078 c 0,-1.291 1.046,-2.337 2.336,-2.337 1.291,0 2.337,1.046 2.337,2.337 l 0,1.261 c 0,1.883 1.526,3.408 3.408,3.408 1.882,0 3.408,-1.525 3.408,-3.408 l 0,-14.931" /></g><g
         transform="translate(63.6321,375.3236)"
         id="g234"><path
           inkscape:connector-curvature="0"
           id="path236"
           style="fill:#ffffff;fill-opacity:1;fill-rule:nonzero;stroke:none"
           d="m 0,0 c 0,-1.013 -0.821,-1.834 -1.834,-1.834 -1.013,0 -1.834,0.821 -1.834,1.834 0,1.013 0.821,1.834 1.834,1.834 C -0.821,1.834 0,1.013 0,0" /></g><g
         transform="translate(63.6321,352.0172)"
         id="g238"><path
           inkscape:connector-curvature="0"
           id="path240"
           style="fill:#ffffff;fill-opacity:1;fill-rule:nonzero;stroke:none"
           d="m 0,0 c 0,-1.013 -0.821,-1.834 -1.834,-1.834 -1.013,0 -1.834,0.821 -1.834,1.834 0,1.013 0.821,1.834 1.834,1.834 C -0.821,1.834 0,1.013 0,0" /></g><g
         transform="translate(63.6321,375.3236)"
         id="g242"><path
           inkscape:connector-curvature="0"
           id="path244"
           style="fill:none;stroke:#0686d8;stroke-width:1.5;stroke-linecap:butt;stroke-linejoin:miter;stroke-miterlimit:10;stroke-dasharray:none;stroke-opacity:1"
           d="m 0,0 c 0,-1.013 -0.821,-1.834 -1.834,-1.834 -1.013,0 -1.834,0.821 -1.834,1.834 0,1.013 0.821,1.834 1.834,1.834 C -0.821,1.834 0,1.013 0,0 Z" /></g><g
         transform="translate(63.6321,352.0172)"
         id="g246"><path
           inkscape:connector-curvature="0"
           id="path248"
           style="fill:none;stroke:#0686d8;stroke-width:1.5;stroke-linecap:butt;stroke-linejoin:miter;stroke-miterlimit:10;stroke-dasharray:none;stroke-opacity:1"
           d="m 0,0 c 0,-1.013 -0.821,-1.834 -1.834,-1.834 -1.013,0 -1.834,0.821 -1.834,1.834 0,1.013 0.821,1.834 1.834,1.834 C -0.821,1.834 0,1.013 0,0 Z" /></g><g
         transform="translate(61.7982,382.4149)"
         id="g250"><path
           inkscape:connector-curvature="0"
           id="path252"
           style="fill:none;stroke:#0686d8;stroke-width:1.5;stroke-linecap:butt;stroke-linejoin:miter;stroke-miterlimit:10;stroke-dasharray:none;stroke-opacity:1"
           d="M 0,0 0,-5.257" /></g><g
         transform="translate(61.7982,373.4896)"
         id="g254"><path
           inkscape:connector-curvature="0"
           id="path256"
           style="fill:none;stroke:#0686d8;stroke-width:1.5;stroke-linecap:butt;stroke-linejoin:miter;stroke-miterlimit:10;stroke-dasharray:none;stroke-opacity:1"
           d="M 0,0 0,-19.638" /></g><g
         transform="translate(61.7982,328.1978)"
         id="g258"><path
           inkscape:connector-curvature="0"
           id="path260"
           style="fill:none;stroke:#0686d8;stroke-width:1.5;stroke-linecap:butt;stroke-linejoin:miter;stroke-miterlimit:10;stroke-dasharray:none;stroke-opacity:1"
           d="M 0,0 0,21.985" /></g><g
         transform="translate(49.2052,375.3236)"
         id="g262"><path
           inkscape:connector-curvature="0"
           id="path264"
           style="fill:none;stroke:#0686d8;stroke-width:1.5;stroke-linecap:butt;stroke-linejoin:miter;stroke-miterlimit:10;stroke-dasharray:none;stroke-opacity:1"
           d="M 0,0 10.759,0" /></g><g
         transform="translate(95.1759,375.3236)"
         id="g266"><path
           inkscape:connector-curvature="0"
           id="path268"
           style="fill:none;stroke:#0686d8;stroke-width:1.5;stroke-linecap:butt;stroke-linejoin:miter;stroke-miterlimit:10;stroke-dasharray:none;stroke-opacity:1"
           d="M 0,0 -31.578,0" /></g><g
         transform="translate(49.2052,351.8492)"
         id="g270"><path
           inkscape:connector-curvature="0"
           id="path272"
           style="fill:none;stroke:#0686d8;stroke-width:1.5;stroke-linecap:butt;stroke-linejoin:miter;stroke-miterlimit:10;stroke-dasharray:none;stroke-opacity:1"
           d="M 0,0 10.759,0" /></g><g
         transform="translate(86.6449,377.6092)"
         id="g274"><path
           inkscape:connector-curvature="0"
           id="path276"
           style="fill:none;stroke:#0686d8;stroke-width:1.5;stroke-linecap:butt;stroke-linejoin:miter;stroke-miterlimit:10;stroke-dasharray:none;stroke-opacity:1"
           d="m 0,0 0,-3.529 c -2.29,-0.8 -3.943,-2.956 -3.943,-5.518 0,-3.242 2.628,-5.869 5.869,-5.869 3.241,0 5.868,2.627 5.868,5.869 0,2.562 -1.653,4.718 -3.943,5.518 l 0,3.529 0.948,0 c 0.236,0 0.428,0.192 0.428,0.428 l 0,1.711 c 0,0.237 -0.192,0.428 -0.428,0.428 l -5.746,0 c -0.237,0 -0.428,-0.191 -0.428,-0.428 l 0,-1.711 C -1.375,0.192 -1.184,0 -0.947,0 l 2.333,0" /></g><g
         transform="translate(72.2447,354.2943)"
         id="g278"><path
           inkscape:connector-curvature="0"
           id="path280"
           style="fill:none;stroke:#0686d8;stroke-width:1.5;stroke-linecap:butt;stroke-linejoin:miter;stroke-miterlimit:10;stroke-dasharray:none;stroke-opacity:1"
           d="m 0,0 -2.333,0 c -0.236,0 -0.428,0.191 -0.428,0.428 l 0,1.712 c 0,0.236 0.192,0.427 0.428,0.427 l 5.746,0 c 0.237,0 0.428,-0.191 0.428,-0.427 l 0,-1.712 C 3.841,0.191 3.65,0 3.413,0 l -0.947,0 0,-3.529 2.936,-8.059 c 0.319,-0.877 -0.33,-1.804 -1.263,-1.804 l -7.259,0 c -0.937,0 -1.586,0.934 -1.26,1.812 l 2.994,8.051 0,3.529" /></g><g
         transform="translate(63.5979,352.0172)"
         id="g282"><path
           inkscape:connector-curvature="0"
           id="path284"
           style="fill:none;stroke:#0686d8;stroke-width:1.5;stroke-linecap:butt;stroke-linejoin:miter;stroke-miterlimit:10;stroke-dasharray:none;stroke-opacity:1"
           d="M 0,0 13.964,0" /></g><g
         transform="translate(68.8694,345.415)"
         id="g286"><path
           inkscape:connector-curvature="0"
           id="path288"
           style="fill:none;stroke:#0686d8;stroke-width:1.5;stroke-linecap:butt;stroke-linejoin:miter;stroke-miterlimit:10;stroke-dasharray:none;stroke-opacity:1"
           d="M 0,0 7.79,0" /></g><g
         transform="translate(82.7018,368.5992)"
         id="g290"><path
           inkscape:connector-curvature="0"
           id="path292"
           style="fill:none;stroke:#0686d8;stroke-width:1.5;stroke-linecap:butt;stroke-linejoin:miter;stroke-miterlimit:10;stroke-dasharray:none;stroke-opacity:1"
           d="M 0,0 11.737,0" /></g><g
         transform="translate(73.886,328.1978)"
         id="g294"><path
           inkscape:connector-curvature="0"
           id="path296"
           style="fill:#9ecfef;fill-opacity:1;fill-rule:nonzero;stroke:none"
           d="m 0,0 -2.203,0 c -1.83,0 -3.328,1.498 -3.328,3.328 0,1.831 1.498,3.329 3.328,3.329 L 0,6.657 C 1.831,6.657 3.328,5.159 3.328,3.328 3.328,1.498 1.831,0 0,0" /></g><g
         transform="translate(73.886,331.7999)"
         id="g298"><path
           inkscape:connector-curvature="0"
           id="path300"
           style="fill:#5fb0e5;fill-opacity:1;fill-rule:nonzero;stroke:none"
           d="M 0,0 -2.203,0 C -3.37,0 -4.397,0.612 -4.992,1.527 -5.33,1.007 -5.531,0.39 -5.531,-0.274 c 0,-1.83 1.498,-3.328 3.328,-3.328 l 2.203,0 c 1.831,0 3.328,1.498 3.328,3.328 0,0.664 -0.201,1.281 -0.539,1.801 C 2.194,0.612 1.167,0 0,0" /></g><g
         transform="translate(73.886,328.1978)"
         id="g302"><path
           inkscape:connector-curvature="0"
           id="path304"
           style="fill:none;stroke:#0686d8;stroke-width:1.5;stroke-linecap:butt;stroke-linejoin:miter;stroke-miterlimit:10;stroke-dasharray:none;stroke-opacity:1"
           d="m 0,0 -2.203,0 c -1.83,0 -3.328,1.498 -3.328,3.328 0,1.831 1.498,3.329 3.328,3.329 L 0,6.657 C 1.831,6.657 3.328,5.159 3.328,3.328 3.328,1.498 1.831,0 0,0 Z" /></g><g
         transform="translate(73.6673,337.458)"
         id="g306"><path
           inkscape:connector-curvature="0"
           id="path308"
           style="fill:#5fb0e5;fill-opacity:1;fill-rule:nonzero;stroke:none"
           d="m 0,0 c 0,-0.957 -0.395,-1.733 -0.883,-1.733 -0.487,0 -0.882,0.776 -0.882,1.733 0,0.957 0.882,1.732 0.882,1.732 C -0.883,1.732 0,0.957 0,0" /></g><g
         transform="translate(73.6673,337.458)"
         id="g310"><path
           inkscape:connector-curvature="0"
           id="path312"
           style="fill:none;stroke:#0686d8;stroke-width:1.5;stroke-linecap:butt;stroke-linejoin:miter;stroke-miterlimit:10;stroke-dasharray:none;stroke-opacity:1"
           d="m 0,0 c 0,-0.957 -0.395,-1.733 -0.883,-1.733 -0.487,0 -0.882,0.776 -0.882,1.733 0,0.957 0.882,1.732 0.882,1.732 C -0.883,1.732 0,0.957 0,0 Z" /></g><g
         id="g314"><g
           id="g316" /><g
           id="g322"><g
             style="opacity:0.30000299"
             id="g324"
             clip-path="url(#clipPath318)"><g
               id="g326"
               transform="translate(150.5094,382.4149)"><path
                 inkscape:connector-curvature="0"
                 id="path328"
                 style="fill:#0565a2;fill-opacity:1;fill-rule:nonzero;stroke:none"
                 d="m 0,0 -55.294,0 2.928,-36.208 49.438,0 L 0,0 Z" /></g></g></g></g><g
         transform="translate(147.5812,336.7066)"
         id="g330"><path
           inkscape:connector-curvature="0"
           id="path332"
           style="fill:#ffffff;fill-opacity:1;fill-rule:nonzero;stroke:none"
           d="m 0,0 0,63.489 c 0,1.627 -1.319,2.946 -2.946,2.946 l -43.545,0 c -1.628,0 -2.947,-1.319 -2.947,-2.946 L -49.438,0 0,0 Z" /></g><g
         transform="translate(98.1433,395.5043)"
         id="g334"><path
           inkscape:connector-curvature="0"
           id="path336"
           style="fill:#d2e9f7;fill-opacity:1;fill-rule:nonzero;stroke:none"
           d="m 0,0 0,5.16 c 0,1.368 1.109,2.478 2.478,2.478 l 44.482,0 c 1.369,0 2.478,-1.11 2.478,-2.478 L 49.438,0 0,0 Z" /></g><path
         d="m 98.1433,336.7066 0,63.958 c 0,1.368 1.109,2.477 2.478,2.477 l 5.178,0 1.386,0"
         style="fill:none;stroke:#0686d8;stroke-width:1.5;stroke-linecap:butt;stroke-linejoin:miter;stroke-miterlimit:10;stroke-dasharray:none;stroke-opacity:1"
         id="path340"
         inkscape:connector-curvature="0" /><g
         transform="translate(115.7742,403.1418)"
         id="g342"><path
           inkscape:connector-curvature="0"
           id="path344"
           style="fill:none;stroke:#0686d8;stroke-width:1.5;stroke-linecap:butt;stroke-linejoin:miter;stroke-miterlimit:10;stroke-dasharray:none;stroke-opacity:1"
           d="m 0,0 29.329,0 c 1.369,0 2.478,-1.109 2.478,-2.478 l 0,-63.957" /></g><g
         transform="translate(109.5834,403.1418)"
         id="g346"><path
           inkscape:connector-curvature="0"
           id="path348"
           style="fill:none;stroke:#0686d8;stroke-width:1.5;stroke-linecap:butt;stroke-linejoin:miter;stroke-miterlimit:10;stroke-dasharray:none;stroke-opacity:1"
           d="M 0,0 3.396,0" /></g><g
         transform="translate(98.1433,395.3704)"
         id="g350"><path
           inkscape:connector-curvature="0"
           id="path352"
           style="fill:none;stroke:#0686d8;stroke-width:1.5;stroke-linecap:butt;stroke-linejoin:miter;stroke-miterlimit:10;stroke-dasharray:none;stroke-opacity:1"
           d="M 0,0 49.438,0" /></g><g
         transform="translate(103.821,398.9031)"
         id="g354"><path
           inkscape:connector-curvature="0"
           id="path356"
           style="fill:none;stroke:#0686d8;stroke-width:1.5;stroke-linecap:butt;stroke-linejoin:miter;stroke-miterlimit:10;stroke-dasharray:none;stroke-opacity:1"
           d="M 0,0 1.335,0" /></g><g
         transform="translate(107.7576,398.9031)"
         id="g358"><path
           inkscape:connector-curvature="0"
           id="path360"
           style="fill:none;stroke:#0686d8;stroke-width:1.5;stroke-linecap:butt;stroke-linejoin:miter;stroke-miterlimit:10;stroke-dasharray:none;stroke-opacity:1"
           d="M 0,0 1.335,0" /></g><g
         transform="translate(111.6944,398.9031)"
         id="g362"><path
           inkscape:connector-curvature="0"
           id="path364"
           style="fill:none;stroke:#0686d8;stroke-width:1.5;stroke-linecap:butt;stroke-linejoin:miter;stroke-miterlimit:10;stroke-dasharray:none;stroke-opacity:1"
           d="M 0,0 1.335,0" /></g><path
         inkscape:connector-curvature="0"
         id="path366"
         style="fill:#9ecfef;fill-opacity:1;fill-rule:nonzero;stroke:none"
         d="m 113.026,348.195 -11.004,0 0,14.275 11.004,0 0,-14.275 z" /><path
         inkscape:connector-curvature="0"
         id="path368"
         style="fill:#d2e9f7;fill-opacity:1;fill-rule:nonzero;stroke:none"
         d="m 128.368,348.195 -11.004,0 0,14.275 11.004,0 0,-14.275 z" /><path
         inkscape:connector-curvature="0"
         id="path370"
         style="fill:#5fb0e5;fill-opacity:1;fill-rule:nonzero;stroke:none"
         d="m 143.847,348.195 -11.004,0 0,14.275 11.004,0 0,-14.275 z" /><g
         transform="translate(115.1717,365.0906)"
         id="g372"><path
           inkscape:connector-curvature="0"
           id="path374"
           style="fill:none;stroke:#0686d8;stroke-width:1.5;stroke-linecap:butt;stroke-linejoin:miter;stroke-miterlimit:10;stroke-dasharray:none;stroke-opacity:1"
           d="M 0,0 15.389,0" /></g><path
         inkscape:connector-curvature="0"
         id="path376"
         style="fill:#d2e9f7;fill-opacity:1;fill-rule:nonzero;stroke:none"
         d="m 143.847,367.446 -41.825,0 0,23.426 41.825,0 0,-23.426 z" /><g
         transform="translate(143.8467,382.9331)"
         id="g378"><path
           inkscape:connector-curvature="0"
           id="path380"
           style="fill:#5fb0e5;fill-opacity:1;fill-rule:nonzero;stroke:none"
           d="m 0,0 -1.808,0 -2.646,-1.764 -3.333,0 -2.548,0 -1.834,-2.549 -3.31,-2.352 -6.52,-0.098 -1.765,1.372 -3.332,-1.666 -6.469,0 -6.461,-5.881 -1.799,0 0,-2.549 41.825,0 L 0,0 Z" /></g><g
         transform="translate(102.0217,369.9947)"
         id="g382"><path
           inkscape:connector-curvature="0"
           id="path384"
           style="fill:none;stroke:#0686d8;stroke-width:1.5;stroke-linecap:butt;stroke-linejoin:miter;stroke-miterlimit:10;stroke-dasharray:none;stroke-opacity:1"
           d="m 0,0 1.799,0 6.461,5.881 6.469,0 3.332,1.666 1.765,-1.372 6.52,0.098 3.31,2.353 1.834,2.548 2.548,0 3.333,0 2.646,1.764 1.808,0" /></g><g
         transform="translate(36.7941,328.1978)"
         id="g386"><path
           inkscape:connector-curvature="0"
           id="path388"
           style="fill:none;stroke:#0686d8;stroke-width:1.5;stroke-linecap:butt;stroke-linejoin:miter;stroke-miterlimit:10;stroke-dasharray:none;stroke-opacity:1"
           d="M 0,0 2.739,0" /></g><g
         transform="translate(206.7408,328.1978)"
         id="g390"><path
           inkscape:connector-curvature="0"
           id="path392"
           style="fill:none;stroke:#0686d8;stroke-width:1.5;stroke-linecap:butt;stroke-linejoin:miter;stroke-miterlimit:10;stroke-dasharray:none;stroke-opacity:1"
           d="M 0,0 6.049,0" /></g><g
         transform="translate(41.3565,328.1978)"
         id="g394"><path
           inkscape:connector-curvature="0"
           id="path396"
           style="fill:none;stroke:#0686d8;stroke-width:1.5;stroke-linecap:butt;stroke-linejoin:miter;stroke-miterlimit:10;stroke-dasharray:none;stroke-opacity:1"
           d="M 0,0 163.822,0" /></g></g></g></svg>