<svg width="138" height="94" viewBox="0 0 138 94" fill="none" xmlns="http://www.w3.org/2000/svg">
<rect x="41" y="15" width="42" height="29" fill="white"/>
<path fill-rule="evenodd" clip-rule="evenodd" d="M35.9609 44.7278L62.5278 59.4763L89.0948 44.7279L89.0948 15.2309L62.5279 0.482422L35.9609 15.2309L35.9609 44.7278ZM62.5858 17L46.0015 38.6667L54.3577 29.2272C58.7309 24.2871 66.4408 24.2871 70.8139 29.2272L70.902 29.3267L63.749 39.0166L69.0376 32.8274C70.2858 31.3666 72.5332 31.3347 73.822 32.7593L79.2829 38.7956L78.6446 37.9801L62.5858 17Z" fill="url(#paint0_linear_291_6957)"/>
<path d="M18.7955 83.0197H5.03693C4.07349 83.0197 3.17766 82.6478 2.51846 81.9717C1.06485 80.535 1.06485 77.408 2.51846 75.9713C3.17766 75.2952 4.07349 74.9065 5.03693 74.9065H18.7955C19.0491 74.9065 19.2857 74.6868 19.2857 74.4163C19.2857 74.1459 19.0491 73.9261 18.7955 73.9261H5.03693C3.81995 73.9261 2.67059 74.4163 1.82546 75.2614C0 77.1038 0 80.8392 1.82546 82.6647C2.67059 83.5267 3.81995 84 5.03693 84H18.7955C19.0491 84 19.2857 83.7803 19.2857 83.5098C19.2857 83.2394 19.0491 83.0197 18.7955 83.0197ZM41.6108 81.0759V83.5098C41.6108 83.7803 41.8474 84 42.1178 84C42.3714 84 42.608 83.7803 42.608 83.5098V78.9631C42.608 77.6447 42.1855 76.2249 41.2389 75.2614C40.3769 74.4163 39.2275 73.9261 38.0275 73.9261H33.9202H31.3341H27.2437C26.0267 73.9261 24.8774 74.4163 24.0322 75.2614C23.0688 76.2249 22.6631 77.6447 22.6631 78.9631V83.5098C22.6631 83.7803 22.8829 84 23.1533 84C23.4237 84 23.6435 83.7803 23.6435 83.5098V81.0759H41.6108ZM31.3341 74.9065H33.9202H38.0275C38.974 74.9065 39.8698 75.2952 40.529 75.9713C41.3065 76.732 41.6108 77.9151 41.6108 78.9631V79.5885V80.0786H23.6435V79.5885V78.9631C23.6435 77.9151 23.9477 76.732 24.7252 75.9713C25.3844 75.2952 26.2803 74.9065 27.2437 74.9065H31.3341ZM46.9669 79.4532H56.1449C59.1873 79.4532 61.9762 81.1097 63.4636 83.7634C63.5989 84 63.9031 84.0676 64.1397 83.9493C64.3764 83.8141 64.4609 83.5098 64.3257 83.2732C64.1735 82.9859 63.9876 82.7154 63.8017 82.445C62.9059 81.1773 61.6889 80.1462 60.3029 79.4532H61.6213C63.1425 79.4532 64.3933 78.2194 64.3933 76.6981C64.3933 75.1769 63.1425 73.9261 61.6213 73.9261H48.15C46.9669 73.9261 45.9865 74.9065 45.9865 76.1066V83.5098C45.9865 83.7803 46.2063 84 46.4767 84C46.7302 84 46.9669 83.7803 46.9669 83.5098V79.4532ZM61.6213 78.4729H47.3049H46.9669H46.95V76.1066C46.95 75.4474 47.5077 74.9065 48.15 74.9065H57.4295C57.4633 74.9065 57.4971 74.9065 57.514 74.9065H59.2549H61.6213C62.6016 74.9065 63.4129 75.7178 63.4129 76.6981C63.4129 77.6785 62.6016 78.4729 61.6213 78.4729ZM76.647 81.7013L70.3424 74.4501C70.0382 74.0952 69.6494 73.9261 69.193 73.9261H68.7029C68.2296 73.9261 67.8408 74.3318 67.8408 74.8051V83.5098C67.8408 83.7803 68.0606 84 68.331 84C68.5846 84 68.8212 83.7803 68.8212 83.5098V74.1966L75.9033 82.3436C76.3597 82.8675 77.2048 83.7634 77.9654 83.7634C78.726 83.7634 79.5542 82.8675 80.0106 82.3436L87.1096 74.1966V83.5098C87.1096 83.7803 87.3294 84 87.5998 84C87.8702 84 88.09 83.7803 88.09 83.5098V74.8051C88.09 74.3318 87.7012 73.9261 87.211 73.9261H86.7209C86.2645 73.9261 85.8926 74.0952 85.5884 74.4501L79.2669 81.7013C78.5739 82.4957 77.34 82.4957 76.647 81.7013ZM96.413 74.9065H110.155C110.425 74.9065 110.645 74.6868 110.645 74.4163C110.645 74.1459 110.425 73.9261 110.155 73.9261H96.413C95.196 73.9261 94.0466 74.4163 93.1846 75.2614C91.3591 77.1038 91.3591 80.8392 93.1846 82.6647C94.0466 83.5267 95.196 84 96.413 84H110.155C110.425 84 110.645 83.7803 110.645 83.5098C110.645 83.2394 110.425 83.0197 110.155 83.0197H96.413C95.4495 83.0197 94.5537 82.6478 93.8945 81.9717C92.4409 80.535 92.4409 77.408 93.8945 75.9713C94.5537 75.2952 95.4495 74.9065 96.413 74.9065ZM96.2946 78.9631C96.2946 78.6926 96.5144 78.4729 96.7848 78.4729H109.039C109.31 78.4729 109.529 78.6926 109.529 78.9631C109.529 79.2335 109.31 79.4532 109.039 79.4532H96.7848C96.5144 79.4532 96.2946 79.2335 96.2946 78.9631ZM115.04 79.5885H115.006V74.4163C115.006 74.3994 115.006 74.3825 114.989 74.3487C114.955 74.1121 114.752 73.9261 114.516 73.9261C114.245 73.9261 114.025 74.1459 114.025 74.4163V78.9631C114.025 80.2984 114.431 81.7182 115.395 82.6647C116.24 83.5267 117.389 84 118.606 84H132.348C132.618 84 132.855 83.7803 132.855 83.5098C132.855 83.2394 132.618 83.0197 132.348 83.0197H118.606C117.643 83.0197 116.747 82.6478 116.088 81.9717C115.462 81.3632 115.141 80.4674 115.04 79.5885Z" fill="white"/>
<defs>
<linearGradient id="paint0_linear_291_6957" x1="61.5973" y1="81.0151" x2="104.029" y2="40.166" gradientUnits="userSpaceOnUse">
<stop/>
<stop offset="1" stop-color="#5FCAD2"/>
</linearGradient>
</defs>
</svg>
