<svg width="3270" height="717" viewBox="0 0 3270 717" fill="none" xmlns="http://www.w3.org/2000/svg">
  <rect width="401" height="260.65" transform="translate(122 201.13)" fill="white" />
  <path fill-rule="evenodd" clip-rule="evenodd"
    d="M0.132812 537.692L322.603 716.71L645.074 537.692L645.074 179.657L322.604 0.638672L0.132906 179.656L0.132812 537.692ZM322.498 201.13L121.998 461.78L222.843 348.425C275.897 288.789 369.099 288.789 422.153 348.425L423.06 349.445L336.601 465.989L400.487 391.593C415.63 373.958 442.798 373.574 458.435 390.772L524.402 463.329L514.826 451.157L322.498 201.13Z"
    fill="url(#paint0_linear_323_8921)" />
  <path
    d="M1244.6 422.6H1000.4C983.3 422.6 967.4 416 955.7 404C929.9 378.5 929.9 323 955.7 297.5C967.4 285.5 983.3 278.6 1000.4 278.6H1244.6C1249.1 278.6 1253.3 274.7 1253.3 269.9C1253.3 265.1 1249.1 261.2 1244.6 261.2H1000.4C978.8 261.2 958.4 269.9 943.4 284.9C911 317.6 911 383.9 943.4 416.3C958.4 431.6 978.8 440 1000.4 440H1244.6C1249.1 440 1253.3 436.1 1253.3 431.3C1253.3 426.5 1249.1 422.6 1244.6 422.6ZM1649.55 388.1V431.3C1649.55 436.1 1653.75 440 1658.55 440C1663.05 440 1667.25 436.1 1667.25 431.3V350.6C1667.25 327.2 1659.75 302 1642.95 284.9C1627.65 269.9 1607.25 261.2 1585.95 261.2H1513.05H1467.15H1394.55C1372.95 261.2 1352.55 269.9 1337.55 284.9C1320.45 302 1313.25 327.2 1313.25 350.6V431.3C1313.25 436.1 1317.15 440 1321.95 440C1326.75 440 1330.65 436.1 1330.65 431.3V388.1H1649.55ZM1467.15 278.6H1513.05H1585.95C1602.75 278.6 1618.65 285.5 1630.35 297.5C1644.15 311 1649.55 332 1649.55 350.6V361.7V370.4H1330.65V361.7V350.6C1330.65 332 1336.05 311 1349.85 297.5C1361.55 285.5 1377.45 278.6 1394.55 278.6H1467.15ZM1744.61 359.3H1907.51C1961.51 359.3 2011.01 388.7 2037.41 435.8C2039.81 440 2045.21 441.2 2049.41 439.1C2053.61 436.7 2055.11 431.3 2052.71 427.1C2050.01 422 2046.71 417.2 2043.41 412.4C2027.51 389.9 2005.91 371.6 1981.31 359.3H2004.71C2031.71 359.3 2053.91 337.4 2053.91 310.4C2053.91 283.4 2031.71 261.2 2004.71 261.2H1765.61C1744.61 261.2 1727.21 278.6 1727.21 299.9V431.3C1727.21 436.1 1731.11 440 1735.91 440C1740.41 440 1744.61 436.1 1744.61 431.3V359.3ZM2004.71 341.9H1750.61H1744.61H1744.31V299.9C1744.31 288.2 1754.21 278.6 1765.61 278.6H1930.31C1930.91 278.6 1931.51 278.6 1931.81 278.6H1962.71H2004.71C2022.11 278.6 2036.51 293 2036.51 310.4C2036.51 327.8 2022.11 341.9 2004.71 341.9ZM2271.4 399.2L2159.5 270.5C2154.1 264.2 2147.2 261.2 2139.1 261.2H2130.4C2122 261.2 2115.1 268.4 2115.1 276.8V431.3C2115.1 436.1 2119 440 2123.8 440C2128.3 440 2132.5 436.1 2132.5 431.3V266L2258.2 410.6C2266.3 419.9 2281.3 435.8 2294.8 435.8C2308.3 435.8 2323 419.9 2331.1 410.6L2457.1 266V431.3C2457.1 436.1 2461 440 2465.8 440C2470.6 440 2474.5 436.1 2474.5 431.3V276.8C2474.5 268.4 2467.6 261.2 2458.9 261.2H2450.2C2442.1 261.2 2435.5 264.2 2430.1 270.5L2317.9 399.2C2305.6 413.3 2283.7 413.3 2271.4 399.2ZM2622.23 278.6H2866.13C2870.93 278.6 2874.83 274.7 2874.83 269.9C2874.83 265.1 2870.93 261.2 2866.13 261.2H2622.23C2600.63 261.2 2580.23 269.9 2564.93 284.9C2532.53 317.6 2532.53 383.9 2564.93 416.3C2580.23 431.6 2600.63 440 2622.23 440H2866.13C2870.93 440 2874.83 436.1 2874.83 431.3C2874.83 426.5 2870.93 422.6 2866.13 422.6H2622.23C2605.13 422.6 2589.23 416 2577.53 404C2551.73 378.5 2551.73 323 2577.53 297.5C2589.23 285.5 2605.13 278.6 2622.23 278.6ZM2620.13 350.6C2620.13 345.8 2624.03 341.9 2628.83 341.9H2846.33C2851.13 341.9 2855.03 345.8 2855.03 350.6C2855.03 355.4 2851.13 359.3 2846.33 359.3H2628.83C2624.03 359.3 2620.13 355.4 2620.13 350.6ZM2952.83 361.7H2952.23V269.9C2952.23 269.6 2952.23 269.3 2951.93 268.7C2951.33 264.5 2947.73 261.2 2943.53 261.2C2938.73 261.2 2934.83 265.1 2934.83 269.9V350.6C2934.83 374.3 2942.03 399.5 2959.13 416.3C2974.13 431.6 2994.53 440 3016.13 440H3260.03C3264.83 440 3269.03 436.1 3269.03 431.3C3269.03 426.5 3264.83 422.6 3260.03 422.6H3016.13C2999.03 422.6 2983.13 416 2971.43 404C2960.33 393.2 2954.63 377.3 2952.83 361.7Z"
    fill="white" />
  <defs>
    <linearGradient id="paint0_linear_323_8921" x1="311.308" y1="978.149" x2="826.344" y2="482.321"
      gradientUnits="userSpaceOnUse">
      <stop />
      <stop offset="1" stop-color="#5FCAD2" />
    </linearGradient>
  </defs>
</svg>