<svg width="3285" height="712" viewBox="0 0 3285 712" fill="none" xmlns="http://www.w3.org/2000/svg">
  <rect width="192.17" height="124.911" transform="translate(332 281)" fill="black" />
  <path fill-rule="evenodd" clip-rule="evenodd"
    d="M273.598 442.29L428.135 528.08L582.672 442.29L582.672 270.709L428.135 184.919L273.598 270.709L273.598 442.29ZM428.085 281L332 405.911L380.328 351.588C405.753 323.009 450.418 323.009 475.843 351.588L476.277 352.076L434.844 407.928L465.46 372.275C472.717 363.824 485.736 363.64 493.23 371.882L524.843 406.653L520.261 400.828L428.085 281Z"
    fill="url(#paint0_linear_291_8153)" />
  <path
    d="M986.6 429.6H742.4C725.3 429.6 709.4 423 697.7 411C671.9 385.5 671.9 330 697.7 304.5C709.4 292.5 725.3 285.6 742.4 285.6H986.6C991.1 285.6 995.3 281.7 995.3 276.9C995.3 272.1 991.1 268.2 986.6 268.2H742.4C720.8 268.2 700.4 276.9 685.4 291.9C653 324.6 653 390.9 685.4 423.3C700.4 438.6 720.8 447 742.4 447H986.6C991.1 447 995.3 443.1 995.3 438.3C995.3 433.5 991.1 429.6 986.6 429.6ZM1391.55 395.1V438.3C1391.55 443.1 1395.75 447 1400.55 447C1405.05 447 1409.25 443.1 1409.25 438.3V357.6C1409.25 334.2 1401.75 309 1384.95 291.9C1369.65 276.9 1349.25 268.2 1327.95 268.2H1255.05H1209.15H1136.55C1114.95 268.2 1094.55 276.9 1079.55 291.9C1062.45 309 1055.25 334.2 1055.25 357.6V438.3C1055.25 443.1 1059.15 447 1063.95 447C1068.75 447 1072.65 443.1 1072.65 438.3V395.1H1391.55ZM1209.15 285.6H1255.05H1327.95C1344.75 285.6 1360.65 292.5 1372.35 304.5C1386.15 318 1391.55 339 1391.55 357.6V368.7V377.4H1072.65V368.7V357.6C1072.65 339 1078.05 318 1091.85 304.5C1103.55 292.5 1119.45 285.6 1136.55 285.6H1209.15ZM1486.61 366.3H1649.51C1703.51 366.3 1753.01 395.7 1779.41 442.8C1781.81 447 1787.21 448.2 1791.41 446.1C1795.61 443.7 1797.11 438.3 1794.71 434.1C1792.01 429 1788.71 424.2 1785.41 419.4C1769.51 396.9 1747.91 378.6 1723.31 366.3H1746.71C1773.71 366.3 1795.91 344.4 1795.91 317.4C1795.91 290.4 1773.71 268.2 1746.71 268.2H1507.61C1486.61 268.2 1469.21 285.6 1469.21 306.9V438.3C1469.21 443.1 1473.11 447 1477.91 447C1482.41 447 1486.61 443.1 1486.61 438.3V366.3ZM1746.71 348.9H1492.61H1486.61H1486.31V306.9C1486.31 295.2 1496.21 285.6 1507.61 285.6H1672.31C1672.91 285.6 1673.51 285.6 1673.81 285.6H1704.71H1746.71C1764.11 285.6 1778.51 300 1778.51 317.4C1778.51 334.8 1764.11 348.9 1746.71 348.9ZM2013.4 406.2L1901.5 277.5C1896.1 271.2 1889.2 268.2 1881.1 268.2H1872.4C1864 268.2 1857.1 275.4 1857.1 283.8V438.3C1857.1 443.1 1861 447 1865.8 447C1870.3 447 1874.5 443.1 1874.5 438.3V273L2000.2 417.6C2008.3 426.9 2023.3 442.8 2036.8 442.8C2050.3 442.8 2065 426.9 2073.1 417.6L2199.1 273V438.3C2199.1 443.1 2203 447 2207.8 447C2212.6 447 2216.5 443.1 2216.5 438.3V283.8C2216.5 275.4 2209.6 268.2 2200.9 268.2H2192.2C2184.1 268.2 2177.5 271.2 2172.1 277.5L2059.9 406.2C2047.6 420.3 2025.7 420.3 2013.4 406.2ZM2364.23 285.6H2608.13C2612.93 285.6 2616.83 281.7 2616.83 276.9C2616.83 272.1 2612.93 268.2 2608.13 268.2H2364.23C2342.63 268.2 2322.23 276.9 2306.93 291.9C2274.53 324.6 2274.53 390.9 2306.93 423.3C2322.23 438.6 2342.63 447 2364.23 447H2608.13C2612.93 447 2616.83 443.1 2616.83 438.3C2616.83 433.5 2612.93 429.6 2608.13 429.6H2364.23C2347.13 429.6 2331.23 423 2319.53 411C2293.73 385.5 2293.73 330 2319.53 304.5C2331.23 292.5 2347.13 285.6 2364.23 285.6ZM2362.13 357.6C2362.13 352.8 2366.03 348.9 2370.83 348.9H2588.33C2593.13 348.9 2597.03 352.8 2597.03 357.6C2597.03 362.4 2593.13 366.3 2588.33 366.3H2370.83C2366.03 366.3 2362.13 362.4 2362.13 357.6ZM2694.83 368.7H2694.23V276.9C2694.23 276.6 2694.23 276.3 2693.93 275.7C2693.33 271.5 2689.73 268.2 2685.53 268.2C2680.73 268.2 2676.83 272.1 2676.83 276.9V357.6C2676.83 381.3 2684.03 406.5 2701.13 423.3C2716.13 438.6 2736.53 447 2758.13 447H3002.03C3006.83 447 3011.03 443.1 3011.03 438.3C3011.03 433.5 3006.83 429.6 3002.03 429.6H2758.13C2741.03 429.6 2725.13 423 2713.43 411C2702.33 400.2 2696.63 384.3 2694.83 368.7Z"
    fill="black" />
  <defs>
    <linearGradient id="paint0_linear_291_8153" x1="422.722" y1="653.369" x2="669.542" y2="415.754"
      gradientUnits="userSpaceOnUse">
      <stop />
      <stop offset="1" stop-color="#5FCAD2" />
    </linearGradient>
  </defs>
</svg>